<svg width="83" height="33" viewBox="0 0 83 33" fill="none" xmlns="http://www.w3.org/2000/svg">
<g filter="url(#filter0_d_1575_2515)">
<rect x="4" width="75" height="25" rx="10" fill="#24E363"/>
<path d="M25.928 15.296H22.436L21.836 17H20.408L23.396 8.648H24.98L27.968 17H26.528L25.928 15.296ZM25.544 14.18L24.188 10.304L22.82 14.18H25.544ZM28.8112 13.688C28.8112 13.008 28.9472 12.412 29.2192 11.9C29.4992 11.38 29.8832 10.98 30.3712 10.7C30.8592 10.42 31.4192 10.28 32.0512 10.28C32.8512 10.28 33.5112 10.472 34.0312 10.856C34.5592 11.232 34.9152 11.772 35.0992 12.476H33.6232C33.5032 12.148 33.3112 11.892 33.0472 11.708C32.7832 11.524 32.4512 11.432 32.0512 11.432C31.4912 11.432 31.0432 11.632 30.7072 12.032C30.3792 12.424 30.2152 12.976 30.2152 13.688C30.2152 14.4 30.3792 14.956 30.7072 15.356C31.0432 15.756 31.4912 15.956 32.0512 15.956C32.8432 15.956 33.3672 15.608 33.6232 14.912H35.0992C34.9072 15.584 34.5472 16.12 34.0192 16.52C33.4912 16.912 32.8352 17.108 32.0512 17.108C31.4192 17.108 30.8592 16.968 30.3712 16.688C29.8832 16.4 29.4992 16 29.2192 15.488C28.9472 14.968 28.8112 14.368 28.8112 13.688ZM36.0065 13.688C36.0065 13.008 36.1425 12.412 36.4145 11.9C36.6945 11.38 37.0785 10.98 37.5665 10.7C38.0545 10.42 38.6145 10.28 39.2465 10.28C40.0465 10.28 40.7065 10.472 41.2265 10.856C41.7545 11.232 42.1105 11.772 42.2945 12.476H40.8185C40.6985 12.148 40.5065 11.892 40.2425 11.708C39.9785 11.524 39.6465 11.432 39.2465 11.432C38.6865 11.432 38.2385 11.632 37.9025 12.032C37.5745 12.424 37.4105 12.976 37.4105 13.688C37.4105 14.4 37.5745 14.956 37.9025 15.356C38.2385 15.756 38.6865 15.956 39.2465 15.956C40.0385 15.956 40.5625 15.608 40.8185 14.912H42.2945C42.1025 15.584 41.7425 16.12 41.2145 16.52C40.6865 16.912 40.0305 17.108 39.2465 17.108C38.6145 17.108 38.0545 16.968 37.5665 16.688C37.0785 16.4 36.6945 16 36.4145 15.488C36.1425 14.968 36.0065 14.368 36.0065 13.688ZM49.7178 13.532C49.7178 13.78 49.7018 14.004 49.6698 14.204H44.6178C44.6578 14.732 44.8538 15.156 45.2058 15.476C45.5578 15.796 45.9898 15.956 46.5018 15.956C47.2378 15.956 47.7578 15.648 48.0618 15.032H49.5378C49.3378 15.64 48.9738 16.14 48.4458 16.532C47.9258 16.916 47.2778 17.108 46.5018 17.108C45.8698 17.108 45.3018 16.968 44.7978 16.688C44.3018 16.4 43.9098 16 43.6218 15.488C43.3418 14.968 43.2018 14.368 43.2018 13.688C43.2018 13.008 43.3378 12.412 43.6098 11.9C43.8898 11.38 44.2778 10.98 44.7738 10.7C45.2778 10.42 45.8538 10.28 46.5018 10.28C47.1258 10.28 47.6818 10.416 48.1698 10.688C48.6578 10.96 49.0378 11.344 49.3098 11.84C49.5818 12.328 49.7178 12.892 49.7178 13.532ZM48.2898 13.1C48.2818 12.596 48.1018 12.192 47.7498 11.888C47.3978 11.584 46.9618 11.432 46.4418 11.432C45.9698 11.432 45.5658 11.584 45.2298 11.888C44.8938 12.184 44.6938 12.588 44.6298 13.1H48.2898ZM52.4321 11.36C52.6641 11.056 52.9801 10.8 53.3801 10.592C53.7801 10.384 54.2321 10.28 54.7361 10.28C55.3121 10.28 55.8361 10.424 56.3081 10.712C56.7881 10.992 57.1641 11.388 57.4361 11.9C57.7081 12.412 57.8441 13 57.8441 13.664C57.8441 14.328 57.7081 14.924 57.4361 15.452C57.1641 15.972 56.7881 16.38 56.3081 16.676C55.8361 16.964 55.3121 17.108 54.7361 17.108C54.2321 17.108 53.7841 17.008 53.3921 16.808C53.0001 16.6 52.6801 16.344 52.4321 16.04V20.144H51.0641V10.388H52.4321V11.36ZM56.4521 13.664C56.4521 13.208 56.3561 12.816 56.1641 12.488C55.9801 12.152 55.7321 11.9 55.4201 11.732C55.1161 11.556 54.7881 11.468 54.4361 11.468C54.0921 11.468 53.7641 11.556 53.4521 11.732C53.1481 11.908 52.9001 12.164 52.7081 12.5C52.5241 12.836 52.4321 13.232 52.4321 13.688C52.4321 14.144 52.5241 14.544 52.7081 14.888C52.9001 15.224 53.1481 15.48 53.4521 15.656C53.7641 15.832 54.0921 15.92 54.4361 15.92C54.7881 15.92 55.1161 15.832 55.4201 15.656C55.7321 15.472 55.9801 15.208 56.1641 14.864C56.3561 14.52 56.4521 14.12 56.4521 13.664ZM60.7929 11.504V15.164C60.7929 15.412 60.8489 15.592 60.9609 15.704C61.0809 15.808 61.2809 15.86 61.5609 15.86H62.4009V17H61.3209C60.7049 17 60.2329 16.856 59.9049 16.568C59.5769 16.28 59.4129 15.812 59.4129 15.164V11.504H58.6329V10.388H59.4129V8.744H60.7929V10.388H62.4009V11.504H60.7929Z" fill="white"/>
</g>
<defs>
<filter id="filter0_d_1575_2515" x="0" y="0" width="83" height="33" filterUnits="userSpaceOnUse" color-interpolation-filters="sRGB">
<feFlood flood-opacity="0" result="BackgroundImageFix"/>
<feColorMatrix in="SourceAlpha" type="matrix" values="0 0 0 0 0 0 0 0 0 0 0 0 0 0 0 0 0 0 127 0" result="hardAlpha"/>
<feOffset dy="4"/>
<feGaussianBlur stdDeviation="2"/>
<feComposite in2="hardAlpha" operator="out"/>
<feColorMatrix type="matrix" values="0 0 0 0 0 0 0 0 0 0 0 0 0 0 0 0 0 0 0.25 0"/>
<feBlend mode="normal" in2="BackgroundImageFix" result="effect1_dropShadow_1575_2515"/>
<feBlend mode="normal" in="SourceGraphic" in2="effect1_dropShadow_1575_2515" result="shape"/>
</filter>
</defs>
</svg>
