<svg width="122" height="80" viewBox="0 0 122 80" fill="none" xmlns="http://www.w3.org/2000/svg">
<g filter="url(#filter0_d_88_14741)">
<path d="M46.435 50H53.095L41.8 18.545H34.465L23.17 50H29.785L31.855 44.015H44.365L46.435 50ZM42.655 38.975H33.565L38.11 25.835L42.655 38.975ZM63.6169 28.67V25.07H57.3169V61.88H63.6169V46.445C65.1469 48.47 67.9369 50.405 71.8519 50.405C78.2419 50.405 83.2369 45.23 83.2369 37.445C83.2369 29.66 78.2419 24.665 71.8519 24.665C67.9819 24.665 65.1019 26.555 63.6169 28.67ZM76.8019 37.445C76.8019 42.17 73.6069 44.87 70.1869 44.87C66.8119 44.87 63.6169 42.26 63.6169 37.535C63.6169 32.81 66.8119 30.2 70.1869 30.2C73.6069 30.2 76.8019 32.72 76.8019 37.445ZM94.115 28.67V25.07H87.815V61.88H94.115V46.445C95.645 48.47 98.435 50.405 102.35 50.405C108.74 50.405 113.735 45.23 113.735 37.445C113.735 29.66 108.74 24.665 102.35 24.665C98.48 24.665 95.6 26.555 94.115 28.67ZM107.3 37.445C107.3 42.17 104.105 44.87 100.685 44.87C97.31 44.87 94.115 42.26 94.115 37.535C94.115 32.81 97.31 30.2 100.685 30.2C104.105 30.2 107.3 32.72 107.3 37.445Z" fill="white"/>
</g>
<g clip-path="url(#clip0_88_14741)">
<path d="M12.0077 36.0497L10.0425 38.0205L12.0077 39.9934L13.9728 38.0205L12.0077 36.0497ZM10.7604 38.0205L12.0077 36.7683L13.2571 38.0205L12.0077 39.2748L10.7604 38.0205Z" fill="white"/>
<path d="M13.9578 31.4175C13.9601 29.438 13.2699 27.5206 12.0076 26C10.7487 27.5224 10.0596 29.4388 10.0596 31.4175C10.0596 33.3961 10.7487 35.3125 12.0076 36.8349C13.2704 35.3146 13.9606 33.397 13.9578 31.4175ZM11.2061 30.6236L11.9926 29.1584L12.7984 30.6128V32.2114L12.0119 33.6765L11.219 32.2307L11.2061 30.6236Z" fill="white"/>
<path d="M12.0075 35.826C11.3657 34.87 10.94 33.7847 10.7603 32.6461L12.0311 34.9417L13.2526 32.6654C13.0712 33.7973 12.6463 34.8758 12.0075 35.826ZM11.9839 27.8934L10.7645 30.1697C10.9448 29.0386 11.3691 27.9607 12.0075 27.0113C12.6507 27.9667 13.0772 29.0522 13.2569 30.1912L11.9839 27.8934Z" fill="white"/>
<path d="M10.0596 44.5824C10.0565 46.5616 10.746 48.4791 12.0076 49.9999C13.2679 48.4777 13.9578 46.5607 13.9578 44.5814C13.9578 42.602 13.2679 40.685 12.0076 39.1628C10.7455 40.6842 10.056 42.6025 10.0596 44.5824ZM12.8091 45.3742L12.0226 46.8415L11.219 45.3849L11.2061 43.7885L11.9926 42.3212L12.7984 43.7778L12.8091 45.3742Z" fill="white"/>
<path d="M12.0075 48.9887C11.3653 48.033 10.9396 46.9475 10.7603 45.8088L12.0311 48.1066L13.2526 45.8282C13.0716 46.9601 12.6467 48.0387 12.0075 48.9887ZM11.9839 41.0518L10.7645 43.3281C10.9448 42.197 11.3691 41.1191 12.0075 40.1697C12.65 41.1255 13.0764 42.2109 13.2569 43.3497L11.9839 41.0518Z" fill="white"/>
<path d="M18.6037 36.0647C16.6322 36.0612 14.7222 36.7534 13.2075 38.0204C14.7234 39.2855 16.6325 39.9781 18.6037 39.9781C20.575 39.9781 22.484 39.2855 23.9999 38.0204C22.485 36.7538 20.5752 36.0616 18.6037 36.0647ZM17.8129 38.8251L16.3514 38.0398L17.8022 37.2308L19.3945 37.2179L20.8539 38.0075L19.3966 38.8143L17.8129 38.8251Z" fill="white"/>
<path d="M22.1138 37.9968L19.8465 36.7726C20.9737 36.9539 22.048 37.3798 22.9946 38.0205C22.042 38.6659 20.9601 39.094 19.825 39.2748L22.1138 37.9968ZM17.3605 39.2705C16.2331 39.0888 15.1587 38.6622 14.2124 38.0205C15.165 37.377 16.2459 36.9497 17.3798 36.7683L15.091 38.0399L17.3605 39.2705Z" fill="white"/>
<path d="M5.39619 36.0647C3.42469 36.0612 1.51468 36.7534 0 38.0204C1.51588 39.2855 3.42496 39.9781 5.39619 39.9781C7.36743 39.9781 9.27651 39.2855 10.7924 38.0204C9.27752 36.7538 7.36763 36.0616 5.39619 36.0647ZM4.6097 38.8251L3.14599 38.0398L4.5947 37.2308L6.18698 37.2179L7.6464 38.0075L6.19769 38.8164L4.6097 38.8251Z" fill="white"/>
<path d="M8.98132 37.9968L6.71397 36.7726C7.8413 36.9536 8.91569 37.3795 9.86211 38.0205C8.91007 38.6655 7.82897 39.0937 6.69468 39.2748L8.98132 37.9968ZM4.22802 39.2705C3.10121 39.0888 2.02753 38.6622 1.08203 38.0205C2.03448 37.3766 3.11546 36.9493 4.24946 36.7683L1.96069 38.0399L4.22802 39.2705Z" fill="white"/>
</g>
<defs>
<filter id="filter0_d_88_14741" x="15.1699" y="18.545" width="106.565" height="61.335" filterUnits="userSpaceOnUse" color-interpolation-filters="sRGB">
<feFlood flood-opacity="0" result="BackgroundImageFix"/>
<feColorMatrix in="SourceAlpha" type="matrix" values="0 0 0 0 0 0 0 0 0 0 0 0 0 0 0 0 0 0 127 0" result="hardAlpha"/>
<feOffset dy="10"/>
<feGaussianBlur stdDeviation="4"/>
<feComposite in2="hardAlpha" operator="out"/>
<feColorMatrix type="matrix" values="0 0 0 0 0 0 0 0 0 0 0 0 0 0 0 0 0 0 0.25 0"/>
<feBlend mode="normal" in2="BackgroundImageFix" result="effect1_dropShadow_88_14741"/>
<feBlend mode="normal" in="SourceGraphic" in2="effect1_dropShadow_88_14741" result="shape"/>
</filter>
<clipPath id="clip0_88_14741">
<rect width="24" height="24" fill="white" transform="translate(0 26)"/>
</clipPath>
</defs>
</svg>
