<svg width="414" height="896" viewBox="0 0 414 896" fill="none" xmlns="http://www.w3.org/2000/svg">
<rect width="414" height="896" fill="#0B0B45"/>
<path d="M189.92 466.08H168.96L165.6 476H151.28L171.6 419.84H187.44L207.76 476H193.28L189.92 466.08ZM186.4 455.52L179.44 434.96L172.56 455.52H186.4ZM227.624 437.68C228.958 435.6 230.798 433.92 233.144 432.64C235.491 431.36 238.238 430.72 241.384 430.72C245.064 430.72 248.398 431.653 251.384 433.52C254.371 435.387 256.718 438.053 258.424 441.52C260.184 444.987 261.064 449.013 261.064 453.6C261.064 458.187 260.184 462.24 258.424 465.76C256.718 469.227 254.371 471.92 251.384 473.84C248.398 475.707 245.064 476.64 241.384 476.64C238.291 476.64 235.544 476 233.144 474.72C230.798 473.44 228.958 471.787 227.624 469.76V497.28H213.944V431.36H227.624V437.68ZM247.144 453.6C247.144 450.187 246.184 447.52 244.264 445.6C242.398 443.627 240.078 442.64 237.304 442.64C234.584 442.64 232.264 443.627 230.344 445.6C228.478 447.573 227.544 450.267 227.544 453.68C227.544 457.093 228.478 459.787 230.344 461.76C232.264 463.733 234.584 464.72 237.304 464.72C240.024 464.72 242.344 463.733 244.264 461.76C246.184 459.733 247.144 457.013 247.144 453.6ZM281.921 437.68C283.255 435.6 285.095 433.92 287.441 432.64C289.788 431.36 292.535 430.72 295.681 430.72C299.361 430.72 302.695 431.653 305.681 433.52C308.668 435.387 311.015 438.053 312.721 441.52C314.481 444.987 315.361 449.013 315.361 453.6C315.361 458.187 314.481 462.24 312.721 465.76C311.015 469.227 308.668 471.92 305.681 473.84C302.695 475.707 299.361 476.64 295.681 476.64C292.588 476.64 289.841 476 287.441 474.72C285.095 473.44 283.255 471.787 281.921 469.76V497.28H268.241V431.36H281.921V437.68ZM301.441 453.6C301.441 450.187 300.481 447.52 298.561 445.6C296.695 443.627 294.375 442.64 291.601 442.64C288.881 442.64 286.561 443.627 284.641 445.6C282.775 447.573 281.841 450.267 281.841 453.68C281.841 457.093 282.775 459.787 284.641 461.76C286.561 463.733 288.881 464.72 291.601 464.72C294.321 464.72 296.641 463.733 298.561 461.76C300.481 459.733 301.441 457.013 301.441 453.6Z" fill="white"/>
<path d="M121.52 444.347L117.315 448.547L121.52 452.753L125.721 448.547L121.52 444.347ZM118.853 448.547L121.52 445.88L124.188 448.547L121.52 451.219L118.853 448.547Z" fill="white"/>
<path d="M125.689 434.481C125.696 430.262 124.221 426.176 121.52 422.936C118.826 426.179 117.351 430.262 117.351 434.478C117.351 438.695 118.826 442.778 121.52 446.021C124.22 442.782 125.695 438.697 125.689 434.481ZM119.792 432.789L121.475 429.663L123.199 432.766L123.221 436.168L121.538 439.294L119.815 436.195L119.792 432.789Z" fill="white"/>
<path d="M121.52 443.857C120.146 441.82 119.235 439.507 118.853 437.079L121.575 441.974L124.188 437.125C123.798 439.536 122.888 441.833 121.52 443.857ZM121.471 426.954L118.858 431.808C119.247 429.398 120.156 427.101 121.52 425.076C122.895 427.111 123.806 429.423 124.188 431.849L121.471 426.954Z" fill="#231F20"/>
<path d="M117.352 462.524C117.344 466.742 118.82 470.829 121.521 474.069C124.215 470.826 125.69 466.742 125.69 462.526C125.69 458.31 124.215 454.227 121.521 450.983C118.821 454.223 117.346 458.307 117.352 462.524ZM123.249 464.216L121.566 467.337L119.842 464.239L119.819 460.832L121.502 457.711L123.226 460.809L123.249 464.216Z" fill="white"/>
<path d="M121.52 471.914C120.146 469.88 119.235 467.567 118.853 465.142L121.575 470.036L124.188 465.182C123.799 467.594 122.889 469.891 121.52 471.914ZM121.471 455.016L118.858 459.866C119.248 457.456 120.156 455.159 121.52 453.134C122.895 455.17 123.805 457.484 124.188 459.911L121.471 455.016Z" fill="#231F20"/>
<path d="M135.629 444.379C131.41 444.372 127.324 445.847 124.083 448.548C127.327 451.242 131.41 452.717 135.626 452.717C139.843 452.717 143.926 451.242 147.169 448.548C143.93 445.848 139.845 444.373 135.629 444.379ZM133.937 450.276L130.811 448.593L133.914 446.874L137.316 446.847L140.442 448.53L137.343 450.254L133.937 450.276Z" fill="white"/>
<path d="M143.136 448.498L138.287 445.885C140.697 446.275 142.994 447.184 145.019 448.548C142.981 449.921 140.668 450.833 138.242 451.22L143.136 448.498ZM132.97 451.22C130.559 450.832 128.262 449.923 126.238 448.557C128.273 447.182 130.585 446.271 133.011 445.889L128.116 448.611L132.97 451.22Z" fill="#231F20"/>
<path d="M107.376 444.379C103.159 444.373 99.0747 445.848 95.8354 448.548C99.0786 451.242 103.162 452.717 107.378 452.717C111.595 452.717 115.678 451.242 118.921 448.548C115.681 445.847 111.594 444.372 107.376 444.379ZM105.688 450.276L102.563 448.593L105.666 446.874L109.068 446.847L112.194 448.53L109.091 450.254L105.688 450.276Z" fill="white"/>
<path d="M115.047 448.498L110.198 445.885C112.608 446.274 114.905 447.183 116.93 448.548C114.893 449.923 112.579 450.835 110.152 451.22L115.047 448.498ZM104.881 451.22C102.47 450.832 100.173 449.923 98.1489 448.557C100.185 447.181 102.499 446.27 104.926 445.889L100.027 448.611L104.881 451.22Z" fill="#231F20"/>
</svg>
