<svg width="30" height="30" viewBox="0 0 30 30" fill="none" xmlns="http://www.w3.org/2000/svg">
<circle cx="15" cy="15" r="15" transform="rotate(-180 15 15)" fill="#E5F1FF"/>
<path fill-rule="evenodd" clip-rule="evenodd" d="M19.6001 16.5C20.3732 16.5 21 15.8284 21 15C21 14.1715 20.3732 13.5 19.6001 13.5L11.7797 13.5L13.5897 11.5606C14.1364 10.9749 14.1364 10.0251 13.5897 9.43931C13.0429 8.85356 12.1566 8.85356 11.6097 9.43931L7.40991 13.9393C7.14742 14.2206 7 14.6022 7 15C7 15.3978 7.14742 15.7794 7.40991 16.0606L11.6097 20.5607C12.1566 21.1464 13.0429 21.1464 13.5897 20.5607C14.1364 19.9749 14.1364 19.0251 13.5897 18.4393L11.7797 16.5L19.6001 16.5Z" fill="#0B0B45"/>
</svg>
