<svg width="25" height="25" viewBox="0 0 25 25" fill="none" xmlns="http://www.w3.org/2000/svg">
<path d="M20.9581 17.7439L18.7397 14.6049V8.47246C18.7397 5.34248 16.4231 2.7437 13.4145 2.29985V0.914649C13.4145 0.409522 13.005 0 12.4999 0C11.9948 0 11.5852 0.409522 11.5852 0.914649V2.2998C8.57664 2.74365 6.25999 5.34243 6.25999 8.47241V14.6049L4.04158 17.7439C3.61453 18.348 4.047 19.1864 4.78846 19.1864H20.2113C20.9512 19.1864 21.3862 18.3493 20.9581 17.7439Z" fill="white"/>
<path d="M12.4999 19.8398C11.0771 19.8398 9.91968 20.9973 9.91968 22.42C9.91968 23.8428 11.0772 25.0003 12.4999 25.0003C13.9227 25.0003 15.0801 23.8428 15.0801 22.4201C15.0801 20.9974 13.9226 19.8398 12.4999 19.8398Z" fill="white"/>
</svg>
