<svg width="24" height="24" viewBox="0 0 24 24" fill="none" xmlns="http://www.w3.org/2000/svg">
<path d="M13.2415 0C12.819 0 12.4032 0.0314483 11.9935 0.0868966C11.5714 0.0306207 11.1556 0 10.7588 0C7.71241 0 4.96524 1.47724 3.03738 3.83338C3.01793 3.85076 3.00345 3.87145 2.98772 3.89255C2.37324 4.65393 1.84524 5.50593 1.4182 6.42786C1.40745 6.44772 1.39834 6.46676 1.39089 6.48828C1.09669 7.13255 0.850893 7.80993 0.662617 8.51545C0.643997 8.55517 0.635721 8.59862 0.630342 8.64414C0.356411 9.70965 0.207031 10.8352 0.207031 12C0.207031 13.8228 0.567859 15.5508 1.21007 17.0996C1.21586 17.1157 1.22124 17.131 1.22869 17.1459C1.61393 18.0646 2.09848 18.9186 2.66703 19.6908C2.6811 19.7098 2.69269 19.7305 2.71007 19.747C3.28524 20.5188 3.94482 21.2061 4.67186 21.7924C4.69213 21.8152 4.71696 21.8313 4.74179 21.8491C6.44951 23.203 8.52345 24 10.7588 24C11.1556 24 11.5714 23.9694 11.9935 23.9131C12.4032 23.9686 12.819 24 13.2415 24C19.0599 24 23.7932 18.617 23.7932 12C23.7932 5.38303 19.0599 0 13.2415 0ZM8.86317 1.08621C8.73158 1.1549 8.60165 1.22607 8.47296 1.30055C8.39476 1.34566 8.31572 1.38993 8.23876 1.4371C8.12538 1.50703 8.01448 1.58069 7.90358 1.65517H7.10662C7.71158 1.37214 8.34345 1.14869 9.00138 1.01007C8.95462 1.03366 8.90993 1.06179 8.86317 1.08621ZM4.70082 19.0345H3.21655C2.85158 18.5189 2.52758 17.9648 2.2462 17.3793H3.81365C3.87862 17.5262 3.94565 17.6714 4.01558 17.8146C4.04538 17.8759 4.07682 17.9359 4.10745 17.9963C4.19269 18.1635 4.28124 18.3277 4.3731 18.4895C4.40662 18.5491 4.43931 18.6091 4.47365 18.6679C4.54689 18.7924 4.62345 18.9137 4.70082 19.0345ZM2.05586 7.03448H3.63945C3.56662 7.21572 3.49793 7.39903 3.43296 7.58441C3.41517 7.63531 3.39738 7.68579 3.38 7.73669C3.32041 7.91462 3.26496 8.09421 3.21241 8.27586H1.59572C1.72772 7.84924 1.88165 7.43545 2.05586 7.03448ZM1.03462 12C1.03462 11.7211 1.04951 11.4463 1.06689 11.1724H2.71669C2.71627 11.179 2.71627 11.1857 2.71586 11.1923C2.70055 11.4596 2.68979 11.7281 2.68979 12C2.68979 12.1386 2.69476 12.276 2.69889 12.4138H1.05076C1.0462 12.2756 1.03462 12.1394 1.03462 12ZM2.74607 13.2414C2.76179 13.4156 2.78207 13.5886 2.80441 13.7607C2.80607 13.7731 2.80689 13.7859 2.80855 13.7988C2.83917 14.0288 2.87641 14.2568 2.9182 14.4828H1.2862C1.20551 14.0764 1.14179 13.663 1.10082 13.2414H2.74607ZM3.00262 9.10345C2.99186 9.15269 2.98276 9.20234 2.97241 9.25159C2.96124 9.30579 2.95007 9.35959 2.93931 9.41379C2.88882 9.67366 2.84372 9.93559 2.80855 10.2012C2.80689 10.2137 2.80607 10.2265 2.80441 10.2393C2.79986 10.2745 2.79696 10.3097 2.79241 10.3448H1.15007C1.20469 9.92359 1.27379 9.50814 1.36855 9.10345H3.00262ZM3.10151 15.3103C3.11434 15.3612 3.12634 15.4126 3.14 15.4634C3.14455 15.4812 3.14869 15.4994 3.15365 15.5172C3.22193 15.7697 3.29848 16.0179 3.38082 16.2629C3.39779 16.3138 3.416 16.3643 3.43379 16.4152C3.44951 16.4607 3.46482 16.5062 3.48138 16.5513H1.8862C1.72938 16.1495 1.59448 15.7349 1.47945 15.3099H3.10151V15.3103ZM4.47365 5.33172C4.43931 5.39048 4.40662 5.45048 4.3731 5.51007C4.28124 5.67186 4.19269 5.83655 4.10745 6.00331C4.07682 6.06372 4.04538 6.12372 4.01558 6.18497C4.01186 6.19241 4.00813 6.19945 4.00441 6.2069H2.45351C2.76676 5.61641 3.12758 5.064 3.52772 4.55172H4.97724C4.92676 4.62414 4.87586 4.69572 4.82703 4.76938C4.70496 4.95269 4.58662 5.14014 4.47365 5.33172ZM5.68193 2.48276H6.82524C6.72303 2.57214 6.62082 2.66234 6.5211 2.75586C6.4371 2.83531 6.35558 2.91766 6.27365 2.99959C6.19255 3.0811 6.11227 3.16345 6.03365 3.24786C5.95669 3.33021 5.87931 3.41172 5.80441 3.49614C5.73862 3.57062 5.67572 3.64759 5.61158 3.72414H4.24524C4.68965 3.26193 5.16924 2.84524 5.68193 2.48276ZM3.85834 19.8621H5.27848C5.32524 19.9233 5.37158 19.985 5.41958 20.045C5.54455 20.2018 5.67282 20.3549 5.80482 20.5039C5.87972 20.5887 5.9571 20.6702 6.03407 20.7521C6.1131 20.8361 6.19296 20.9189 6.27407 21.0004C6.30758 21.0343 6.33986 21.0703 6.37379 21.1034H5.1291C4.67476 20.7314 4.24979 20.316 3.85834 19.8621ZM9.00138 22.9899C8.05255 22.7901 7.15586 22.4234 6.32413 21.931H7.3251C7.37682 21.9708 7.42979 22.0084 7.48193 22.0473C7.57007 22.1127 7.65738 22.1785 7.74717 22.241C7.90813 22.3531 8.072 22.4607 8.23834 22.5629C8.31572 22.6105 8.39434 22.6543 8.47255 22.6994C8.60124 22.7739 8.73117 22.8455 8.86276 22.9138C8.90993 22.9382 8.95462 22.9663 9.00138 22.9899ZM13.2415 23.1724C12.913 23.1724 12.5881 23.153 12.2674 23.1161L12.1032 23.093C12.0829 23.0901 12.0626 23.0872 12.0423 23.0843C11.8983 23.064 11.7556 23.04 11.6137 23.0127C11.6033 23.0106 11.5934 23.0086 11.5834 23.0065C11.4448 22.9792 11.3074 22.949 11.1713 22.915C11.1531 22.9105 11.1353 22.9055 11.1175 22.9006C10.9897 22.8679 10.8626 22.8331 10.7368 22.7946C10.7029 22.7843 10.6698 22.7723 10.6363 22.7615C10.5266 22.7268 10.4174 22.6912 10.3098 22.6519C10.2332 22.6241 10.1579 22.5931 10.0826 22.5633C10.0181 22.5381 9.9531 22.5141 9.88938 22.4872C7.66482 21.5454 5.82013 19.6949 4.69793 17.3297C4.688 17.3081 4.67848 17.2866 4.66855 17.2651C4.60813 17.136 4.54938 17.0052 4.49351 16.8728C4.47158 16.8211 4.45131 16.7686 4.4302 16.7164C4.388 16.613 4.34662 16.5091 4.30731 16.404C4.28248 16.3374 4.25889 16.2699 4.23489 16.2025C4.2022 16.1102 4.16993 16.0175 4.13889 15.9236C4.11407 15.8479 4.09048 15.7717 4.06731 15.6952C4.04041 15.6074 4.01434 15.5193 3.9891 15.4303C3.96634 15.3497 3.94482 15.2686 3.92372 15.1874C3.90096 15.1006 3.87945 15.0128 3.85876 14.9247C3.83889 14.8415 3.81986 14.7579 3.80207 14.6735C3.78303 14.5854 3.76565 14.4964 3.74869 14.4074C3.73255 14.323 3.71641 14.2382 3.70151 14.1534C3.68579 14.0615 3.67213 13.9688 3.65848 13.8757C3.64607 13.7926 3.63365 13.7098 3.62289 13.6258C3.61007 13.5265 3.60013 13.4259 3.58979 13.3258C3.58151 13.2476 3.57241 13.1698 3.56579 13.0912C3.55586 12.9761 3.54924 12.8603 3.54262 12.744C3.53889 12.6786 3.53351 12.6141 3.53062 12.5487C3.52193 12.3679 3.51738 12.1846 3.51738 12C3.51738 11.8154 3.52193 11.6321 3.52938 11.4497C3.53227 11.3843 3.53765 11.3193 3.54138 11.2543C3.548 11.1385 3.55462 11.0222 3.56455 10.9072C3.57117 10.8286 3.58027 10.7508 3.58855 10.6726C3.59889 10.5724 3.60924 10.4719 3.62165 10.3726C3.63241 10.289 3.64524 10.2058 3.65724 10.1226C3.67089 10.0299 3.68496 9.93724 3.70027 9.84497C3.71476 9.75972 3.73089 9.67531 3.74745 9.5909C3.76441 9.50193 3.78179 9.41297 3.80082 9.32483C3.81903 9.24083 3.83807 9.15724 3.85751 9.07366C3.8782 8.98552 3.90013 8.89821 3.92248 8.8109C3.94358 8.72938 3.9651 8.64869 3.98786 8.568C4.01269 8.47903 4.03917 8.3909 4.06607 8.30317C4.09007 8.22786 4.11324 8.15131 4.13807 8.076C4.16869 7.98248 4.20096 7.88979 4.23407 7.7971C4.25807 7.72966 4.28124 7.66221 4.30648 7.59559C4.34579 7.49048 4.38758 7.38662 4.42938 7.28317C4.45048 7.23103 4.47076 7.17848 4.49269 7.12676C4.54855 6.99434 4.60731 6.864 4.66772 6.73448C4.67765 6.71297 4.68717 6.69103 4.6971 6.66993C5.81931 4.30428 7.66441 2.45379 9.88855 1.51241C9.95227 1.48552 10.0172 1.46193 10.0818 1.43628C10.1575 1.40648 10.2328 1.37545 10.309 1.34772C10.417 1.30883 10.5262 1.27283 10.6354 1.23807C10.669 1.22731 10.7025 1.21531 10.736 1.20497C10.8618 1.16648 10.9888 1.13172 11.1167 1.09903C11.1349 1.09448 11.1527 1.0891 11.1705 1.08455C11.3066 1.05062 11.444 1.02041 11.5826 0.993104C11.593 0.991035 11.6029 0.988966 11.6128 0.986897C11.7548 0.959586 11.8975 0.935586 12.0415 0.91531C12.0618 0.912414 12.0821 0.909103 12.1023 0.906621L12.2666 0.883448C12.5881 0.847035 12.913 0.827586 13.2415 0.827586C18.6034 0.827586 22.9657 5.83945 22.9657 12C22.9657 18.1606 18.6034 23.1724 13.2415 23.1724Z" fill="white"/>
<path d="M13.2417 3.5073C13.4925 3.5073 13.7462 3.5222 13.994 3.55075C14.0106 3.55282 14.0267 3.55365 14.0424 3.55365C14.2497 3.55365 14.4285 3.39848 14.4529 3.18786C14.4794 2.9611 14.3168 2.75544 14.09 2.72896C13.8115 2.69627 13.5281 2.67972 13.2343 2.67972C13.2326 2.67972 13.231 2.67972 13.2293 2.67972L13.224 3.09351V2.67972C12.9951 2.67972 12.8188 2.86468 12.8188 3.09351C12.8193 3.32234 13.0129 3.5073 13.2417 3.5073Z" fill="white"/>
<path d="M16.1983 4.21739C16.4267 4.33242 16.6522 4.46236 16.8686 4.60346C16.9381 4.64898 17.0163 4.67091 17.0941 4.67091C17.229 4.67091 17.3614 4.6047 17.4413 4.48305C17.5663 4.29187 17.5121 4.03532 17.3205 3.91036C17.0784 3.75229 16.8264 3.60705 16.5707 3.47836C16.3658 3.37532 16.1176 3.45767 16.0149 3.66167C15.9123 3.86567 15.9943 4.11436 16.1983 4.21739Z" fill="white"/>
<path d="M20.3318 9.63806C20.3786 9.82592 20.5474 9.9513 20.7328 9.9513C20.7663 9.9513 20.7998 9.94716 20.8337 9.93889C21.0555 9.88344 21.19 9.65875 21.1346 9.43695C21.0655 9.16178 20.9839 8.88578 20.8917 8.61682C20.8172 8.40082 20.5822 8.28537 20.3657 8.35985C20.1497 8.43392 20.0343 8.66937 20.1084 8.88578C20.1932 9.13199 20.2681 9.38523 20.3318 9.63806Z" fill="white"/>
<path d="M18.63 17.801C18.4657 18.0029 18.2907 18.1982 18.109 18.3819C17.9485 18.5446 17.9501 18.8065 18.1132 18.9671C18.1934 19.0465 18.2985 19.0866 18.4037 19.0866C18.5104 19.0866 18.6172 19.0457 18.6983 18.9637C18.8977 18.7614 19.0905 18.5462 19.2718 18.324C19.4162 18.1465 19.3893 17.8858 19.2118 17.7418C19.0343 17.5978 18.774 17.6239 18.63 17.801Z" fill="white"/>
<path d="M19.7507 6.32109C19.5905 6.08482 19.4176 5.85351 19.2368 5.63337C19.0911 5.45709 18.8312 5.43144 18.6541 5.57668C18.4779 5.72192 18.4526 5.98261 18.5974 6.1593C18.7621 6.35958 18.9198 6.5702 19.0654 6.78537C19.1453 6.90371 19.2761 6.96702 19.4085 6.96702C19.4883 6.96702 19.569 6.94385 19.6402 6.89585C19.8293 6.76758 19.879 6.5102 19.7507 6.32109Z" fill="white"/>
<path d="M16.243 19.7603C16.0133 19.8782 15.7758 19.9837 15.537 20.0735C15.3231 20.1538 15.2151 20.3926 15.2958 20.6065C15.3579 20.7724 15.5155 20.8746 15.6831 20.8746C15.7315 20.8746 15.7808 20.8659 15.8292 20.8477C16.0973 20.7468 16.3642 20.6284 16.6216 20.4964C16.8248 20.3921 16.905 20.1426 16.8008 19.9395C16.6965 19.7363 16.447 19.6552 16.243 19.7603Z" fill="white"/>
<path d="M13.2417 20.4927C12.9848 20.4927 12.7257 20.4774 12.4733 20.4472C12.2399 20.424 12.0401 20.5825 12.0132 20.8092C11.9863 21.036 12.1481 21.2421 12.3748 21.2694C12.6603 21.3033 12.9525 21.3207 13.2421 21.3207H13.2773C13.5061 21.3207 13.6733 21.1353 13.6733 20.9069C13.6733 20.6785 13.4706 20.4927 13.2417 20.4927Z" fill="white"/>
<path d="M20.6491 14.8063C20.4331 14.7323 20.1976 14.8498 20.1248 15.0662C20.0412 15.3137 19.946 15.5599 19.8422 15.7986C19.7507 16.008 19.8471 16.2521 20.0565 16.3432C20.1103 16.3668 20.1666 16.3775 20.2212 16.3775C20.3813 16.3775 20.5332 16.2844 20.6011 16.1288C20.714 15.8686 20.8175 15.6 20.9085 15.3302C20.9822 15.1142 20.8659 14.8796 20.6491 14.8063Z" fill="white"/>
<path d="M21.0349 11.573C20.806 11.573 20.6211 11.7716 20.6211 12C20.6211 12.2553 20.6115 12.5115 20.5921 12.761C20.5743 12.989 20.7448 13.188 20.9728 13.2054C20.9835 13.2062 20.9947 13.2066 21.0051 13.2066C21.2194 13.2066 21.4002 13.0419 21.4172 12.8247C21.4383 12.5541 21.4486 12.2764 21.4486 12V11.9735C21.4486 11.7447 21.2637 11.573 21.0349 11.573Z" fill="white"/>
<path d="M5.86225 12C5.86225 11.7422 5.8726 11.4803 5.89287 11.2221C5.91067 10.9941 5.7406 10.795 5.5126 10.7768C5.28874 10.7619 5.08598 10.9291 5.06777 11.1567C5.04584 11.4364 5.03467 11.7203 5.03467 11.9996V12.0083C5.03467 12.2367 5.21963 12.4175 5.44846 12.4175C5.67729 12.4175 5.86225 12.2284 5.86225 12Z" fill="white"/>
<path d="M6.14701 14.3454C6.09156 14.1236 5.86646 13.9883 5.64549 14.0437C5.4237 14.0987 5.2888 14.3234 5.34384 14.5452C5.41253 14.8208 5.49404 15.0968 5.58591 15.3658C5.64466 15.5379 5.80522 15.6459 5.97735 15.6459C6.02163 15.6459 6.06673 15.6385 6.11101 15.6236C6.32701 15.5495 6.44287 15.3145 6.3688 15.0981C6.2848 14.8518 6.21032 14.5986 6.14701 14.3454Z" fill="white"/>
<path d="M10.0672 4.27738C10.1301 4.27738 10.1946 4.2629 10.2546 4.23228C10.4855 4.11476 10.7234 4.00966 10.9618 3.92069C11.1757 3.84083 11.2841 3.60207 11.2043 3.38814C11.1244 3.1738 10.8869 3.06497 10.6717 3.14566C10.4044 3.2458 10.1375 3.36331 9.87889 3.49531C9.67531 3.59876 9.5942 3.84828 9.69806 4.05187C9.77131 4.19504 9.91655 4.27738 10.0672 4.27738Z" fill="white"/>
<path d="M6.43451 7.64069C6.22389 7.54717 5.981 7.644 5.88955 7.85338C5.77617 8.11241 5.67189 8.38097 5.58003 8.65159C5.50679 8.868 5.62307 9.10303 5.83907 9.17669C5.88293 9.19159 5.92803 9.19862 5.97189 9.19862C6.14445 9.19862 6.30541 9.08979 6.36376 8.91766C6.44776 8.66938 6.54334 8.42317 6.64762 8.18607C6.73907 7.97669 6.64389 7.73255 6.43451 7.64069Z" fill="white"/>
<path d="M10.2696 19.7756C10.0412 19.6597 9.81569 19.529 9.60011 19.3875C9.40893 19.2621 9.1528 19.3163 9.027 19.507C8.90204 19.6982 8.95542 19.9548 9.14659 20.0797C9.38783 20.2378 9.63942 20.3835 9.89555 20.5134C9.95555 20.544 10.0193 20.5581 10.0822 20.5581C10.2332 20.5581 10.3789 20.4753 10.4517 20.3317C10.5551 20.1282 10.474 19.879 10.2696 19.7756Z" fill="white"/>
<path d="M7.40798 17.2001C7.27971 17.0106 7.02274 16.961 6.83323 17.0888C6.64412 17.2171 6.59447 17.4741 6.72233 17.6636C6.88454 17.9032 7.05667 18.1349 7.23461 18.3521C7.31654 18.4519 7.43488 18.5036 7.55488 18.5036C7.64716 18.5036 7.73985 18.473 7.81681 18.4097C7.99392 18.2644 8.01916 18.0041 7.87474 17.827C7.71336 17.6297 7.55612 17.4186 7.40798 17.2001Z" fill="white"/>
<path d="M7.79851 5.02344C7.59906 5.22455 7.40541 5.43972 7.22334 5.66234C7.07851 5.83944 7.10499 6.10013 7.2821 6.24455C7.35906 6.30744 7.45175 6.33806 7.54361 6.33806C7.66361 6.33806 7.78279 6.28634 7.8643 6.1862C8.02941 5.98386 8.20485 5.78896 8.3861 5.60648C8.54706 5.44427 8.54623 5.18234 8.38361 5.02137C8.22141 4.86041 7.95948 4.86082 7.79851 5.02344Z" fill="white"/>
<path d="M16.0977 11.2072C16.7453 10.7491 17.073 10.0783 17.073 9.20813C17.073 8.46951 16.8223 7.84344 16.327 7.34855C15.8316 6.85365 15.1828 6.60248 14.3987 6.60248H10.2181C9.96779 6.60248 9.80558 6.76468 9.80558 7.01503C9.80558 7.26537 9.96737 7.42758 10.2181 7.42758L11.1765 7.42634L11.1773 13.4305H9.93137C9.70379 13.4305 9.51758 13.6167 9.51758 13.8443C9.51758 14.0719 9.70379 14.2581 9.93137 14.2581H11.1773V15.7862H10.2177C9.96737 15.7862 9.80516 15.9484 9.80516 16.1988C9.80516 16.4491 9.96696 16.6113 10.2177 16.6113H14.947C15.8325 16.6113 16.5305 16.3552 17.0213 15.8495C17.5104 15.3455 17.7583 14.693 17.7583 13.9096C17.7583 12.5019 17.2005 11.5953 16.0977 11.2072ZM12.0003 7.428H14.3987C14.9772 7.428 15.4203 7.58979 15.7534 7.92206C16.0861 8.25517 16.2479 8.66689 16.2479 9.18082C16.2479 9.69641 16.0832 10.1181 15.7439 10.4698C15.4071 10.8194 14.9892 10.9891 14.4674 10.9891L12.0012 10.9903L12.0003 7.43006C12.0003 7.43006 11.983 7.428 12.0003 7.428ZM16.4114 15.2648C16.0601 15.6161 15.5813 15.7866 14.947 15.7866L12.0012 15.7883L12.0008 14.2585H13.6555C13.8831 14.2585 14.0693 14.0723 14.0693 13.8447C14.0693 13.6171 13.8831 13.4309 13.6555 13.4309H12.0008L12.0003 11.8167C12.0003 11.8167 11.9825 11.8142 11.9999 11.8142H14.947C15.5813 11.8142 16.0601 11.9847 16.4114 12.336C16.7627 12.6877 16.9332 13.1665 16.9332 13.8004C16.9332 14.4343 16.7627 14.9135 16.4114 15.2648Z" fill="white"/>
</svg>
