<svg width="35" height="35" viewBox="0 0 35 35" fill="none" xmlns="http://www.w3.org/2000/svg">
<g clip-path="url(#clip0_174_37221)">
<path fill-rule="evenodd" clip-rule="evenodd" d="M34.4762 21.736C32.1386 31.1121 22.6422 36.8182 13.265 34.4801C3.89168 32.1425 -1.81447 22.6455 0.524214 13.27C2.86071 3.89285 12.3571 -1.81385 21.7316 0.523741C31.1082 2.86133 36.8138 12.3594 34.4762 21.736ZM25.2166 15.0087C25.565 12.6799 23.7918 11.4279 21.3673 10.5928L22.1538 7.43807L20.2335 6.9595L19.4678 10.0311C18.963 9.90529 18.4445 9.7866 17.9293 9.66901L18.7004 6.5772L16.7813 6.09863L15.9942 9.25225C15.5764 9.15708 15.1662 9.06301 14.768 8.96402L14.7702 8.95417L12.1219 8.29293L11.6111 10.3439C11.6111 10.3439 13.0359 10.6704 13.0058 10.6907C13.7835 10.8848 13.9241 11.3995 13.9006 11.8075L13.0047 15.4014C13.0583 15.4151 13.1277 15.4348 13.2043 15.4654C13.1403 15.4495 13.072 15.432 13.0014 15.4151L11.7456 20.4496C11.6505 20.6859 11.4093 21.0403 10.8656 20.9058C10.8848 20.9336 9.46985 20.5574 9.46985 20.5574L8.51655 22.7555L11.0155 23.3784C11.4804 23.4949 11.936 23.6169 12.3845 23.7318L11.5898 26.9226L13.5079 27.4011L14.2949 24.2442C14.8189 24.3864 15.3275 24.5177 15.8252 24.6413L15.0409 27.7834L16.9612 28.262L17.7559 25.0772C21.0304 25.6969 23.4927 25.4469 24.5291 22.4853C25.3643 20.1007 24.4875 18.7251 22.7647 17.8282C24.0194 17.5388 24.9645 16.7135 25.2166 15.0087ZM20.8291 21.1612C20.2357 23.5458 16.2207 22.2567 14.919 21.9334L15.9734 17.7062C17.2751 18.0311 21.4493 18.6743 20.8291 21.1612ZM21.4231 14.9743C20.8816 17.1434 17.5399 16.0413 16.4558 15.7711L17.4119 11.9371C18.4959 12.2073 21.987 12.7116 21.4231 14.9743Z" fill="white"/>
</g>
<defs>
<clipPath id="clip0_174_37221">
<rect width="35" height="35" fill="white"/>
</clipPath>
</defs>
</svg>
