<svg width="34" height="34" viewBox="0 0 34 34" fill="none" xmlns="http://www.w3.org/2000/svg">
<path d="M28.6666 3.66634H26.9999V1.99967C26.9999 0.999674 26.3333 0.333008 25.3333 0.333008C24.3333 0.333008 23.6666 0.999674 23.6666 1.99967V3.66634H10.3333V1.99967C10.3333 0.999674 9.66659 0.333008 8.66659 0.333008C7.66659 0.333008 6.99992 0.999674 6.99992 1.99967V3.66634H5.33325C2.49992 3.66634 0.333252 5.83301 0.333252 8.66634V10.333H33.6666V8.66634C33.6666 5.83301 31.4999 3.66634 28.6666 3.66634ZM0.333252 28.6663C0.333252 31.4997 2.49992 33.6663 5.33325 33.6663H28.6666C31.4999 33.6663 33.6666 31.4997 33.6666 28.6663V13.6663H0.333252V28.6663ZM25.3333 16.9997C26.3333 16.9997 26.9999 17.6663 26.9999 18.6663C26.9999 19.6663 26.3333 20.333 25.3333 20.333C24.3333 20.333 23.6666 19.6663 23.6666 18.6663C23.6666 17.6663 24.3333 16.9997 25.3333 16.9997ZM25.3333 23.6663C26.3333 23.6663 26.9999 24.333 26.9999 25.333C26.9999 26.333 26.3333 26.9997 25.3333 26.9997C24.3333 26.9997 23.6666 26.333 23.6666 25.333C23.6666 24.333 24.3333 23.6663 25.3333 23.6663ZM16.9999 16.9997C17.9999 16.9997 18.6666 17.6663 18.6666 18.6663C18.6666 19.6663 17.9999 20.333 16.9999 20.333C15.9999 20.333 15.3333 19.6663 15.3333 18.6663C15.3333 17.6663 15.9999 16.9997 16.9999 16.9997ZM16.9999 23.6663C17.9999 23.6663 18.6666 24.333 18.6666 25.333C18.6666 26.333 17.9999 26.9997 16.9999 26.9997C15.9999 26.9997 15.3333 26.333 15.3333 25.333C15.3333 24.333 15.9999 23.6663 16.9999 23.6663ZM8.66659 16.9997C9.66659 16.9997 10.3333 17.6663 10.3333 18.6663C10.3333 19.6663 9.66659 20.333 8.66659 20.333C7.66659 20.333 6.99992 19.6663 6.99992 18.6663C6.99992 17.6663 7.66659 16.9997 8.66659 16.9997ZM8.66659 23.6663C9.66659 23.6663 10.3333 24.333 10.3333 25.333C10.3333 26.333 9.66659 26.9997 8.66659 26.9997C7.66659 26.9997 6.99992 26.333 6.99992 25.333C6.99992 24.333 7.66659 23.6663 8.66659 23.6663Z" fill="white"/>
</svg>
