<svg width="18" height="18" viewBox="0 0 18 18" fill="none" xmlns="http://www.w3.org/2000/svg">
<path d="M14.2735 17.7496C13.511 17.7496 12.4399 17.4739 10.836 16.5778C8.88562 15.484 7.37702 14.4742 5.43718 12.5395C3.56687 10.6703 2.65671 9.46019 1.38288 7.14222C-0.0561796 4.52503 0.189133 3.15315 0.463351 2.56683C0.789914 1.86604 1.27195 1.4469 1.89499 1.03089C2.24888 0.799027 2.62338 0.600269 3.01374 0.437138C3.0528 0.420341 3.08913 0.404325 3.12155 0.389872C3.31491 0.302763 3.60788 0.171122 3.97898 0.311747C4.22663 0.404716 4.44773 0.59495 4.79382 0.936747C5.50359 1.63675 6.47351 3.19573 6.83132 3.96136C7.07155 4.47737 7.23054 4.818 7.23093 5.20003C7.23093 5.64729 7.00593 5.99222 6.73288 6.36448C6.68171 6.4344 6.63093 6.5012 6.58171 6.56604C6.28444 6.95667 6.21921 7.06956 6.26218 7.27112C6.34929 7.6762 6.9989 8.88206 8.06647 9.9473C9.13405 11.0125 10.3051 11.6211 10.7118 11.7078C10.9219 11.7528 11.0372 11.6848 11.4403 11.377C11.4981 11.3328 11.5575 11.2871 11.6196 11.2414C12.036 10.9317 12.3649 10.7125 12.8016 10.7125H12.804C13.1841 10.7125 13.5094 10.8774 14.0485 11.1492C14.7516 11.5039 16.3575 12.4614 17.0618 13.1719C17.4044 13.5172 17.5954 13.7375 17.6887 13.9848C17.8294 14.3571 17.6969 14.6489 17.6106 14.8442C17.5962 14.8766 17.5801 14.9121 17.5633 14.9516C17.3989 15.3413 17.199 15.715 16.9661 16.068C16.5508 16.6891 16.1301 17.17 15.4278 17.4969C15.0671 17.6675 14.6724 17.7539 14.2735 17.7496Z" fill="#1E9C60"/>
</svg>
