<svg width="60" height="60" viewBox="0 0 60 60" fill="none" xmlns="http://www.w3.org/2000/svg">
<circle cx="30" cy="30" r="30" fill="#E32525"/>
<g clip-path="url(#clip0_1551_429)">
<path d="M41.6848 27.5072C38.6498 26.0384 34.4434 25.1293 29.7984 25.1293C25.1534 25.1293 20.947 26.0384 17.9119 27.5072C17.5002 27.7072 17.238 28.1206 17.2363 28.5794L17.2363 31.6952V32.4212C17.2363 33.0766 17.7691 33.6093 18.4245 33.6093L23.246 33.6076C23.9014 33.6076 24.4341 33.0749 24.4341 32.4195L24.4341 31.112C24.4341 30.4331 24.9416 29.8583 25.6172 29.7743C26.9532 29.6079 28.3548 29.5205 29.7967 29.5206C31.2386 29.5205 32.6402 29.6079 33.9762 29.7743C34.6518 29.8583 35.1576 30.4314 35.1593 31.112L35.1593 32.4195C35.1593 33.0749 35.692 33.6076 36.3474 33.6076L41.1706 33.6076C41.826 33.6076 42.3587 33.0749 42.3587 32.4195L42.3587 31.6935L42.3587 28.5778C42.3587 28.1206 42.0966 27.7072 41.6848 27.5072Z" fill="white"/>
</g>
<defs>
<clipPath id="clip0_1551_429">
<rect width="21.1765" height="21.1765" fill="white" transform="translate(44.7715 30.5) rotate(135)"/>
</clipPath>
</defs>
</svg>
