<svg width="31" height="31" viewBox="0 0 31 31" fill="none" xmlns="http://www.w3.org/2000/svg">
<path d="M24.7284 30.8128C23.394 30.8128 21.5196 30.3302 18.7128 28.7621C15.2996 26.848 12.6595 25.0809 9.26482 21.6951C5.99177 18.4241 4.399 16.3063 2.1698 12.2499C-0.348559 7.66978 0.0807382 5.269 0.560621 4.24292C1.13211 3.01655 1.97566 2.28306 3.06599 1.55503C3.68529 1.14927 4.34067 0.801448 5.0238 0.515967C5.09216 0.486573 5.15574 0.458545 5.21248 0.433252C5.55086 0.280811 6.06355 0.05044 6.71296 0.296534C7.14636 0.459229 7.53328 0.792139 8.13894 1.39028C9.38103 2.61528 11.0784 5.34351 11.7046 6.68335C12.125 7.58638 12.4032 8.18247 12.4039 8.85103C12.4039 9.63374 12.0101 10.2374 11.5323 10.8888C11.4427 11.0112 11.3539 11.1281 11.2677 11.2416C10.7475 11.9251 10.6334 12.1227 10.7086 12.4754C10.861 13.1843 11.9978 15.2946 13.8661 17.1587C15.7344 19.0229 17.7838 20.0879 18.4954 20.2397C18.8632 20.3183 19.0648 20.1994 19.7703 19.6607C19.8715 19.5834 19.9754 19.5035 20.0841 19.4235C20.8128 18.8814 21.3884 18.4979 22.1526 18.4979H22.1567C22.8218 18.4979 23.3913 18.7864 24.3346 19.2622C25.5651 19.8829 28.3754 21.5584 29.6079 22.8018C30.2074 23.4061 30.5417 23.7917 30.7051 24.2244C30.9511 24.8758 30.7194 25.3865 30.5683 25.7283C30.543 25.785 30.515 25.8472 30.4856 25.9163C30.1979 26.5982 29.848 27.2522 29.4404 27.87C28.7137 28.9569 27.9775 29.7984 26.7484 30.3706C26.1173 30.6691 25.4265 30.8203 24.7284 30.8128Z" fill="white"/>
</svg>
