<svg width="25" height="23" viewBox="0 0 25 23" fill="none" xmlns="http://www.w3.org/2000/svg">
<path d="M17.3479 14.2792C18.8108 14.2792 20.0007 13.0891 20.0007 11.6264V3.59541C20.0007 2.13262 18.8108 0.942383 17.3479 0.942383H2.65236C1.18981 0.942383 0 2.13262 0 3.59541V11.6264C0 13.0891 1.18981 14.2792 2.65236 14.2792H4.58274V17.0559C4.58274 17.3936 4.78611 17.6979 5.09798 17.8271C5.20135 17.8698 5.30976 17.8905 5.41717 17.8905C5.63434 17.8905 5.8479 17.8058 6.00758 17.6461L9.37382 14.2792H17.3479Z" fill="white"/>
<path d="M22.6779 7.8877H21.3358V11.6266C21.3358 13.8257 19.5468 15.6146 17.3478 15.6146H9.92681L8.36646 17.1754C8.5545 18.2686 9.50846 19.1032 10.6544 19.1032H17.1159L19.8255 21.8133C19.9851 21.973 20.1988 22.0578 20.4159 22.0578C20.5233 22.0578 20.6318 22.0369 20.7351 21.9942C21.047 21.865 21.2503 21.5608 21.2503 21.2231V19.1031H22.678C23.9584 19.1031 24.9999 18.0612 24.9999 16.7806V10.2098C24.9999 8.92945 23.9583 7.8877 22.6779 7.8877Z" fill="white"/>
</svg>
