<svg width="24" height="24" viewBox="0 0 24 24" fill="none" xmlns="http://www.w3.org/2000/svg">
<path d="M16.8 6.2002H2.372C1.064 6.2002 0 7.2642 0 8.5718V17.0282C0 18.3362 1.064 19.4002 2.372 19.4002H4.8V23.4002C4.8 23.5654 4.9016 23.7138 5.056 23.7734C5.1028 23.7914 5.1516 23.8002 5.2 23.8002C5.3104 23.8002 5.4188 23.7542 5.496 23.6694L9.3768 19.4002H16.8C18.108 19.4002 19.172 18.3362 19.172 17.0286V8.5722C19.172 7.2642 18.108 6.2002 16.8 6.2002Z" fill="white"/>
<path d="M21.6288 0.228195L7.97198 0.200195C6.66398 0.200195 5.59998 1.2642 5.59998 2.5722V5.021C5.59998 5.1274 5.64198 5.229 5.71718 5.30419C5.79238 5.37899 5.89398 5.421 5.99998 5.421C5.99998 5.421 6.00038 5.421 6.00078 5.421L16.028 5.4002C19.6084 5.4002 20 6.2086 20 8.5722V17.0286C20 17.065 19.996 17.101 19.9944 17.137L20.504 17.6974C20.5812 17.7822 20.6892 17.8282 20.8 17.8282C20.8484 17.8282 20.8972 17.8194 20.9444 17.8014C21.0984 17.7418 21.2 17.5934 21.2 17.4282V13.4282H21.628C22.936 13.4282 24 12.3642 24 11.0566V2.6002C24 1.2922 22.936 0.228195 21.6288 0.228195Z" fill="white"/>
</svg>
