<svg width="30" height="30" viewBox="0 0 30 30" fill="none" xmlns="http://www.w3.org/2000/svg">
<path fill-rule="evenodd" clip-rule="evenodd" d="M15 27.5C21.9036 27.5 27.5 21.9036 27.5 15C27.5 8.09644 21.9036 2.5 15 2.5C8.09644 2.5 2.5 8.09644 2.5 15C2.5 21.9036 8.09644 27.5 15 27.5ZM21.7134 11.0443C21.9451 10.7884 21.9253 10.3931 21.6693 10.1616C21.4134 9.92994 21.0181 9.94969 20.7866 10.2057L13.3006 18.4797L9.18156 14.5479C8.93188 14.3096 8.53625 14.3187 8.29787 14.5684C8.05956 14.8181 8.06875 15.2137 8.31844 15.4521L12.9018 19.8271L13.3661 20.2703L13.7968 19.7943L21.7134 11.0443Z" fill="white"/>
</svg>
