<svg width="147" height="60" viewBox="0 0 147 60" fill="none" xmlns="http://www.w3.org/2000/svg">
<rect width="147" height="60" rx="10" fill="#32A6B3"/>
<path d="M51.1241 29.664C51.0174 31.0613 50.5161 32.1813 49.6201 33.024C48.7347 33.856 47.5827 34.272 46.1641 34.272C44.5534 34.272 43.2627 33.728 42.2921 32.64C41.3214 31.552 40.8361 30.1067 40.8361 28.304C40.8361 27.216 41.0441 26.2293 41.4601 25.344C41.8761 24.448 42.5001 23.728 43.3321 23.184C44.1641 22.6293 45.1401 22.352 46.2601 22.352C47.4654 22.352 48.5161 22.688 49.4121 23.36C50.3081 24.0213 50.8467 24.9813 51.0281 26.24H49.0441C48.9054 25.5573 48.5854 25.024 48.0841 24.64C47.5827 24.2453 46.9641 24.048 46.2281 24.048C45.4707 24.048 44.8254 24.2613 44.2921 24.688C43.7694 25.1147 43.3961 25.6427 43.1721 26.272C42.9587 26.8907 42.8521 27.568 42.8521 28.304C42.8521 28.8587 42.9161 29.3813 43.0441 29.872C43.1721 30.3627 43.3641 30.816 43.6201 31.232C43.8761 31.6373 44.2227 31.9627 44.6601 32.208C45.1081 32.4533 45.6254 32.576 46.2121 32.576C47.9081 32.576 48.8787 31.6053 49.1241 29.664H51.1241ZM56.4949 25.504C57.7536 25.504 58.7563 25.8987 59.5029 26.688C60.2496 27.4773 60.6229 28.5387 60.6229 29.872C60.6229 31.216 60.2496 32.2827 59.5029 33.072C58.7669 33.8613 57.7643 34.256 56.4949 34.256C55.2043 34.256 54.1803 33.8613 53.4229 33.072C52.6656 32.2827 52.2869 31.216 52.2869 29.872C52.2869 28.5387 52.6656 27.4773 53.4229 26.688C54.1909 25.8987 55.2149 25.504 56.4949 25.504ZM58.1589 27.728C57.7536 27.2053 57.1883 26.944 56.4629 26.944C55.7376 26.944 55.1669 27.2053 54.7509 27.728C54.3349 28.2507 54.1269 28.9653 54.1269 29.872C54.1269 30.8 54.3349 31.5253 54.7509 32.048C55.1669 32.5707 55.7429 32.832 56.4789 32.832C57.1936 32.832 57.7536 32.5707 58.1589 32.048C58.5749 31.5147 58.7829 30.784 58.7829 29.856C58.7829 28.9493 58.5749 28.24 58.1589 27.728ZM63.8993 25.744V26.96C64.5606 26 65.4726 25.52 66.6353 25.52C67.574 25.52 68.2726 25.776 68.7313 26.288C69.2006 26.8 69.4353 27.536 69.4353 28.496V34H67.6113V29.2C67.6113 28.8693 67.5953 28.5973 67.5633 28.384C67.5313 28.16 67.462 27.936 67.3553 27.712C67.2593 27.488 67.0993 27.3227 66.8753 27.216C66.6513 27.0987 66.3633 27.04 66.0113 27.04C64.6673 27.04 63.9953 27.8773 63.9953 29.552V34H62.1713V25.744H63.8993ZM75.3748 25.744V27.072H73.7108V31.424C73.7108 31.68 73.7161 31.8613 73.7268 31.968C73.7375 32.064 73.7695 32.176 73.8228 32.304C73.8761 32.4213 73.9668 32.5013 74.0948 32.544C74.2335 32.5867 74.4201 32.608 74.6548 32.608C74.9535 32.608 75.1935 32.5973 75.3748 32.576V34.016C75.0121 34.0587 74.6015 34.08 74.1428 34.08C73.8228 34.08 73.5401 34.0533 73.2948 34C73.0601 33.9573 72.8628 33.904 72.7028 33.84C72.5428 33.776 72.4095 33.6693 72.3028 33.52C72.1961 33.36 72.1108 33.232 72.0468 33.136C71.9935 33.0293 71.9508 32.848 71.9188 32.592C71.8975 32.336 71.8868 32.144 71.8868 32.016C71.8868 31.8773 71.8868 31.6427 71.8868 31.312C71.8868 31.2693 71.8868 31.2373 71.8868 31.216C71.8868 31.184 71.8868 31.152 71.8868 31.12C71.8868 31.0773 71.8868 31.04 71.8868 31.008V27.072H70.5108V25.744H71.8868V23.264H73.7108V25.744H75.3748ZM78.5429 22.56V24.352H76.7189V22.56H78.5429ZM78.5429 25.744V34H76.7189V25.744H78.5429ZM82.2743 25.744V26.96C82.9356 26 83.8476 25.52 85.0103 25.52C85.949 25.52 86.6476 25.776 87.1063 26.288C87.5756 26.8 87.8103 27.536 87.8103 28.496V34H85.9863V29.2C85.9863 28.8693 85.9703 28.5973 85.9383 28.384C85.9063 28.16 85.837 27.936 85.7303 27.712C85.6343 27.488 85.4743 27.3227 85.2503 27.216C85.0263 27.0987 84.7383 27.04 84.3863 27.04C83.0423 27.04 82.3703 27.8773 82.3703 29.552V34H80.5463V25.744H82.2743ZM96.9658 25.744V34H95.2538V32.768C94.5605 33.7387 93.6538 34.224 92.5338 34.224C91.6271 34.224 90.9285 33.968 90.4378 33.456C89.9578 32.9333 89.7178 32.1867 89.7178 31.216V25.744H91.5418V30.464C91.5418 30.752 91.5471 30.9867 91.5578 31.168C91.5685 31.3387 91.6005 31.536 91.6538 31.76C91.7178 31.9733 91.8031 32.1387 91.9098 32.256C92.0271 32.3733 92.1871 32.4747 92.3898 32.56C92.6031 32.6453 92.8591 32.688 93.1578 32.688C93.8405 32.688 94.3418 32.448 94.6618 31.968C94.9818 31.4773 95.1418 30.8587 95.1418 30.112V25.744H96.9658ZM106.297 31.424C106.095 32.32 105.652 33.0187 104.969 33.52C104.297 34.0213 103.492 34.272 102.553 34.272C101.305 34.272 100.313 33.872 99.5773 33.072C98.852 32.2613 98.4893 31.2267 98.4893 29.968C98.4893 28.6773 98.8626 27.6107 99.6093 26.768C100.367 25.9253 101.327 25.504 102.489 25.504C103.695 25.504 104.649 25.92 105.353 26.752C106.057 27.5733 106.409 28.6987 106.409 30.128V30.32H100.313C100.335 31.152 100.543 31.7973 100.937 32.256C101.332 32.704 101.881 32.928 102.585 32.928C103.087 32.928 103.492 32.8107 103.801 32.576C104.121 32.3307 104.372 31.9467 104.553 31.424H106.297ZM104.585 29.104C104.532 28.4107 104.313 27.8667 103.929 27.472C103.556 27.0667 103.071 26.864 102.473 26.864C101.876 26.864 101.391 27.056 101.017 27.44C100.655 27.824 100.431 28.3787 100.345 29.104H104.585Z" fill="white"/>
</svg>
