<svg width="32" height="31" viewBox="0 0 32 31" fill="none" xmlns="http://www.w3.org/2000/svg">
<line x1="3.83646" y1="1.45197" x2="22.8365" y2="30.452" stroke="white" stroke-width="2"/>
<path fill-rule="evenodd" clip-rule="evenodd" d="M19.2252 6.33555C15.2828 5.92135 11.3098 5.89053 7.3617 6.24355L4.72538 6.47927C2.54681 6.67405 0.786563 8.33838 0.470163 10.5026C-0.156721 14.7905 -0.156721 19.1468 0.470163 23.4347C0.786563 25.5988 2.54681 27.2632 4.72538 27.458L7.3617 27.6937C11.3098 28.0467 15.2828 28.016 19.2252 27.6017L20.238 27.4953C22.3115 27.2775 23.9892 25.734 24.393 23.708L29.4712 26.4058C29.8415 26.6025 30.2857 26.6005 30.6542 26.4005C31.0227 26.2003 31.2662 25.8288 31.3028 25.4112L31.3443 24.938C31.8092 19.6353 31.8092 14.302 31.3443 8.99922L31.3028 8.52613C31.2662 8.10845 31.0227 7.73693 30.6542 7.53683C30.2857 7.33673 29.8415 7.3347 29.4712 7.53143L24.393 10.2294C23.9892 8.20328 22.3115 6.65983 20.238 6.44197L19.2252 6.33555ZM7.58433 8.73362C11.3714 8.395 15.1825 8.42455 18.9638 8.82187L19.9767 8.92828C20.996 9.03538 21.813 9.81995 21.9613 10.8341C22.556 14.9022 22.556 19.0352 21.9613 23.1032C21.813 24.1173 20.996 24.9018 19.9767 25.009L18.9638 25.1153C15.1825 25.5127 11.3714 25.5423 7.58433 25.2037L4.94803 24.968C3.92195 24.8762 3.09288 24.0923 2.94386 23.073C2.35205 19.025 2.35205 14.9123 2.94386 10.8643C3.09288 9.84495 3.92195 9.06107 4.94803 8.96933L7.58433 8.73362ZM24.7213 12.8858C24.9693 15.602 24.9693 18.3352 24.7213 21.0515L28.9663 23.3067C29.2685 19.0867 29.2685 14.8505 28.9663 10.6305L24.7213 12.8858Z" fill="white"/>
</svg>
