<svg width="40" height="40" viewBox="0 0 40 40" fill="none" xmlns="http://www.w3.org/2000/svg">
<path d="M27.5 20.834C27.5 20.3395 27.6466 19.8562 27.9213 19.4451C28.196 19.0339 28.5865 18.7135 29.0433 18.5243C29.5001 18.3351 30.0028 18.2856 30.4877 18.382C30.9727 18.4785 31.4181 18.7166 31.7678 19.0662C32.1174 19.4158 32.3555 19.8613 32.452 20.3463C32.5484 20.8312 32.4989 21.3339 32.3097 21.7907C32.1205 22.2475 31.8 22.638 31.3889 22.9127C30.9778 23.1874 30.4945 23.334 30 23.334C29.337 23.334 28.7011 23.0706 28.2322 22.6018C27.7634 22.1329 27.5 21.497 27.5 20.834ZM17.5 20.834C17.5 20.3395 17.6466 19.8562 17.9213 19.4451C18.196 19.0339 18.5865 18.7135 19.0433 18.5243C19.5001 18.3351 20.0028 18.2856 20.4877 18.382C20.9727 18.4785 21.4181 18.7166 21.7678 19.0662C22.1174 19.4158 22.3555 19.8613 22.452 20.3463C22.5484 20.8312 22.4989 21.3339 22.3097 21.7907C22.1205 22.2475 21.8 22.638 21.3889 22.9127C20.9778 23.1874 20.4945 23.334 20 23.334C19.337 23.334 18.7011 23.0706 18.2322 22.6018C17.7634 22.1329 17.5 21.497 17.5 20.834ZM7.5 20.834C7.5 20.3395 7.64662 19.8562 7.92133 19.4451C8.19603 19.0339 8.58648 18.7135 9.04329 18.5243C9.50011 18.3351 10.0028 18.2856 10.4877 18.382C10.9727 18.4785 11.4181 18.7166 11.7678 19.0662C12.1174 19.4158 12.3555 19.8613 12.452 20.3463C12.5484 20.8312 12.4989 21.3339 12.3097 21.7907C12.1205 22.2475 11.8 22.638 11.3889 22.9127C10.9778 23.1874 10.4945 23.334 10 23.334C9.33696 23.334 8.70107 23.0706 8.23223 22.6018C7.76339 22.1329 7.5 21.497 7.5 20.834V20.834Z" fill="white"/>
</svg>
