<svg width="30" height="30" viewBox="0 0 30 30" fill="none" xmlns="http://www.w3.org/2000/svg">
<path d="M15 0C6.71571 0 0 6.67955 0 14.9195C0 18.6345 1.36564 22.0322 3.62431 24.6438C2.94593 26.5833 1.69181 28.2547 0.0651745 29.4553C1.0986 29.8065 2.20559 30 3.35873 30C5.33095 30 7.17183 29.4419 8.73144 28.4766C10.639 29.3507 12.7621 29.839 15 29.839C23.2843 29.839 30 23.1593 30 14.9195C30.0001 6.67955 23.2843 0 15 0Z" fill="white"/>
<path d="M12.7469 23.2956H16.2702C16.2702 23.2956 16.2702 18.4581 16.2702 14.5344H18.8854L19.2064 11.0297H16.4063V9.62841C16.4063 8.94552 16.8638 8.78695 17.1852 8.78695C17.5069 8.78695 19.1617 8.78695 19.1617 8.78695V5.78416L16.4401 5.77319C13.4192 5.77319 12.7324 8.01246 12.7324 9.44617V11.0297H10.9854V14.5344H12.747C12.7469 18.5054 12.7469 23.2956 12.7469 23.2956Z" fill="#0B0B45"/>
</svg>
