<svg width="30" height="30" viewBox="0 0 30 30" fill="none" xmlns="http://www.w3.org/2000/svg">
<path d="M6.58257 12.2057C7.7483 8.67329 11.0679 6.13636 14.9998 6.13636C17.1135 6.13636 19.0225 6.88636 20.5225 8.11364L24.8862 3.75C22.2271 1.43182 18.818 0 14.9998 0C9.0874 0 3.997 3.37287 1.5498 8.31253L6.58257 12.2057Z" fill="white"/>
<path d="M20.051 22.5157C18.6887 23.3954 16.9577 23.8636 15 23.8636C11.0832 23.8636 7.77395 21.3461 6.59627 17.8348L1.54688 21.6687C3.99103 26.617 9.0813 30 15 30C18.6661 30 22.1692 28.6967 24.7928 26.2495L20.051 22.5157Z" fill="white"/>
<path d="M24.7927 26.2495C27.5365 23.6901 29.3182 19.8796 29.3182 15C29.3182 14.1136 29.1818 13.1591 28.9773 12.2727H15V18.0682H23.0455C22.6485 20.017 21.5829 21.5265 20.0509 22.5157L24.7927 26.2495Z" fill="white"/>
<path d="M6.59623 17.8348C6.29791 16.9454 6.13636 15.9922 6.13636 15C6.13636 14.0228 6.29305 13.0835 6.58275 12.2057L1.54999 8.31253C0.545734 10.3255 0 12.5942 0 15C0 17.3994 0.555976 19.6627 1.54683 21.6687L6.59623 17.8348Z" fill="white"/>
</svg>
