<svg width="375" height="375" viewBox="0 0 375 375" fill="none" xmlns="http://www.w3.org/2000/svg">
<circle cx="187.5" cy="187.5" r="187" stroke="#777794"/>
<circle cx="187.5" cy="187.5" r="142" stroke="#777794"/>
<circle cx="187.5" cy="187.5" r="92" stroke="#777794"/>
<path d="M44.4506 131H43.3938C43.3313 130.696 43.2219 130.429 43.0657 130.199C42.9123 129.969 42.7248 129.776 42.5032 129.619C42.2844 129.46 42.0415 129.341 41.7745 129.261C41.5075 129.182 41.229 129.142 40.9393 129.142C40.4109 129.142 39.9322 129.276 39.5032 129.543C39.0771 129.81 38.7376 130.203 38.4847 130.723C38.2347 131.243 38.1097 131.881 38.1097 132.636C38.1097 133.392 38.2347 134.03 38.4847 134.55C38.7376 135.07 39.0771 135.463 39.5032 135.73C39.9322 135.997 40.4109 136.131 40.9393 136.131C41.229 136.131 41.5075 136.091 41.7745 136.011C42.0415 135.932 42.2844 135.814 42.5032 135.658C42.7248 135.499 42.9123 135.304 43.0657 135.074C43.2219 134.841 43.3313 134.574 43.3938 134.273H44.4506C44.3711 134.719 44.2262 135.118 44.016 135.47C43.8058 135.822 43.5444 136.122 43.2319 136.369C42.9194 136.614 42.5685 136.8 42.1793 136.928C41.793 137.055 41.3796 137.119 40.9393 137.119C40.195 137.119 39.533 136.938 38.9535 136.574C38.3739 136.21 37.918 135.693 37.5856 135.023C37.2532 134.352 37.087 133.557 37.087 132.636C37.087 131.716 37.2532 130.92 37.5856 130.25C37.918 129.58 38.3739 129.062 38.9535 128.699C39.533 128.335 40.195 128.153 40.9393 128.153C41.3796 128.153 41.793 128.217 42.1793 128.345C42.5685 128.473 42.9194 128.661 43.2319 128.908C43.5444 129.152 43.8058 129.45 44.016 129.803C44.2262 130.152 44.3711 130.551 44.4506 131ZM46.022 137V130.455H46.9936V131.443H47.0618C47.1811 131.119 47.397 130.857 47.7095 130.655C48.022 130.453 48.3743 130.352 48.7663 130.352C48.8402 130.352 48.9325 130.354 49.0433 130.357C49.1541 130.359 49.2379 130.364 49.2947 130.369V131.392C49.2607 131.384 49.1825 131.371 49.0604 131.354C48.9411 131.334 48.8146 131.324 48.6811 131.324C48.3629 131.324 48.0788 131.391 47.8288 131.524C47.5817 131.655 47.3857 131.837 47.2408 132.07C47.0987 132.3 47.0277 132.562 47.0277 132.858V137H46.022ZM51.3338 139.455C51.1634 139.455 51.0114 139.44 50.8778 139.412C50.7443 139.386 50.652 139.361 50.6009 139.335L50.8565 138.449C51.1009 138.511 51.3168 138.534 51.5043 138.517C51.6918 138.5 51.858 138.416 52.0028 138.266C52.1506 138.118 52.2855 137.878 52.4077 137.545L52.5952 137.034L50.1747 130.455H51.2656L53.0724 135.67H53.1406L54.9474 130.455H56.0384L53.2599 137.955C53.1349 138.293 52.9801 138.572 52.7955 138.794C52.6108 139.018 52.3963 139.185 52.152 139.293C51.9105 139.401 51.6378 139.455 51.3338 139.455ZM57.3658 139.455V130.455H58.3374V131.494H58.4567C58.5305 131.381 58.6328 131.236 58.7635 131.06C58.897 130.881 59.0874 130.722 59.3345 130.582C59.5845 130.44 59.9226 130.369 60.3487 130.369C60.8999 130.369 61.3857 130.507 61.8061 130.783C62.2266 131.058 62.5547 131.449 62.7905 131.955C63.0263 132.46 63.1442 133.057 63.1442 133.744C63.1442 134.438 63.0263 135.038 62.7905 135.547C62.5547 136.053 62.228 136.445 61.8104 136.723C61.3928 136.999 60.9112 137.136 60.3658 137.136C59.9453 137.136 59.6087 137.067 59.3558 136.928C59.103 136.786 58.9084 136.625 58.772 136.446C58.6357 136.264 58.5305 136.114 58.4567 135.994H58.3714V139.455H57.3658ZM58.3544 133.727C58.3544 134.222 58.4268 134.658 58.5717 135.036C58.7166 135.411 58.9283 135.705 59.2067 135.918C59.4851 136.128 59.826 136.233 60.2294 136.233C60.6499 136.233 61.0007 136.122 61.282 135.901C61.5661 135.676 61.7791 135.375 61.9212 134.997C62.0661 134.616 62.1385 134.193 62.1385 133.727C62.1385 133.267 62.0675 132.852 61.9254 132.483C61.7862 132.111 61.5746 131.817 61.2905 131.601C61.0092 131.382 60.6555 131.273 60.2294 131.273C59.8203 131.273 59.4766 131.376 59.1982 131.584C58.9197 131.788 58.7095 132.075 58.5675 132.445C58.4254 132.811 58.3544 133.239 58.3544 133.727ZM67.5249 130.455V131.307H64.1328V130.455H67.5249ZM65.1214 128.886H66.1271V135.125C66.1271 135.409 66.1683 135.622 66.2507 135.764C66.3359 135.903 66.4439 135.997 66.5746 136.045C66.7081 136.091 66.8487 136.114 66.9964 136.114C67.1072 136.114 67.1982 136.108 67.2692 136.097C67.3402 136.082 67.397 136.071 67.4396 136.062L67.6442 136.966C67.576 136.991 67.4808 137.017 67.3587 137.043C67.2365 137.071 67.0817 137.085 66.8942 137.085C66.6101 137.085 66.3317 137.024 66.0589 136.902C65.7891 136.78 65.5646 136.594 65.3857 136.344C65.2095 136.094 65.1214 135.778 65.1214 135.398V128.886ZM71.6264 137.136C71.0355 137.136 70.517 136.996 70.071 136.714C69.6278 136.433 69.2812 136.04 69.0312 135.534C68.7841 135.028 68.6605 134.437 68.6605 133.761C68.6605 133.08 68.7841 132.484 69.0312 131.976C69.2812 131.467 69.6278 131.072 70.071 130.791C70.517 130.51 71.0355 130.369 71.6264 130.369C72.2173 130.369 72.7344 130.51 73.1776 130.791C73.6236 131.072 73.9702 131.467 74.2173 131.976C74.4673 132.484 74.5923 133.08 74.5923 133.761C74.5923 134.437 74.4673 135.028 74.2173 135.534C73.9702 136.04 73.6236 136.433 73.1776 136.714C72.7344 136.996 72.2173 137.136 71.6264 137.136ZM71.6264 136.233C72.0753 136.233 72.4446 136.118 72.7344 135.888C73.0241 135.658 73.2386 135.355 73.3778 134.98C73.517 134.605 73.5866 134.199 73.5866 133.761C73.5866 133.324 73.517 132.916 73.3778 132.538C73.2386 132.161 73.0241 131.855 72.7344 131.622C72.4446 131.389 72.0753 131.273 71.6264 131.273C71.1776 131.273 70.8082 131.389 70.5185 131.622C70.2287 131.855 70.0142 132.161 69.875 132.538C69.7358 132.916 69.6662 133.324 69.6662 133.761C69.6662 134.199 69.7358 134.605 69.875 134.98C70.0142 135.355 70.2287 135.658 70.5185 135.888C70.8082 136.118 71.1776 136.233 71.6264 136.233ZM76.2638 137V128.273H81.4968V129.21H77.3207V132.159H81.1048V133.097H77.3207V137H76.2638ZM85.0966 137.153C84.6818 137.153 84.3054 137.075 83.9673 136.919C83.6293 136.76 83.3608 136.531 83.1619 136.233C82.9631 135.932 82.8636 135.568 82.8636 135.142C82.8636 134.767 82.9375 134.463 83.0852 134.23C83.233 133.994 83.4304 133.81 83.6776 133.676C83.9247 133.543 84.1974 133.443 84.4957 133.378C84.7969 133.31 85.0994 133.256 85.4034 133.216C85.8011 133.165 86.1236 133.126 86.3707 133.101C86.6207 133.072 86.8026 133.026 86.9162 132.96C87.0327 132.895 87.0909 132.781 87.0909 132.619V132.585C87.0909 132.165 86.9759 131.838 86.7457 131.605C86.5185 131.372 86.1733 131.256 85.7102 131.256C85.2301 131.256 84.8537 131.361 84.581 131.571C84.3082 131.781 84.1165 132.006 84.0057 132.244L83.0511 131.903C83.2216 131.506 83.4489 131.196 83.733 130.974C84.0199 130.75 84.3324 130.594 84.6705 130.506C85.0114 130.415 85.3466 130.369 85.6761 130.369C85.8864 130.369 86.1278 130.395 86.4006 130.446C86.6761 130.494 86.9418 130.595 87.1974 130.749C87.456 130.902 87.6705 131.134 87.8409 131.443C88.0114 131.753 88.0966 132.168 88.0966 132.688V137H87.0909V136.114H87.0398C86.9716 136.256 86.858 136.408 86.6989 136.57C86.5398 136.732 86.3281 136.869 86.0639 136.983C85.7997 137.097 85.4773 137.153 85.0966 137.153ZM85.25 136.25C85.6477 136.25 85.983 136.172 86.2557 136.016C86.5313 135.859 86.7386 135.658 86.8778 135.411C87.0199 135.163 87.0909 134.903 87.0909 134.631V133.71C87.0483 133.761 86.9545 133.808 86.8097 133.851C86.6676 133.891 86.5028 133.926 86.3153 133.957C86.1307 133.986 85.9503 134.011 85.7741 134.034C85.6009 134.054 85.4602 134.071 85.3523 134.085C85.0909 134.119 84.8466 134.175 84.6193 134.251C84.3949 134.325 84.2131 134.437 84.0739 134.588C83.9375 134.736 83.8693 134.937 83.8693 135.193C83.8693 135.543 83.9986 135.807 84.2571 135.986C84.5185 136.162 84.8494 136.25 85.25 136.25ZM92.5913 137.136C91.9776 137.136 91.4492 136.991 91.006 136.702C90.5629 136.412 90.2219 136.013 89.9833 135.504C89.7447 134.996 89.6254 134.415 89.6254 133.761C89.6254 133.097 89.7475 132.51 89.9918 132.001C90.239 131.49 90.5827 131.091 91.0231 130.804C91.4663 130.514 91.9833 130.369 92.5742 130.369C93.0344 130.369 93.4492 130.455 93.8185 130.625C94.1879 130.795 94.4904 131.034 94.7262 131.341C94.962 131.648 95.1083 132.006 95.1651 132.415H94.1594C94.0827 132.116 93.9123 131.852 93.6481 131.622C93.3867 131.389 93.0344 131.273 92.5913 131.273C92.1992 131.273 91.8555 131.375 91.56 131.58C91.2674 131.781 91.0387 132.067 90.8739 132.436C90.712 132.803 90.631 133.233 90.631 133.727C90.631 134.233 90.7106 134.673 90.8697 135.048C91.0316 135.423 91.2589 135.714 91.5515 135.922C91.8469 136.129 92.1935 136.233 92.5913 136.233C92.8526 136.233 93.0898 136.188 93.3029 136.097C93.516 136.006 93.6964 135.875 93.8441 135.705C93.9918 135.534 94.0969 135.33 94.1594 135.091H95.1651C95.1083 135.477 94.9677 135.825 94.7433 136.135C94.5217 136.442 94.2276 136.686 93.8612 136.868C93.4975 137.047 93.0742 137.136 92.5913 137.136ZM99.4819 130.455V131.307H96.0898V130.455H99.4819ZM97.0785 128.886H98.0842V135.125C98.0842 135.409 98.1254 135.622 98.2077 135.764C98.293 135.903 98.4009 135.997 98.5316 136.045C98.6651 136.091 98.8058 136.114 98.9535 136.114C99.0643 136.114 99.1552 136.108 99.2262 136.097C99.2972 136.082 99.354 136.071 99.3967 136.062L99.6012 136.966C99.533 136.991 99.4379 137.017 99.3157 137.043C99.1935 137.071 99.0387 137.085 98.8512 137.085C98.5671 137.085 98.2887 137.024 98.016 136.902C97.7461 136.78 97.5217 136.594 97.3427 136.344C97.1665 136.094 97.0785 135.778 97.0785 135.398V128.886ZM103.583 137.136C102.993 137.136 102.474 136.996 102.028 136.714C101.585 136.433 101.238 136.04 100.988 135.534C100.741 135.028 100.618 134.437 100.618 133.761C100.618 133.08 100.741 132.484 100.988 131.976C101.238 131.467 101.585 131.072 102.028 130.791C102.474 130.51 102.993 130.369 103.583 130.369C104.174 130.369 104.691 130.51 105.135 130.791C105.581 131.072 105.927 131.467 106.174 131.976C106.424 132.484 106.549 133.08 106.549 133.761C106.549 134.437 106.424 135.028 106.174 135.534C105.927 136.04 105.581 136.433 105.135 136.714C104.691 136.996 104.174 137.136 103.583 137.136ZM103.583 136.233C104.032 136.233 104.402 136.118 104.691 135.888C104.981 135.658 105.196 135.355 105.335 134.98C105.474 134.605 105.544 134.199 105.544 133.761C105.544 133.324 105.474 132.916 105.335 132.538C105.196 132.161 104.981 131.855 104.691 131.622C104.402 131.389 104.032 131.273 103.583 131.273C103.135 131.273 102.765 131.389 102.475 131.622C102.186 131.855 101.971 132.161 101.832 132.538C101.693 132.916 101.623 133.324 101.623 133.761C101.623 134.199 101.693 134.605 101.832 134.98C101.971 135.355 102.186 135.658 102.475 135.888C102.765 136.118 103.135 136.233 103.583 136.233ZM108.085 137V130.455H109.056V131.443H109.124C109.244 131.119 109.46 130.857 109.772 130.655C110.085 130.453 110.437 130.352 110.829 130.352C110.903 130.352 110.995 130.354 111.106 130.357C111.217 130.359 111.3 130.364 111.357 130.369V131.392C111.323 131.384 111.245 131.371 111.123 131.354C111.004 131.334 110.877 131.324 110.744 131.324C110.425 131.324 110.141 131.391 109.891 131.524C109.644 131.655 109.448 131.837 109.303 132.07C109.161 132.3 109.09 132.562 109.09 132.858V137H108.085Z" fill="#FAFAFA"/>
<path d="M94.2207 264H91.5275V255.273H94.34C95.1866 255.273 95.911 255.447 96.5133 255.797C97.1156 256.143 97.5772 256.642 97.8983 257.293C98.2193 257.94 98.3798 258.716 98.3798 259.619C98.3798 260.528 98.2179 261.311 97.894 261.967C97.5701 262.621 97.0985 263.124 96.4792 263.476C95.8599 263.825 95.1071 264 94.2207 264ZM92.5843 263.062H94.1525C94.8741 263.062 95.4721 262.923 95.9466 262.645C96.421 262.366 96.7747 261.97 97.0076 261.456C97.2406 260.942 97.3571 260.33 97.3571 259.619C97.3571 258.915 97.242 258.308 97.0119 257.8C96.7818 257.288 96.438 256.896 95.9806 256.624C95.5233 256.348 94.9537 256.21 94.2718 256.21H92.5843V263.062ZM100.016 264V257.455H101.022V264H100.016ZM100.528 256.364C100.331 256.364 100.162 256.297 100.02 256.163C99.8812 256.03 99.8116 255.869 99.8116 255.682C99.8116 255.494 99.8812 255.334 100.02 255.2C100.162 255.067 100.331 255 100.528 255C100.724 255 100.891 255.067 101.03 255.2C101.172 255.334 101.243 255.494 101.243 255.682C101.243 255.869 101.172 256.03 101.03 256.163C100.891 256.297 100.724 256.364 100.528 256.364ZM105.335 264.136C104.79 264.136 104.308 263.999 103.891 263.723C103.473 263.445 103.146 263.053 102.911 262.547C102.675 262.038 102.557 261.438 102.557 260.744C102.557 260.057 102.675 259.46 102.911 258.955C103.146 258.449 103.475 258.058 103.895 257.783C104.316 257.507 104.801 257.369 105.352 257.369C105.779 257.369 106.115 257.44 106.362 257.582C106.612 257.722 106.803 257.881 106.933 258.06C107.067 258.236 107.171 258.381 107.244 258.494H107.33V255.273H108.335V264H107.364V262.994H107.244C107.171 263.114 107.066 263.264 106.929 263.446C106.793 263.625 106.598 263.786 106.345 263.928C106.093 264.067 105.756 264.136 105.335 264.136ZM105.472 263.233C105.875 263.233 106.216 263.128 106.494 262.918C106.773 262.705 106.985 262.411 107.129 262.036C107.274 261.658 107.347 261.222 107.347 260.727C107.347 260.239 107.276 259.811 107.134 259.445C106.992 259.075 106.781 258.788 106.503 258.584C106.225 258.376 105.881 258.273 105.472 258.273C105.046 258.273 104.691 258.382 104.406 258.601C104.125 258.817 103.914 259.111 103.771 259.483C103.632 259.852 103.563 260.267 103.563 260.727C103.563 261.193 103.634 261.616 103.776 261.997C103.921 262.375 104.134 262.676 104.415 262.901C104.699 263.122 105.051 263.233 105.472 263.233ZM112.789 264.136C112.243 264.136 111.762 263.999 111.344 263.723C110.926 263.445 110.6 263.053 110.364 262.547C110.128 262.038 110.01 261.438 110.01 260.744C110.01 260.057 110.128 259.46 110.364 258.955C110.6 258.449 110.928 258.058 111.348 257.783C111.769 257.507 112.254 257.369 112.806 257.369C113.232 257.369 113.568 257.44 113.816 257.582C114.066 257.722 114.256 257.881 114.387 258.06C114.52 258.236 114.624 258.381 114.698 258.494H114.783V255.273H115.789V264H114.817V262.994H114.698C114.624 263.114 114.519 263.264 114.382 263.446C114.246 263.625 114.051 263.786 113.798 263.928C113.546 264.067 113.209 264.136 112.789 264.136ZM112.925 263.233C113.328 263.233 113.669 263.128 113.948 262.918C114.226 262.705 114.438 262.411 114.583 262.036C114.727 261.658 114.8 261.222 114.8 260.727C114.8 260.239 114.729 259.811 114.587 259.445C114.445 259.075 114.235 258.788 113.956 258.584C113.678 258.376 113.334 258.273 112.925 258.273C112.499 258.273 112.144 258.382 111.86 258.601C111.578 258.817 111.367 259.111 111.225 259.483C111.085 259.852 111.016 260.267 111.016 260.727C111.016 261.193 111.087 261.616 111.229 261.997C111.374 262.375 111.587 262.676 111.868 262.901C112.152 263.122 112.504 263.233 112.925 263.233ZM118.418 266.455C118.247 266.455 118.095 266.44 117.962 266.412C117.828 266.386 117.736 266.361 117.685 266.335L117.941 265.449C118.185 265.511 118.401 265.534 118.588 265.517C118.776 265.5 118.942 265.416 119.087 265.266C119.235 265.118 119.369 264.878 119.492 264.545L119.679 264.034L117.259 257.455H118.35L120.156 262.67H120.225L122.031 257.455H123.122L120.344 264.955C120.219 265.293 120.064 265.572 119.879 265.794C119.695 266.018 119.48 266.185 119.236 266.293C118.994 266.401 118.722 266.455 118.418 266.455Z" fill="#FAFAFA"/>
<path d="M148.494 75.2727V84H147.438V75.2727H148.494ZM153.119 86.5909C152.633 86.5909 152.216 86.5284 151.866 86.4034C151.517 86.2812 151.226 86.1193 150.993 85.9176C150.763 85.7188 150.579 85.5057 150.443 85.2784L151.244 84.7159C151.335 84.8352 151.45 84.9716 151.589 85.125C151.729 85.2812 151.919 85.4162 152.16 85.5298C152.405 85.6463 152.724 85.7045 153.119 85.7045C153.648 85.7045 154.084 85.5767 154.427 85.321C154.771 85.0653 154.943 84.6648 154.943 84.1193V82.7898H154.858C154.784 82.9091 154.679 83.0568 154.542 83.233C154.409 83.4062 154.216 83.5611 153.963 83.6974C153.713 83.831 153.375 83.8977 152.949 83.8977C152.42 83.8977 151.946 83.7727 151.525 83.5227C151.108 83.2727 150.777 82.9091 150.532 82.4318C150.291 81.9545 150.17 81.375 150.17 80.6932C150.17 80.0227 150.288 79.4389 150.524 78.9418C150.76 78.4418 151.088 78.0554 151.508 77.7827C151.929 77.5071 152.415 77.3693 152.966 77.3693C153.392 77.3693 153.73 77.4403 153.98 77.5824C154.233 77.7216 154.426 77.8807 154.559 78.0597C154.696 78.2358 154.801 78.3807 154.875 78.4943H154.977V77.4545H155.949V84.1875C155.949 84.75 155.821 85.2074 155.565 85.5597C155.312 85.9148 154.971 86.1747 154.542 86.3395C154.116 86.5071 153.642 86.5909 153.119 86.5909ZM153.085 82.9943C153.488 82.9943 153.829 82.902 154.108 82.7173C154.386 82.5327 154.598 82.267 154.743 81.9205C154.888 81.5739 154.96 81.1591 154.96 80.6761C154.96 80.2045 154.889 79.7884 154.747 79.4276C154.605 79.0668 154.395 78.7841 154.116 78.5795C153.838 78.375 153.494 78.2727 153.085 78.2727C152.659 78.2727 152.304 78.3807 152.02 78.5966C151.738 78.8125 151.527 79.1023 151.385 79.4659C151.246 79.8295 151.176 80.233 151.176 80.6761C151.176 81.1307 151.247 81.5327 151.389 81.8821C151.534 82.2287 151.747 82.5014 152.028 82.7003C152.312 82.8963 152.665 82.9943 153.085 82.9943ZM159.273 84L157.278 77.4545H158.335L159.75 82.4659H159.818L161.216 77.4545H162.29L163.67 82.4489H163.738L165.153 77.4545H166.21L164.216 84H163.227L161.795 78.9716H161.693L160.261 84H159.273ZM170.061 84.1364C169.431 84.1364 168.887 83.9972 168.429 83.7188C167.975 83.4375 167.624 83.0455 167.377 82.5426C167.132 82.0369 167.01 81.4489 167.01 80.7784C167.01 80.108 167.132 79.517 167.377 79.0057C167.624 78.4915 167.968 78.0909 168.408 77.804C168.851 77.5142 169.368 77.3693 169.959 77.3693C170.3 77.3693 170.637 77.4261 170.969 77.5398C171.301 77.6534 171.604 77.8381 171.877 78.0938C172.149 78.3466 172.367 78.6818 172.529 79.0994C172.691 79.517 172.771 80.0312 172.771 80.642V81.0682H167.726V80.1989H171.749C171.749 79.8295 171.675 79.5 171.527 79.2102C171.382 78.9205 171.175 78.6918 170.905 78.5241C170.638 78.3565 170.323 78.2727 169.959 78.2727C169.558 78.2727 169.212 78.3722 168.919 78.571C168.629 78.767 168.406 79.0227 168.25 79.3381C168.094 79.6534 168.016 79.9915 168.016 80.3523V80.9318C168.016 81.4261 168.101 81.8452 168.271 82.1889C168.445 82.5298 168.685 82.7898 168.992 82.9688C169.298 83.1449 169.655 83.233 170.061 83.233C170.325 83.233 170.564 83.196 170.777 83.1222C170.993 83.0455 171.179 82.9318 171.335 82.7812C171.492 82.6278 171.612 82.4375 171.698 82.2102L172.669 82.483C172.567 82.8125 172.395 83.1023 172.154 83.3523C171.912 83.5994 171.614 83.7926 171.259 83.9318C170.904 84.0682 170.504 84.1364 170.061 84.1364ZM177.813 84V75.2727H180.762C181.446 75.2727 182.006 75.3963 182.441 75.6435C182.878 75.8878 183.202 76.2188 183.412 76.6364C183.622 77.054 183.727 77.5199 183.727 78.0341C183.727 78.5483 183.622 79.0156 183.412 79.4361C183.205 79.8565 182.884 80.1918 182.449 80.4418C182.014 80.6889 181.458 80.8125 180.779 80.8125H178.665V79.875H180.744C181.213 79.875 181.59 79.794 181.874 79.6321C182.158 79.4702 182.364 79.2514 182.492 78.9759C182.622 78.6974 182.688 78.3835 182.688 78.0341C182.688 77.6847 182.622 77.3722 182.492 77.0966C182.364 76.821 182.156 76.6051 181.869 76.4489C181.583 76.2898 181.202 76.2102 180.727 76.2102H178.869V84H177.813ZM187.22 84.1534C186.805 84.1534 186.428 84.0753 186.09 83.919C185.752 83.7599 185.484 83.5312 185.285 83.233C185.086 82.9318 184.987 82.5682 184.987 82.142C184.987 81.767 185.061 81.4631 185.208 81.2301C185.356 80.9943 185.553 80.8097 185.801 80.6761C186.048 80.5426 186.32 80.4432 186.619 80.3778C186.92 80.3097 187.222 80.2557 187.526 80.2159C187.924 80.1648 188.247 80.1264 188.494 80.1009C188.744 80.0724 188.926 80.0256 189.039 79.9602C189.156 79.8949 189.214 79.7812 189.214 79.6193V79.5852C189.214 79.1648 189.099 78.8381 188.869 78.6051C188.642 78.3722 188.296 78.2557 187.833 78.2557C187.353 78.2557 186.977 78.3608 186.704 78.571C186.431 78.7812 186.24 79.0057 186.129 79.2443L185.174 78.9034C185.345 78.5057 185.572 78.196 185.856 77.9744C186.143 77.75 186.455 77.5937 186.794 77.5057C187.134 77.4148 187.47 77.3693 187.799 77.3693C188.009 77.3693 188.251 77.3949 188.524 77.446C188.799 77.4943 189.065 77.5952 189.32 77.7486C189.579 77.902 189.794 78.1335 189.964 78.4432C190.134 78.7528 190.22 79.1676 190.22 79.6875V84H189.214V83.1136H189.163C189.095 83.2557 188.981 83.4077 188.822 83.5696C188.663 83.7315 188.451 83.8693 188.187 83.983C187.923 84.0966 187.6 84.1534 187.22 84.1534ZM187.373 83.25C187.771 83.25 188.106 83.1719 188.379 83.0156C188.654 82.8594 188.862 82.6577 189.001 82.4105C189.143 82.1634 189.214 81.9034 189.214 81.6307V80.7102C189.171 80.7614 189.078 80.8082 188.933 80.8509C188.791 80.8906 188.626 80.9261 188.438 80.9574C188.254 80.9858 188.073 81.0114 187.897 81.0341C187.724 81.054 187.583 81.071 187.475 81.0852C187.214 81.1193 186.97 81.1747 186.742 81.2514C186.518 81.3253 186.336 81.4375 186.197 81.5881C186.061 81.7358 185.992 81.9375 185.992 82.1932C185.992 82.5426 186.122 82.8068 186.38 82.9858C186.642 83.1619 186.972 83.25 187.373 83.25ZM196.18 81.3239V77.4545H197.186V84H196.18V82.892H196.112C195.959 83.2244 195.72 83.5071 195.396 83.7401C195.072 83.9702 194.663 84.0852 194.169 84.0852C193.76 84.0852 193.396 83.9957 193.078 83.8168C192.76 83.6349 192.51 83.3622 192.328 82.9986C192.146 82.6321 192.055 82.1705 192.055 81.6136V77.4545H193.061V81.5455C193.061 82.0227 193.194 82.4034 193.461 82.6875C193.731 82.9716 194.075 83.1136 194.493 83.1136C194.743 83.1136 194.997 83.0497 195.256 82.9219C195.517 82.794 195.736 82.598 195.912 82.3338C196.091 82.0696 196.18 81.733 196.18 81.3239ZM200.034 75.2727V84H199.028V75.2727H200.034ZM212.751 79.6364C212.751 80.5568 212.584 81.3523 212.252 82.0227C211.92 82.6932 211.464 83.2102 210.884 83.5739C210.305 83.9375 209.643 84.1193 208.898 84.1193C208.154 84.1193 207.492 83.9375 206.912 83.5739C206.333 83.2102 205.877 82.6932 205.545 82.0227C205.212 81.3523 205.046 80.5568 205.046 79.6364C205.046 78.7159 205.212 77.9205 205.545 77.25C205.877 76.5795 206.333 76.0625 206.912 75.6989C207.492 75.3352 208.154 75.1534 208.898 75.1534C209.643 75.1534 210.305 75.3352 210.884 75.6989C211.464 76.0625 211.92 76.5795 212.252 77.25C212.584 77.9205 212.751 78.7159 212.751 79.6364ZM211.728 79.6364C211.728 78.8807 211.601 78.2429 211.349 77.723C211.099 77.2031 210.759 76.8097 210.33 76.5426C209.904 76.2756 209.427 76.142 208.898 76.142C208.37 76.142 207.891 76.2756 207.462 76.5426C207.036 76.8097 206.697 77.2031 206.444 77.723C206.194 78.2429 206.069 78.8807 206.069 79.6364C206.069 80.392 206.194 81.0298 206.444 81.5497C206.697 82.0696 207.036 82.4631 207.462 82.7301C207.891 82.9972 208.37 83.1307 208.898 83.1307C209.427 83.1307 209.904 82.9972 210.33 82.7301C210.759 82.4631 211.099 82.0696 211.349 81.5497C211.601 81.0298 211.728 80.392 211.728 79.6364ZM216.863 84.1364C216.317 84.1364 215.836 83.9986 215.418 83.723C215.001 83.4446 214.674 83.0526 214.438 82.5469C214.202 82.0384 214.084 81.4375 214.084 80.7443C214.084 80.0568 214.202 79.4602 214.438 78.9545C214.674 78.4489 215.002 78.0582 215.422 77.7827C215.843 77.5071 216.329 77.3693 216.88 77.3693C217.306 77.3693 217.643 77.4403 217.89 77.5824C218.14 77.7216 218.33 77.8807 218.461 78.0597C218.594 78.2358 218.698 78.3807 218.772 78.4943H218.857V75.2727H219.863V84H218.891V82.9943H218.772C218.698 83.1136 218.593 83.2642 218.456 83.446C218.32 83.625 218.126 83.7855 217.873 83.9276C217.62 84.0668 217.283 84.1364 216.863 84.1364ZM216.999 83.233C217.403 83.233 217.743 83.1278 218.022 82.9176C218.3 82.7045 218.512 82.4105 218.657 82.0355C218.802 81.6577 218.874 81.2216 218.874 80.7273C218.874 80.2386 218.803 79.8111 218.661 79.4446C218.519 79.0753 218.309 78.7884 218.03 78.5838C217.752 78.3764 217.408 78.2727 216.999 78.2727C216.573 78.2727 216.218 78.3821 215.934 78.6009C215.653 78.8168 215.441 79.1108 215.299 79.483C215.16 79.8523 215.09 80.267 215.09 80.7273C215.09 81.1932 215.161 81.6165 215.303 81.9972C215.448 82.375 215.661 82.6761 215.942 82.9006C216.226 83.1222 216.579 83.233 216.999 83.233ZM221.844 84V77.4545H222.85V84H221.844ZM222.356 76.3636C222.16 76.3636 221.991 76.2969 221.849 76.1634C221.709 76.0298 221.64 75.8693 221.64 75.6818C221.64 75.4943 221.709 75.3338 221.849 75.2003C221.991 75.0668 222.16 75 222.356 75C222.552 75 222.719 75.0668 222.858 75.2003C223.001 75.3338 223.072 75.4943 223.072 75.6818C223.072 75.8693 223.001 76.0298 222.858 76.1634C222.719 76.2969 222.552 76.3636 222.356 76.3636ZM224.692 84V77.4545H225.698V84H224.692ZM225.203 76.3636C225.007 76.3636 224.838 76.2969 224.696 76.1634C224.557 76.0298 224.487 75.8693 224.487 75.6818C224.487 75.4943 224.557 75.3338 224.696 75.2003C224.838 75.0668 225.007 75 225.203 75C225.399 75 225.567 75.0668 225.706 75.2003C225.848 75.3338 225.919 75.4943 225.919 75.6818C225.919 75.8693 225.848 76.0298 225.706 76.1634C225.567 76.2969 225.399 76.3636 225.203 76.3636Z" fill="#FAFAFA"/>
<path d="M162.111 357.455C162.06 357.023 161.852 356.688 161.489 356.449C161.125 356.21 160.679 356.091 160.151 356.091C159.764 356.091 159.426 356.153 159.136 356.278C158.849 356.403 158.625 356.575 158.463 356.794C158.304 357.013 158.224 357.261 158.224 357.54C158.224 357.773 158.28 357.973 158.391 358.141C158.504 358.305 158.649 358.443 158.825 358.554C159.001 358.662 159.186 358.751 159.379 358.822C159.572 358.891 159.75 358.946 159.912 358.989L160.798 359.227C161.026 359.287 161.278 359.369 161.557 359.474C161.838 359.58 162.107 359.723 162.362 359.905C162.621 360.084 162.834 360.314 163.001 360.595C163.169 360.876 163.253 361.222 163.253 361.631C163.253 362.102 163.129 362.528 162.882 362.909C162.638 363.29 162.28 363.592 161.808 363.817C161.339 364.041 160.77 364.153 160.099 364.153C159.474 364.153 158.933 364.053 158.476 363.851C158.021 363.649 157.663 363.368 157.402 363.007C157.143 362.646 156.997 362.227 156.963 361.75H158.054C158.082 362.08 158.193 362.352 158.386 362.568C158.582 362.781 158.83 362.94 159.128 363.045C159.429 363.148 159.753 363.199 160.099 363.199C160.503 363.199 160.865 363.134 161.186 363.003C161.507 362.869 161.761 362.685 161.949 362.449C162.136 362.21 162.23 361.932 162.23 361.614C162.23 361.324 162.149 361.088 161.987 360.906C161.825 360.724 161.612 360.577 161.348 360.463C161.084 360.349 160.798 360.25 160.491 360.165L159.418 359.858C158.736 359.662 158.196 359.382 157.798 359.018C157.401 358.655 157.202 358.179 157.202 357.591C157.202 357.102 157.334 356.676 157.598 356.312C157.865 355.946 158.223 355.662 158.672 355.46C159.124 355.256 159.628 355.153 160.185 355.153C160.747 355.153 161.247 355.254 161.685 355.456C162.122 355.655 162.469 355.928 162.724 356.274C162.983 356.621 163.119 357.014 163.134 357.455H162.111ZM165.86 360.062V364H164.854V355.273H165.86V358.477H165.945C166.098 358.139 166.328 357.871 166.635 357.672C166.945 357.47 167.357 357.369 167.871 357.369C168.317 357.369 168.708 357.459 169.043 357.638C169.378 357.814 169.638 358.085 169.823 358.452C170.01 358.815 170.104 359.278 170.104 359.841V364H169.098V359.909C169.098 359.389 168.963 358.987 168.694 358.703C168.426 358.416 168.056 358.273 167.581 358.273C167.252 358.273 166.956 358.342 166.695 358.482C166.436 358.621 166.232 358.824 166.081 359.091C165.934 359.358 165.86 359.682 165.86 360.062ZM173.87 364.153C173.455 364.153 173.079 364.075 172.741 363.919C172.403 363.76 172.134 363.531 171.935 363.233C171.737 362.932 171.637 362.568 171.637 362.142C171.637 361.767 171.711 361.463 171.859 361.23C172.006 360.994 172.204 360.81 172.451 360.676C172.698 360.543 172.971 360.443 173.269 360.378C173.57 360.31 173.873 360.256 174.177 360.216C174.575 360.165 174.897 360.126 175.144 360.101C175.394 360.072 175.576 360.026 175.69 359.96C175.806 359.895 175.864 359.781 175.864 359.619V359.585C175.864 359.165 175.749 358.838 175.519 358.605C175.292 358.372 174.947 358.256 174.484 358.256C174.004 358.256 173.627 358.361 173.354 358.571C173.082 358.781 172.89 359.006 172.779 359.244L171.825 358.903C171.995 358.506 172.222 358.196 172.506 357.974C172.793 357.75 173.106 357.594 173.444 357.506C173.785 357.415 174.12 357.369 174.45 357.369C174.66 357.369 174.901 357.395 175.174 357.446C175.45 357.494 175.715 357.595 175.971 357.749C176.229 357.902 176.444 358.134 176.614 358.443C176.785 358.753 176.87 359.168 176.87 359.688V364H175.864V363.114H175.813C175.745 363.256 175.631 363.408 175.472 363.57C175.313 363.732 175.102 363.869 174.837 363.983C174.573 364.097 174.251 364.153 173.87 364.153ZM174.023 363.25C174.421 363.25 174.756 363.172 175.029 363.016C175.305 362.859 175.512 362.658 175.651 362.411C175.793 362.163 175.864 361.903 175.864 361.631V360.71C175.822 360.761 175.728 360.808 175.583 360.851C175.441 360.891 175.276 360.926 175.089 360.957C174.904 360.986 174.724 361.011 174.548 361.034C174.374 361.054 174.234 361.071 174.126 361.085C173.864 361.119 173.62 361.175 173.393 361.251C173.168 361.325 172.987 361.437 172.847 361.588C172.711 361.736 172.643 361.937 172.643 362.193C172.643 362.543 172.772 362.807 173.031 362.986C173.292 363.162 173.623 363.25 174.023 363.25ZM179.643 361.614L179.626 360.369H179.831L182.694 357.455H183.939L180.887 360.54H180.802L179.643 361.614ZM178.706 364V355.273H179.711V364H178.706ZM182.865 364L180.308 360.761L181.024 360.062L184.143 364H182.865ZM187.159 364.153C186.744 364.153 186.368 364.075 186.03 363.919C185.692 363.76 185.423 363.531 185.224 363.233C185.026 362.932 184.926 362.568 184.926 362.142C184.926 361.767 185 361.463 185.148 361.23C185.295 360.994 185.493 360.81 185.74 360.676C185.987 360.543 186.26 360.443 186.558 360.378C186.859 360.31 187.162 360.256 187.466 360.216C187.864 360.165 188.186 360.126 188.433 360.101C188.683 360.072 188.865 360.026 188.979 359.96C189.095 359.895 189.153 359.781 189.153 359.619V359.585C189.153 359.165 189.038 358.838 188.808 358.605C188.581 358.372 188.236 358.256 187.773 358.256C187.293 358.256 186.916 358.361 186.643 358.571C186.371 358.781 186.179 359.006 186.068 359.244L185.114 358.903C185.284 358.506 185.511 358.196 185.795 357.974C186.082 357.75 186.395 357.594 186.733 357.506C187.074 357.415 187.409 357.369 187.739 357.369C187.949 357.369 188.19 357.395 188.463 357.446C188.739 357.494 189.004 357.595 189.26 357.749C189.518 357.902 189.733 358.134 189.903 358.443C190.074 358.753 190.159 359.168 190.159 359.688V364H189.153V363.114H189.102C189.034 363.256 188.92 363.408 188.761 363.57C188.602 363.732 188.391 363.869 188.126 363.983C187.862 364.097 187.54 364.153 187.159 364.153ZM187.312 363.25C187.71 363.25 188.045 363.172 188.318 363.016C188.594 362.859 188.801 362.658 188.94 362.411C189.082 362.163 189.153 361.903 189.153 361.631V360.71C189.111 360.761 189.017 360.808 188.872 360.851C188.73 360.891 188.565 360.926 188.378 360.957C188.193 360.986 188.013 361.011 187.837 361.034C187.663 361.054 187.523 361.071 187.415 361.085C187.153 361.119 186.909 361.175 186.682 361.251C186.457 361.325 186.276 361.437 186.136 361.588C186 361.736 185.932 361.937 185.932 362.193C185.932 362.543 186.061 362.807 186.32 362.986C186.581 363.162 186.912 363.25 187.312 363.25ZM191.995 364V357.455H192.966V358.443H193.034C193.154 358.119 193.37 357.857 193.682 357.655C193.995 357.453 194.347 357.352 194.739 357.352C194.813 357.352 194.905 357.354 195.016 357.357C195.127 357.359 195.211 357.364 195.267 357.369V358.392C195.233 358.384 195.155 358.371 195.033 358.354C194.914 358.334 194.787 358.324 194.654 358.324C194.336 358.324 194.051 358.391 193.801 358.524C193.554 358.655 193.358 358.837 193.213 359.07C193.071 359.3 193 359.562 193 359.858V364H191.995ZM201.096 358.92L200.192 359.176C200.136 359.026 200.052 358.879 199.941 358.737C199.833 358.592 199.685 358.473 199.498 358.379C199.31 358.286 199.07 358.239 198.778 358.239C198.377 358.239 198.043 358.331 197.776 358.516C197.512 358.697 197.38 358.929 197.38 359.21C197.38 359.46 197.471 359.658 197.653 359.803C197.835 359.947 198.119 360.068 198.505 360.165L199.477 360.403C200.062 360.545 200.498 360.763 200.785 361.055C201.072 361.345 201.215 361.719 201.215 362.176C201.215 362.551 201.107 362.886 200.891 363.182C200.678 363.477 200.38 363.71 199.996 363.881C199.613 364.051 199.167 364.136 198.658 364.136C197.991 364.136 197.438 363.991 197.001 363.702C196.563 363.412 196.286 362.989 196.17 362.432L197.124 362.193C197.215 362.545 197.387 362.81 197.64 362.986C197.896 363.162 198.229 363.25 198.641 363.25C199.11 363.25 199.482 363.151 199.758 362.952C200.036 362.75 200.175 362.509 200.175 362.227C200.175 362 200.096 361.81 199.937 361.656C199.778 361.5 199.533 361.384 199.204 361.307L198.113 361.051C197.513 360.909 197.073 360.689 196.792 360.391C196.513 360.089 196.374 359.713 196.374 359.261C196.374 358.892 196.478 358.565 196.685 358.281C196.896 357.997 197.181 357.774 197.542 357.612C197.906 357.45 198.317 357.369 198.778 357.369C199.425 357.369 199.934 357.511 200.303 357.795C200.675 358.08 200.94 358.455 201.096 358.92ZM205.576 357.455V358.307H202.184V357.455H205.576ZM203.172 355.886H204.178V362.125C204.178 362.409 204.219 362.622 204.301 362.764C204.387 362.903 204.495 362.997 204.625 363.045C204.759 363.091 204.9 363.114 205.047 363.114C205.158 363.114 205.249 363.108 205.32 363.097C205.391 363.082 205.448 363.071 205.49 363.062L205.695 363.966C205.627 363.991 205.532 364.017 205.409 364.043C205.287 364.071 205.132 364.085 204.945 364.085C204.661 364.085 204.382 364.024 204.11 363.902C203.84 363.78 203.615 363.594 203.436 363.344C203.26 363.094 203.172 362.778 203.172 362.398V355.886ZM207.088 364V357.455H208.094V364H207.088ZM207.6 356.364C207.404 356.364 207.235 356.297 207.093 356.163C206.953 356.03 206.884 355.869 206.884 355.682C206.884 355.494 206.953 355.334 207.093 355.2C207.235 355.067 207.404 355 207.6 355C207.796 355 207.963 355.067 208.103 355.2C208.245 355.334 208.316 355.494 208.316 355.682C208.316 355.869 208.245 356.03 208.103 356.163C207.963 356.297 207.796 356.364 207.6 356.364ZM212.595 364.136C211.982 364.136 211.453 363.991 211.01 363.702C210.567 363.412 210.226 363.013 209.987 362.504C209.749 361.996 209.629 361.415 209.629 360.761C209.629 360.097 209.751 359.51 209.996 359.001C210.243 358.49 210.587 358.091 211.027 357.804C211.47 357.514 211.987 357.369 212.578 357.369C213.038 357.369 213.453 357.455 213.822 357.625C214.192 357.795 214.494 358.034 214.73 358.341C214.966 358.648 215.112 359.006 215.169 359.415H214.163C214.087 359.116 213.916 358.852 213.652 358.622C213.391 358.389 213.038 358.273 212.595 358.273C212.203 358.273 211.859 358.375 211.564 358.58C211.271 358.781 211.043 359.067 210.878 359.436C210.716 359.803 210.635 360.233 210.635 360.727C210.635 361.233 210.714 361.673 210.874 362.048C211.036 362.423 211.263 362.714 211.555 362.922C211.851 363.129 212.197 363.233 212.595 363.233C212.857 363.233 213.094 363.188 213.307 363.097C213.52 363.006 213.7 362.875 213.848 362.705C213.996 362.534 214.101 362.33 214.163 362.091H215.169C215.112 362.477 214.972 362.825 214.747 363.135C214.526 363.442 214.232 363.686 213.865 363.868C213.501 364.047 213.078 364.136 212.595 364.136Z" fill="#FAFAFA"/>
<path d="M288.149 286.273H289.41L292.376 293.517H292.478L295.444 286.273H296.705V295H295.717V288.369H295.632L292.904 295H291.95L289.222 288.369H289.137V295H288.149V286.273ZM300.614 295.153C300.199 295.153 299.823 295.075 299.485 294.919C299.147 294.76 298.878 294.531 298.68 294.233C298.481 293.932 298.381 293.568 298.381 293.142C298.381 292.767 298.455 292.463 298.603 292.23C298.751 291.994 298.948 291.81 299.195 291.676C299.442 291.543 299.715 291.443 300.013 291.378C300.314 291.31 300.617 291.256 300.921 291.216C301.319 291.165 301.641 291.126 301.888 291.101C302.138 291.072 302.32 291.026 302.434 290.96C302.55 290.895 302.608 290.781 302.608 290.619V290.585C302.608 290.165 302.493 289.838 302.263 289.605C302.036 289.372 301.691 289.256 301.228 289.256C300.748 289.256 300.371 289.361 300.099 289.571C299.826 289.781 299.634 290.006 299.523 290.244L298.569 289.903C298.739 289.506 298.966 289.196 299.251 288.974C299.537 288.75 299.85 288.594 300.188 288.506C300.529 288.415 300.864 288.369 301.194 288.369C301.404 288.369 301.645 288.395 301.918 288.446C302.194 288.494 302.459 288.595 302.715 288.749C302.974 288.902 303.188 289.134 303.358 289.443C303.529 289.753 303.614 290.168 303.614 290.688V295H302.608V294.114H302.557C302.489 294.256 302.376 294.408 302.216 294.57C302.057 294.732 301.846 294.869 301.581 294.983C301.317 295.097 300.995 295.153 300.614 295.153ZM300.768 294.25C301.165 294.25 301.501 294.172 301.773 294.016C302.049 293.859 302.256 293.658 302.395 293.411C302.537 293.163 302.608 292.903 302.608 292.631V291.71C302.566 291.761 302.472 291.808 302.327 291.851C302.185 291.891 302.02 291.926 301.833 291.957C301.648 291.986 301.468 292.011 301.292 292.034C301.118 292.054 300.978 292.071 300.87 292.085C300.608 292.119 300.364 292.175 300.137 292.251C299.912 292.325 299.731 292.437 299.591 292.588C299.455 292.736 299.387 292.937 299.387 293.193C299.387 293.543 299.516 293.807 299.775 293.986C300.036 294.162 300.367 294.25 300.768 294.25ZM308.092 297.591C307.606 297.591 307.188 297.528 306.839 297.403C306.49 297.281 306.198 297.119 305.965 296.918C305.735 296.719 305.552 296.506 305.416 296.278L306.217 295.716C306.308 295.835 306.423 295.972 306.562 296.125C306.701 296.281 306.892 296.416 307.133 296.53C307.377 296.646 307.697 296.705 308.092 296.705C308.62 296.705 309.056 296.577 309.4 296.321C309.744 296.065 309.916 295.665 309.916 295.119V293.79H309.83C309.757 293.909 309.651 294.057 309.515 294.233C309.382 294.406 309.188 294.561 308.936 294.697C308.686 294.831 308.347 294.898 307.921 294.898C307.393 294.898 306.919 294.773 306.498 294.523C306.08 294.273 305.749 293.909 305.505 293.432C305.264 292.955 305.143 292.375 305.143 291.693C305.143 291.023 305.261 290.439 305.497 289.942C305.732 289.442 306.061 289.055 306.481 288.783C306.901 288.507 307.387 288.369 307.938 288.369C308.365 288.369 308.703 288.44 308.953 288.582C309.205 288.722 309.399 288.881 309.532 289.06C309.669 289.236 309.774 289.381 309.847 289.494H309.95V288.455H310.921V295.188C310.921 295.75 310.794 296.207 310.538 296.56C310.285 296.915 309.944 297.175 309.515 297.339C309.089 297.507 308.615 297.591 308.092 297.591ZM308.058 293.994C308.461 293.994 308.802 293.902 309.08 293.717C309.359 293.533 309.57 293.267 309.715 292.92C309.86 292.574 309.933 292.159 309.933 291.676C309.933 291.205 309.862 290.788 309.72 290.428C309.578 290.067 309.367 289.784 309.089 289.58C308.811 289.375 308.467 289.273 308.058 289.273C307.632 289.273 307.276 289.381 306.992 289.597C306.711 289.812 306.499 290.102 306.357 290.466C306.218 290.83 306.149 291.233 306.149 291.676C306.149 292.131 306.22 292.533 306.362 292.882C306.507 293.229 306.72 293.501 307.001 293.7C307.285 293.896 307.637 293.994 308.058 293.994ZM312.762 295V288.455H313.768V295H312.762ZM313.274 287.364C313.078 287.364 312.909 287.297 312.767 287.163C312.627 287.03 312.558 286.869 312.558 286.682C312.558 286.494 312.627 286.334 312.767 286.2C312.909 286.067 313.078 286 313.274 286C313.47 286 313.637 286.067 313.776 286.2C313.919 286.334 313.99 286.494 313.99 286.682C313.99 286.869 313.919 287.03 313.776 287.163C313.637 287.297 313.47 287.364 313.274 287.364ZM318.269 295.136C317.655 295.136 317.127 294.991 316.684 294.702C316.241 294.412 315.9 294.013 315.661 293.504C315.422 292.996 315.303 292.415 315.303 291.761C315.303 291.097 315.425 290.51 315.67 290.001C315.917 289.49 316.26 289.091 316.701 288.804C317.144 288.514 317.661 288.369 318.252 288.369C318.712 288.369 319.127 288.455 319.496 288.625C319.866 288.795 320.168 289.034 320.404 289.341C320.64 289.648 320.786 290.006 320.843 290.415H319.837C319.76 290.116 319.59 289.852 319.326 289.622C319.064 289.389 318.712 289.273 318.269 289.273C317.877 289.273 317.533 289.375 317.238 289.58C316.945 289.781 316.716 290.067 316.552 290.436C316.39 290.803 316.309 291.233 316.309 291.727C316.309 292.233 316.388 292.673 316.547 293.048C316.709 293.423 316.937 293.714 317.229 293.922C317.525 294.129 317.871 294.233 318.269 294.233C318.53 294.233 318.768 294.188 318.981 294.097C319.194 294.006 319.374 293.875 319.522 293.705C319.67 293.534 319.775 293.33 319.837 293.091H320.843C320.786 293.477 320.645 293.825 320.421 294.135C320.199 294.442 319.905 294.686 319.539 294.868C319.175 295.047 318.752 295.136 318.269 295.136ZM322.16 295V294.233L326.864 287.21H322.108V286.273H328.126V287.04L323.421 294.062H328.177V295H322.16ZM331.739 295.153C331.324 295.153 330.948 295.075 330.61 294.919C330.272 294.76 330.003 294.531 329.805 294.233C329.606 293.932 329.506 293.568 329.506 293.142C329.506 292.767 329.58 292.463 329.728 292.23C329.876 291.994 330.073 291.81 330.32 291.676C330.567 291.543 330.84 291.443 331.138 291.378C331.439 291.31 331.742 291.256 332.046 291.216C332.444 291.165 332.766 291.126 333.013 291.101C333.263 291.072 333.445 291.026 333.559 290.96C333.675 290.895 333.733 290.781 333.733 290.619V290.585C333.733 290.165 333.618 289.838 333.388 289.605C333.161 289.372 332.816 289.256 332.353 289.256C331.873 289.256 331.496 289.361 331.224 289.571C330.951 289.781 330.759 290.006 330.648 290.244L329.694 289.903C329.864 289.506 330.091 289.196 330.376 288.974C330.662 288.75 330.975 288.594 331.313 288.506C331.654 288.415 331.989 288.369 332.319 288.369C332.529 288.369 332.77 288.395 333.043 288.446C333.319 288.494 333.584 288.595 333.84 288.749C334.099 288.902 334.313 289.134 334.483 289.443C334.654 289.753 334.739 290.168 334.739 290.688V295H333.733V294.114H333.682C333.614 294.256 333.501 294.408 333.341 294.57C333.182 294.732 332.971 294.869 332.706 294.983C332.442 295.097 332.12 295.153 331.739 295.153ZM331.893 294.25C332.29 294.25 332.626 294.172 332.898 294.016C333.174 293.859 333.381 293.658 333.52 293.411C333.662 293.163 333.733 292.903 333.733 292.631V291.71C333.691 291.761 333.597 291.808 333.452 291.851C333.31 291.891 333.145 291.926 332.958 291.957C332.773 291.986 332.593 292.011 332.417 292.034C332.243 292.054 332.103 292.071 331.995 292.085C331.733 292.119 331.489 292.175 331.262 292.251C331.037 292.325 330.856 292.437 330.716 292.588C330.58 292.736 330.512 292.937 330.512 293.193C330.512 293.543 330.641 293.807 330.9 293.986C331.161 294.162 331.492 294.25 331.893 294.25ZM336.387 295V294.233L340.103 289.46V289.392H336.507V288.455H341.399V289.256L337.785 293.994V294.062H341.518V295H336.387ZM344.993 295.153C344.578 295.153 344.202 295.075 343.864 294.919C343.526 294.76 343.257 294.531 343.058 294.233C342.86 293.932 342.76 293.568 342.76 293.142C342.76 292.767 342.834 292.463 342.982 292.23C343.129 291.994 343.327 291.81 343.574 291.676C343.821 291.543 344.094 291.443 344.392 291.378C344.693 291.31 344.996 291.256 345.3 291.216C345.698 291.165 346.02 291.126 346.267 291.101C346.517 291.072 346.699 291.026 346.813 290.96C346.929 290.895 346.987 290.781 346.987 290.619V290.585C346.987 290.165 346.872 289.838 346.642 289.605C346.415 289.372 346.07 289.256 345.607 289.256C345.127 289.256 344.75 289.361 344.477 289.571C344.205 289.781 344.013 290.006 343.902 290.244L342.948 289.903C343.118 289.506 343.345 289.196 343.629 288.974C343.916 288.75 344.229 288.594 344.567 288.506C344.908 288.415 345.243 288.369 345.573 288.369C345.783 288.369 346.024 288.395 346.297 288.446C346.573 288.494 346.838 288.595 347.094 288.749C347.352 288.902 347.567 289.134 347.737 289.443C347.908 289.753 347.993 290.168 347.993 290.688V295H346.987V294.114H346.936C346.868 294.256 346.754 294.408 346.595 294.57C346.436 294.732 346.225 294.869 345.96 294.983C345.696 295.097 345.374 295.153 344.993 295.153ZM345.146 294.25C345.544 294.25 345.879 294.172 346.152 294.016C346.428 293.859 346.635 293.658 346.774 293.411C346.916 293.163 346.987 292.903 346.987 292.631V291.71C346.945 291.761 346.851 291.808 346.706 291.851C346.564 291.891 346.399 291.926 346.212 291.957C346.027 291.986 345.847 292.011 345.671 292.034C345.497 292.054 345.357 292.071 345.249 292.085C344.987 292.119 344.743 292.175 344.516 292.251C344.291 292.325 344.11 292.437 343.97 292.588C343.834 292.736 343.766 292.937 343.766 293.193C343.766 293.543 343.895 293.807 344.154 293.986C344.415 294.162 344.746 294.25 345.146 294.25Z" fill="#FAFAFA"/>
<path d="M219.894 209.139C219.237 209.139 218.652 209.027 218.139 208.801C217.628 208.576 217.222 208.263 216.921 207.862C216.622 207.457 216.46 206.988 216.434 206.455H217.686C217.713 206.783 217.826 207.066 218.024 207.305C218.223 207.54 218.483 207.722 218.805 207.852C219.126 207.981 219.483 208.045 219.874 208.045C220.311 208.045 220.699 207.969 221.037 207.817C221.375 207.664 221.64 207.452 221.833 207.18C222.025 206.909 222.121 206.594 222.121 206.236C222.121 205.861 222.028 205.531 221.843 205.246C221.657 204.958 221.385 204.733 221.027 204.57C220.669 204.408 220.232 204.327 219.715 204.327H218.899V203.233H219.715C220.119 203.233 220.474 203.16 220.779 203.014C221.087 202.868 221.327 202.663 221.5 202.398C221.675 202.133 221.763 201.821 221.763 201.463C221.763 201.118 221.687 200.818 221.534 200.563C221.382 200.308 221.166 200.109 220.888 199.967C220.613 199.824 220.288 199.753 219.914 199.753C219.562 199.753 219.231 199.817 218.919 199.947C218.611 200.073 218.359 200.257 218.164 200.499C217.968 200.737 217.862 201.026 217.845 201.364H216.652C216.672 200.83 216.833 200.363 217.134 199.962C217.436 199.557 217.831 199.242 218.318 199.017C218.808 198.792 219.347 198.679 219.934 198.679C220.563 198.679 221.103 198.807 221.554 199.062C222.005 199.314 222.351 199.647 222.593 200.061C222.835 200.475 222.956 200.923 222.956 201.403C222.956 201.977 222.805 202.466 222.504 202.87C222.206 203.274 221.8 203.554 221.286 203.71V203.79C221.929 203.896 222.431 204.169 222.792 204.61C223.153 205.048 223.334 205.589 223.334 206.236C223.334 206.789 223.183 207.286 222.882 207.727C222.583 208.165 222.176 208.509 221.659 208.761C221.142 209.013 220.553 209.139 219.894 209.139ZM225.367 209V208.105L228.728 204.426C229.123 203.995 229.447 203.621 229.703 203.303C229.958 202.981 230.147 202.679 230.269 202.398C230.395 202.113 230.458 201.814 230.458 201.503C230.458 201.145 230.372 200.835 230.2 200.573C230.031 200.311 229.799 200.109 229.504 199.967C229.209 199.824 228.877 199.753 228.509 199.753C228.118 199.753 227.777 199.834 227.485 199.996C227.197 200.156 226.973 200.379 226.814 200.668C226.658 200.956 226.581 201.294 226.581 201.682H225.407C225.407 201.085 225.545 200.562 225.82 200.111C226.095 199.66 226.469 199.309 226.943 199.057C227.421 198.805 227.956 198.679 228.549 198.679C229.146 198.679 229.675 198.805 230.135 199.057C230.596 199.309 230.957 199.648 231.219 200.076C231.481 200.504 231.612 200.979 231.612 201.503C231.612 201.877 231.544 202.244 231.408 202.602C231.275 202.956 231.043 203.352 230.712 203.79C230.384 204.224 229.928 204.754 229.345 205.381L227.058 207.827V207.906H231.791V209H225.367ZM237.085 198.679C237.503 198.682 237.921 198.762 238.338 198.918C238.756 199.073 239.137 199.332 239.482 199.693C239.826 200.051 240.103 200.54 240.312 201.16C240.521 201.78 240.625 202.557 240.625 203.491C240.625 204.396 240.539 205.2 240.367 205.903C240.198 206.602 239.952 207.192 239.631 207.673C239.313 208.153 238.925 208.518 238.468 208.766C238.014 209.015 237.5 209.139 236.926 209.139C236.356 209.139 235.848 209.027 235.4 208.801C234.956 208.572 234.591 208.256 234.306 207.852C234.025 207.444 233.844 206.972 233.764 206.435H234.978C235.087 206.902 235.304 207.288 235.629 207.593C235.957 207.895 236.389 208.045 236.926 208.045C237.712 208.045 238.332 207.702 238.786 207.016C239.243 206.33 239.472 205.361 239.472 204.108H239.392C239.207 204.386 238.986 204.627 238.731 204.829C238.476 205.031 238.193 205.187 237.881 205.296C237.569 205.406 237.238 205.46 236.887 205.46C236.303 205.46 235.768 205.316 235.281 205.028C234.797 204.736 234.409 204.337 234.117 203.83C233.829 203.319 233.685 202.736 233.685 202.08C233.685 201.456 233.824 200.886 234.103 200.369C234.384 199.849 234.779 199.435 235.286 199.126C235.796 198.818 236.396 198.669 237.085 198.679ZM237.085 199.773C236.668 199.773 236.292 199.877 235.957 200.086C235.626 200.291 235.362 200.57 235.166 200.921C234.974 201.269 234.878 201.655 234.878 202.08C234.878 202.504 234.971 202.89 235.157 203.238C235.345 203.583 235.602 203.858 235.927 204.063C236.255 204.265 236.628 204.366 237.046 204.366C237.361 204.366 237.654 204.305 237.926 204.183C238.197 204.057 238.434 203.886 238.637 203.67C238.842 203.452 239.003 203.205 239.119 202.93C239.235 202.651 239.293 202.361 239.293 202.06C239.293 201.662 239.197 201.289 239.005 200.941C238.816 200.593 238.554 200.311 238.219 200.096C237.888 199.88 237.51 199.773 237.085 199.773ZM248.467 211.685C247.453 211.685 246.556 211.545 245.777 211.267C244.998 210.992 244.344 210.586 243.813 210.049C243.283 209.512 242.882 208.854 242.61 208.075C242.338 207.296 242.203 206.405 242.203 205.401C242.203 204.429 242.34 203.561 242.615 202.795C242.894 202.03 243.296 201.38 243.823 200.847C244.354 200.31 244.997 199.9 245.752 199.619C246.511 199.337 247.37 199.196 248.328 199.196C249.259 199.196 250.074 199.348 250.774 199.653C251.476 199.955 252.063 200.364 252.533 200.881C253.007 201.395 253.362 201.973 253.597 202.616C253.836 203.259 253.955 203.922 253.955 204.605C253.955 205.086 253.932 205.573 253.886 206.067C253.839 206.561 253.742 207.015 253.592 207.429C253.443 207.84 253.213 208.171 252.901 208.423C252.593 208.675 252.176 208.801 251.649 208.801C251.417 208.801 251.161 208.765 250.883 208.692C250.604 208.619 250.358 208.498 250.142 208.329C249.927 208.16 249.799 207.933 249.759 207.648H249.7C249.62 207.84 249.497 208.022 249.332 208.195C249.169 208.367 248.956 208.504 248.69 208.607C248.429 208.71 248.109 208.755 247.731 208.741C247.3 208.725 246.921 208.629 246.592 208.453C246.264 208.274 245.989 208.032 245.767 207.727C245.548 207.419 245.383 207.063 245.27 206.658C245.161 206.251 245.106 205.812 245.106 205.341C245.106 204.893 245.172 204.484 245.305 204.113C245.437 203.742 245.621 203.417 245.857 203.138C246.095 202.86 246.374 202.638 246.692 202.472C247.013 202.303 247.36 202.199 247.731 202.159C248.062 202.126 248.364 202.141 248.636 202.204C248.908 202.263 249.131 202.355 249.307 202.477C249.483 202.597 249.594 202.729 249.64 202.875H249.7V202.318H250.754V206.812C250.754 207.091 250.832 207.336 250.987 207.548C251.143 207.76 251.37 207.866 251.668 207.866C252.006 207.866 252.265 207.75 252.444 207.518C252.626 207.286 252.751 206.929 252.817 206.445C252.886 205.961 252.921 205.341 252.921 204.585C252.921 204.141 252.86 203.704 252.737 203.273C252.618 202.839 252.436 202.433 252.19 202.055C251.948 201.677 251.642 201.344 251.271 201.055C250.899 200.767 250.464 200.542 249.963 200.379C249.466 200.214 248.901 200.131 248.268 200.131C247.489 200.131 246.791 200.252 246.175 200.494C245.562 200.732 245.04 201.082 244.609 201.543C244.181 202 243.855 202.557 243.629 203.213C243.407 203.866 243.296 204.608 243.296 205.44C243.296 206.286 243.407 207.036 243.629 207.692C243.855 208.349 244.186 208.902 244.624 209.353C245.064 209.804 245.61 210.145 246.259 210.377C246.909 210.612 247.658 210.73 248.506 210.73C248.871 210.73 249.231 210.695 249.585 210.626C249.94 210.556 250.253 210.48 250.525 210.397C250.797 210.314 250.992 210.253 251.112 210.213L251.39 211.128C251.185 211.214 250.916 211.3 250.585 211.386C250.256 211.473 249.905 211.544 249.531 211.6C249.159 211.656 248.805 211.685 248.467 211.685ZM247.89 207.727C248.334 207.727 248.694 207.638 248.969 207.459C249.244 207.28 249.444 207.01 249.57 206.648C249.696 206.287 249.759 205.831 249.759 205.281C249.759 204.724 249.69 204.29 249.551 203.979C249.411 203.667 249.206 203.448 248.934 203.322C248.662 203.196 248.328 203.134 247.93 203.134C247.552 203.134 247.229 203.233 246.96 203.432C246.695 203.627 246.491 203.889 246.349 204.217C246.21 204.542 246.14 204.897 246.14 205.281C246.14 205.705 246.196 206.105 246.309 206.479C246.422 206.851 246.606 207.152 246.861 207.384C247.116 207.613 247.459 207.727 247.89 207.727ZM255.712 209V201.364H256.845V202.517H256.925C257.064 202.139 257.316 201.833 257.68 201.597C258.045 201.362 258.456 201.244 258.913 201.244C258.999 201.244 259.107 201.246 259.236 201.249C259.366 201.253 259.463 201.258 259.53 201.264V202.457C259.49 202.447 259.399 202.433 259.256 202.413C259.117 202.389 258.97 202.378 258.814 202.378C258.443 202.378 258.111 202.456 257.82 202.612C257.531 202.764 257.302 202.976 257.133 203.248C256.968 203.516 256.885 203.823 256.885 204.168V209H255.712ZM263.89 209.159C263.154 209.159 262.519 208.997 261.986 208.672C261.455 208.344 261.046 207.886 260.758 207.3C260.473 206.71 260.33 206.024 260.33 205.241C260.33 204.459 260.473 203.77 260.758 203.173C261.046 202.573 261.447 202.106 261.961 201.771C262.478 201.433 263.081 201.264 263.771 201.264C264.168 201.264 264.561 201.33 264.949 201.463C265.337 201.596 265.69 201.811 266.008 202.109C266.326 202.404 266.579 202.795 266.768 203.283C266.957 203.77 267.052 204.37 267.052 205.082V205.58H261.165V204.565H265.859C265.859 204.134 265.772 203.75 265.6 203.412C265.431 203.074 265.189 202.807 264.874 202.612C264.563 202.416 264.195 202.318 263.771 202.318C263.303 202.318 262.899 202.434 262.557 202.666C262.219 202.895 261.959 203.193 261.777 203.561C261.595 203.929 261.503 204.323 261.503 204.744V205.42C261.503 205.997 261.603 206.486 261.802 206.887C262.004 207.285 262.284 207.588 262.642 207.797C263 208.002 263.416 208.105 263.89 208.105C264.198 208.105 264.476 208.062 264.725 207.976C264.977 207.886 265.194 207.754 265.376 207.578C265.559 207.399 265.699 207.177 265.799 206.912L266.932 207.23C266.813 207.615 266.613 207.953 266.331 208.244C266.049 208.533 265.701 208.758 265.287 208.92C264.873 209.08 264.407 209.159 263.89 209.159ZM270.01 198.818V209H268.837V198.818H270.01ZM272.915 211.864C272.716 211.864 272.538 211.847 272.383 211.814C272.227 211.784 272.119 211.754 272.059 211.724L272.358 210.69C272.643 210.763 272.895 210.79 273.113 210.77C273.332 210.75 273.526 210.652 273.695 210.477C273.867 210.304 274.025 210.024 274.167 209.636L274.386 209.04L271.562 201.364H272.835L274.943 207.449H275.022L277.13 201.364H278.403L275.162 210.114C275.016 210.508 274.835 210.835 274.62 211.093C274.404 211.355 274.154 211.549 273.869 211.675C273.587 211.801 273.269 211.864 272.915 211.864ZM285.361 203.074L284.307 203.372C284.241 203.196 284.143 203.026 284.014 202.86C283.888 202.691 283.715 202.552 283.497 202.442C283.278 202.333 282.998 202.278 282.656 202.278C282.189 202.278 281.8 202.386 281.488 202.602C281.18 202.814 281.026 203.084 281.026 203.412C281.026 203.704 281.132 203.934 281.344 204.103C281.556 204.272 281.887 204.413 282.338 204.526L283.472 204.804C284.154 204.97 284.663 205.223 284.998 205.565C285.333 205.903 285.5 206.339 285.5 206.872C285.5 207.31 285.374 207.701 285.122 208.045C284.874 208.39 284.526 208.662 284.078 208.861C283.631 209.06 283.11 209.159 282.517 209.159C281.738 209.159 281.094 208.99 280.583 208.652C280.073 208.314 279.75 207.82 279.614 207.17L280.727 206.892C280.833 207.303 281.034 207.611 281.329 207.817C281.627 208.022 282.017 208.125 282.497 208.125C283.044 208.125 283.478 208.009 283.8 207.777C284.125 207.542 284.287 207.26 284.287 206.932C284.287 206.667 284.194 206.445 284.009 206.266C283.823 206.083 283.538 205.947 283.153 205.858L281.881 205.56C281.181 205.394 280.668 205.137 280.34 204.789C280.015 204.438 279.852 203.999 279.852 203.472C279.852 203.041 279.973 202.66 280.215 202.328C280.461 201.997 280.794 201.737 281.215 201.548C281.639 201.359 282.119 201.264 282.656 201.264C283.412 201.264 284.005 201.43 284.436 201.761C284.87 202.093 285.179 202.53 285.361 203.074ZM287.266 209V201.364H288.44V209H287.266ZM287.863 200.091C287.634 200.091 287.437 200.013 287.271 199.857C287.109 199.701 287.028 199.514 287.028 199.295C287.028 199.077 287.109 198.889 287.271 198.734C287.437 198.578 287.634 198.5 287.863 198.5C288.092 198.5 288.287 198.578 288.449 198.734C288.615 198.889 288.698 199.077 288.698 199.295C288.698 199.514 288.615 199.701 288.449 199.857C288.287 200.013 288.092 200.091 287.863 200.091ZM292.836 209.179C292.352 209.179 291.913 209.088 291.518 208.906C291.124 208.72 290.811 208.453 290.579 208.105C290.347 207.754 290.231 207.33 290.231 206.832C290.231 206.395 290.317 206.04 290.489 205.768C290.661 205.493 290.892 205.278 291.18 205.122C291.468 204.966 291.787 204.85 292.135 204.774C292.486 204.695 292.839 204.632 293.194 204.585C293.658 204.526 294.034 204.481 294.322 204.451C294.614 204.418 294.826 204.363 294.959 204.287C295.094 204.211 295.162 204.078 295.162 203.889V203.849C295.162 203.359 295.028 202.978 294.76 202.706C294.495 202.434 294.092 202.298 293.552 202.298C292.991 202.298 292.552 202.421 292.234 202.666C291.916 202.911 291.692 203.173 291.563 203.452L290.449 203.054C290.648 202.59 290.913 202.229 291.245 201.97C291.58 201.708 291.944 201.526 292.339 201.423C292.736 201.317 293.127 201.264 293.512 201.264C293.757 201.264 294.039 201.294 294.357 201.354C294.678 201.41 294.988 201.528 295.287 201.707C295.588 201.886 295.839 202.156 296.037 202.517C296.236 202.878 296.336 203.362 296.336 203.969V209H295.162V207.966H295.103C295.023 208.132 294.891 208.309 294.705 208.498C294.519 208.687 294.272 208.848 293.964 208.98C293.656 209.113 293.28 209.179 292.836 209.179ZM293.015 208.125C293.479 208.125 293.87 208.034 294.188 207.852C294.509 207.669 294.751 207.434 294.914 207.146C295.08 206.857 295.162 206.554 295.162 206.236V205.162C295.113 205.222 295.003 205.276 294.834 205.326C294.669 205.372 294.476 205.414 294.258 205.45C294.042 205.483 293.832 205.513 293.626 205.54C293.424 205.563 293.26 205.583 293.134 205.599C292.829 205.639 292.544 205.704 292.279 205.793C292.017 205.879 291.805 206.01 291.642 206.186C291.483 206.358 291.404 206.594 291.404 206.892C291.404 207.3 291.555 207.608 291.856 207.817C292.161 208.022 292.547 208.125 293.015 208.125ZM299.332 209.08C299.087 209.08 298.877 208.992 298.701 208.816C298.525 208.64 298.437 208.43 298.437 208.185C298.437 207.939 298.525 207.729 298.701 207.553C298.877 207.378 299.087 207.29 299.332 207.29C299.578 207.29 299.788 207.378 299.964 207.553C300.139 207.729 300.227 207.939 300.227 208.185C300.227 208.347 300.186 208.496 300.103 208.632C300.023 208.768 299.916 208.877 299.78 208.96C299.647 209.04 299.498 209.08 299.332 209.08ZM305.435 209.159C304.719 209.159 304.103 208.99 303.585 208.652C303.068 208.314 302.671 207.848 302.392 207.255C302.114 206.662 301.975 205.984 301.975 205.222C301.975 204.446 302.117 203.762 302.402 203.168C302.691 202.572 303.092 202.106 303.605 201.771C304.122 201.433 304.726 201.264 305.415 201.264C305.952 201.264 306.436 201.364 306.867 201.562C307.298 201.761 307.651 202.04 307.926 202.398C308.201 202.756 308.371 203.173 308.438 203.651H307.264C307.175 203.303 306.976 202.994 306.668 202.726C306.363 202.454 305.952 202.318 305.435 202.318C304.978 202.318 304.576 202.437 304.232 202.676C303.89 202.911 303.624 203.245 303.431 203.675C303.242 204.103 303.148 204.605 303.148 205.182C303.148 205.772 303.241 206.286 303.426 206.723C303.615 207.161 303.88 207.5 304.222 207.742C304.567 207.984 304.971 208.105 305.435 208.105C305.74 208.105 306.017 208.052 306.265 207.946C306.514 207.84 306.724 207.688 306.897 207.489C307.069 207.29 307.192 207.051 307.264 206.773H308.438C308.371 207.223 308.207 207.629 307.946 207.991C307.687 208.349 307.344 208.634 306.916 208.846C306.492 209.055 305.998 209.159 305.435 209.159ZM313.255 209.159C312.566 209.159 311.961 208.995 311.441 208.667C310.924 208.339 310.519 207.88 310.228 207.29C309.939 206.7 309.795 206.01 309.795 205.222C309.795 204.426 309.939 203.732 310.228 203.138C310.519 202.545 310.924 202.085 311.441 201.756C311.961 201.428 312.566 201.264 313.255 201.264C313.945 201.264 314.548 201.428 315.065 201.756C315.585 202.085 315.99 202.545 316.278 203.138C316.57 203.732 316.715 204.426 316.715 205.222C316.715 206.01 316.57 206.7 316.278 207.29C315.99 207.88 315.585 208.339 315.065 208.667C314.548 208.995 313.945 209.159 313.255 209.159ZM313.255 208.105C313.779 208.105 314.21 207.971 314.548 207.702C314.886 207.434 315.136 207.081 315.299 206.643C315.461 206.206 315.542 205.732 315.542 205.222C315.542 204.711 315.461 204.236 315.299 203.795C315.136 203.354 314.886 202.998 314.548 202.726C314.21 202.454 313.779 202.318 313.255 202.318C312.732 202.318 312.301 202.454 311.963 202.726C311.625 202.998 311.374 203.354 311.212 203.795C311.05 204.236 310.968 204.711 310.968 205.222C310.968 205.732 311.05 206.206 311.212 206.643C311.374 207.081 311.625 207.434 311.963 207.702C312.301 207.971 312.732 208.105 313.255 208.105ZM318.506 209V201.364H319.64V202.557H319.739C319.899 202.149 320.155 201.833 320.51 201.607C320.865 201.379 321.291 201.264 321.788 201.264C322.292 201.264 322.711 201.379 323.046 201.607C323.384 201.833 323.647 202.149 323.836 202.557H323.916C324.111 202.162 324.404 201.849 324.796 201.617C325.187 201.382 325.656 201.264 326.203 201.264C326.885 201.264 327.444 201.478 327.878 201.906C328.312 202.33 328.529 202.991 328.529 203.889V209H327.356V203.889C327.356 203.326 327.202 202.923 326.894 202.681C326.585 202.439 326.222 202.318 325.805 202.318C325.268 202.318 324.852 202.481 324.557 202.805C324.262 203.127 324.114 203.535 324.114 204.028V209H322.921V203.77C322.921 203.336 322.78 202.986 322.499 202.721C322.217 202.452 321.854 202.318 321.41 202.318C321.105 202.318 320.82 202.399 320.555 202.562C320.293 202.724 320.081 202.95 319.918 203.238C319.759 203.523 319.68 203.853 319.68 204.227V209H318.506Z" fill="#1DC76B"/>
<circle cx="272" cy="152" r="34" stroke="#1DC76B" stroke-width="4"/>
<circle cx="186" cy="45" r="17" stroke="white" stroke-width="2"/>
<circle cx="186" cy="325" r="17" stroke="white" stroke-width="2"/>
<circle cx="318" cy="256" r="17" stroke="white" stroke-width="2"/>
<circle cx="107" cy="225" r="17" stroke="white" stroke-width="2"/>
<circle cx="74" cy="98" r="17" stroke="white" stroke-width="2"/>
</svg>
