<svg width="21" height="21" viewBox="0 0 21 21" fill="none" xmlns="http://www.w3.org/2000/svg">
<path d="M10.4999 0.0830078C4.74679 0.0830078 0.083252 4.74655 0.083252 10.4997C0.083252 16.2528 4.74679 20.9163 10.4999 20.9163C16.253 20.9163 20.9166 16.2528 20.9166 10.4997C20.9166 4.74655 16.253 0.0830078 10.4999 0.0830078ZM11.5416 16.7497H9.45825V14.6663H11.5416V16.7497ZM11.5416 12.4372V13.6247H9.45825V11.5413C9.45825 10.9663 9.92492 10.4997 10.4999 10.4997C11.6489 10.4997 12.5833 9.5653 12.5833 8.41634C12.5833 7.26738 11.6489 6.33301 10.4999 6.33301C9.35096 6.33301 8.41659 7.26738 8.41659 8.41634H6.33325C6.33325 6.11426 8.19784 4.24967 10.4999 4.24967C12.802 4.24967 14.6666 6.11426 14.6666 8.41634C14.6666 10.3559 13.3353 11.9715 11.5416 12.4372Z" fill="white"/>
</svg>
