<svg width="30" height="30" viewBox="0 0 30 30" fill="none" xmlns="http://www.w3.org/2000/svg">
<path d="M7.5806 11.1622C9.80395 11.1622 11.6129 9.35333 11.6129 7.12991C11.6129 4.90649 9.80395 3.09766 7.5806 3.09766C5.35724 3.09766 3.54834 4.90649 3.54834 7.12991C3.54834 9.35333 5.35724 11.1622 7.5806 11.1622ZM7.5806 4.0654C9.27034 4.0654 10.6451 5.44017 10.6451 7.12991C10.6451 8.81966 9.27034 10.1944 7.5806 10.1944C5.89086 10.1944 4.51608 8.81966 4.51608 7.12991C4.51608 5.44017 5.89086 4.0654 7.5806 4.0654Z" fill="white"/>
<path d="M18.2256 11.1622C20.449 11.1622 22.2579 9.35333 22.2579 7.12991C22.2579 4.90649 20.449 3.09766 18.2256 3.09766C16.0023 3.09766 14.1934 4.90649 14.1934 7.12991C14.1934 9.35333 16.0023 11.1622 18.2256 11.1622ZM18.2256 4.0654C19.9154 4.0654 21.2901 5.44017 21.2901 7.12991C21.2901 8.81966 19.9154 10.1944 18.2256 10.1944C16.5359 10.1944 15.1611 8.81966 15.1611 7.12991C15.1611 5.44017 16.5359 4.0654 18.2256 4.0654Z" fill="white"/>
<path d="M23.4616 16.574C23.5569 16.6973 23.7001 16.762 23.8448 16.762C23.9481 16.762 24.0522 16.729 24.1404 16.661C24.3519 16.4976 24.3908 16.1937 24.2274 15.9822C22.7791 14.108 20.5915 13.0332 18.2257 13.0332C16.7067 13.0332 15.2409 13.4809 13.987 14.3281C13.7655 14.4777 13.7073 14.7785 13.8569 14.9999C14.0065 15.2215 14.3073 15.2797 14.5287 15.13C15.6221 14.3914 16.9005 14.0009 18.2257 14.0009C20.2895 14.0009 22.198 14.9388 23.4616 16.574Z" fill="white"/>
<path d="M7.58065 13.0332C3.40065 13.0332 0 16.4338 0 20.6138C0 20.8811 0.216645 21.0977 0.483871 21.0977C0.751097 21.0977 0.967742 20.8811 0.967742 20.6138C0.967742 16.9675 3.93426 14.0009 7.58065 14.0009C11.227 14.0009 14.1935 16.9675 14.1935 20.6138C14.1935 20.8811 14.4102 21.0977 14.6774 21.0977C14.9446 21.0977 15.1613 20.8811 15.1613 20.6138C15.1613 16.4338 11.7606 13.0332 7.58065 13.0332Z" fill="white"/>
<path d="M25.3224 17.5488C22.7433 17.5488 20.645 19.6471 20.645 22.2262C20.645 24.8054 22.7433 26.9037 25.3224 26.9037C27.9016 26.9037 29.9999 24.8054 29.9999 22.2262C29.9999 19.6471 27.9016 17.5488 25.3224 17.5488ZM25.3224 25.9359C23.2769 25.9359 21.6128 24.2718 21.6128 22.2262C21.6128 20.1807 23.2769 18.5166 25.3224 18.5166C27.368 18.5166 29.0321 20.1807 29.0321 22.2262C29.0321 24.2718 27.368 25.9359 25.3224 25.9359Z" fill="white"/>
<path d="M26.9353 21.7438H25.8062V20.6147C25.8062 20.3474 25.5896 20.1309 25.3224 20.1309C25.0551 20.1309 24.8385 20.3474 24.8385 20.6147V21.7438H23.7095C23.4422 21.7438 23.2256 21.9603 23.2256 22.2276C23.2256 22.4949 23.4422 22.7115 23.7095 22.7115H24.8385V23.8405C24.8385 24.1078 25.0551 24.3244 25.3224 24.3244C25.5896 24.3244 25.8062 24.1078 25.8062 23.8405V22.7115H26.9353C27.2025 22.7115 27.4191 22.4949 27.4191 22.2276C27.4191 21.9603 27.2025 21.7438 26.9353 21.7438Z" fill="white"/>
</svg>
