<svg width="25" height="23" viewBox="0 0 25 23" fill="none" xmlns="http://www.w3.org/2000/svg">
<path d="M23.5644 5.74377L25.0001 4.30747L20.7596 0.0654297L10.2038 10.6215C7.62874 9.00581 4.19255 9.31605 1.95191 11.5562C-0.650635 14.1592 -0.650635 18.3794 1.95191 20.9823C4.55473 23.5849 8.77435 23.5849 11.3772 20.9823C13.6174 18.7419 13.9278 15.3049 12.3121 12.7313L16.6973 8.34696L18.8296 10.479L20.3771 8.93044L18.963 7.51669L19.7265 6.75359L21.1399 8.16749L22.8015 6.50644L21.3879 5.09291L22.1504 4.32988L23.5644 5.74377ZM6.59751 20.5558L2.37875 16.3367L3.8142 14.9002L8.03353 19.1194L6.59751 20.5558Z" fill="white"/>
</svg>
