<svg width="122" height="80" viewBox="0 0 122 80" fill="none" xmlns="http://www.w3.org/2000/svg">
<g filter="url(#filter0_d_1_345)">
<path d="M46.435 50H53.095L41.8 18.545H34.465L23.17 50H29.785L31.855 44.015H44.365L46.435 50ZM42.655 38.975H33.565L38.11 25.835L42.655 38.975ZM63.6169 28.67V25.07H57.3169V61.88H63.6169V46.445C65.1469 48.47 67.9369 50.405 71.8519 50.405C78.2419 50.405 83.2369 45.23 83.2369 37.445C83.2369 29.66 78.2419 24.665 71.8519 24.665C67.9819 24.665 65.1019 26.555 63.6169 28.67ZM76.8019 37.445C76.8019 42.17 73.6069 44.87 70.1869 44.87C66.8119 44.87 63.6169 42.26 63.6169 37.535C63.6169 32.81 66.8119 30.2 70.1869 30.2C73.6069 30.2 76.8019 32.72 76.8019 37.445ZM94.115 28.67V25.07H87.815V61.88H94.115V46.445C95.645 48.47 98.435 50.405 102.35 50.405C108.74 50.405 113.735 45.23 113.735 37.445C113.735 29.66 108.74 24.665 102.35 24.665C98.48 24.665 95.6 26.555 94.115 28.67ZM107.3 37.445C107.3 42.17 104.105 44.87 100.685 44.87C97.31 44.87 94.115 42.26 94.115 37.535C94.115 32.81 97.31 30.2 100.685 30.2C104.105 30.2 107.3 32.72 107.3 37.445Z" fill="#0B0B45"/>
</g>
<g clip-path="url(#clip0_1_345)">
<path d="M12.0074 36.0498L10.0422 38.0206L12.0074 39.9935L13.9726 38.0206L12.0074 36.0498ZM10.7602 38.0206L12.0074 36.7684L13.2568 38.0206L12.0074 39.2749L10.7602 38.0206Z" fill="#171044"/>
<path d="M13.9575 31.4175C13.9599 29.438 13.2696 27.5206 12.0074 26C10.7484 27.5224 10.0593 29.4388 10.0593 31.4175C10.0593 33.3962 10.7484 35.3126 12.0074 36.835C13.2701 35.3146 13.9604 33.397 13.9575 31.4175ZM11.2059 30.6236L11.9924 29.1584L12.7982 30.6128V32.2114L12.0117 33.6766L11.2187 32.2308L11.2059 30.6236Z" fill="#171044"/>
<path d="M12.0075 35.8259C11.3657 34.87 10.94 33.7846 10.7603 32.646L12.0311 34.9417L13.2526 32.6654C13.0712 33.7972 12.6463 34.8758 12.0075 35.8259ZM11.9839 27.8934L10.7645 30.1696C10.9448 29.0385 11.3691 27.9606 12.0075 27.0112C12.6507 27.9667 13.0772 29.0522 13.2569 30.1912L11.9839 27.8934Z" fill="#171044"/>
<path d="M10.0593 44.5822C10.0563 46.5615 10.7457 48.4789 12.0074 49.9997C13.2677 48.4775 13.9576 46.5606 13.9576 44.5812C13.9576 42.6018 13.2677 40.6848 12.0074 39.1626C10.7453 40.684 10.0557 42.6023 10.0593 44.5822ZM12.8089 45.374L12.0224 46.8413L11.2187 45.3848L11.2059 43.7883L11.9924 42.321L12.7982 43.7776L12.8089 45.374Z" fill="#171044"/>
<path d="M12.0075 48.9889C11.3653 48.0332 10.9396 46.9477 10.7603 45.809L12.0311 48.1068L13.2526 45.8284C13.0716 46.9603 12.6467 48.0389 12.0075 48.9889ZM11.9839 41.052L10.7645 43.3283C10.9448 42.1972 11.3691 41.1193 12.0075 40.1699C12.65 41.1257 13.0764 42.2111 13.2569 43.3498L11.9839 41.052Z" fill="#171044"/>
<path d="M18.6037 36.0645C16.6322 36.061 14.7222 36.7532 13.2075 38.0202C14.7234 39.2853 16.6325 39.9779 18.6037 39.9779C20.575 39.9779 22.484 39.2853 23.9999 38.0202C22.485 36.7535 20.5752 36.0614 18.6037 36.0645ZM17.8129 38.8248L16.3514 38.0395L17.8022 37.2306L19.3945 37.2177L20.8539 38.0073L19.3966 38.8141L17.8129 38.8248Z" fill="#171044"/>
<path d="M22.1141 37.9971L19.8467 36.7728C20.9739 36.9542 22.0483 37.38 22.9948 38.0207C22.0422 38.6661 20.9603 39.0942 19.8253 39.275L22.1141 37.9971ZM17.3608 39.2707C16.2333 39.089 15.1589 38.6624 14.2126 38.0207C15.1653 37.3772 16.2462 36.9499 17.3801 36.7686L15.0913 38.0401L17.3608 39.2707Z" fill="#171044"/>
<path d="M5.39619 36.0645C3.42469 36.061 1.51468 36.7532 0 38.0202C1.51588 39.2853 3.42496 39.9779 5.39619 39.9779C7.36743 39.9779 9.27651 39.2853 10.7924 38.0202C9.27752 36.7535 7.36763 36.0614 5.39619 36.0645ZM4.6097 38.8248L3.14599 38.0395L4.5947 37.2306L6.18698 37.2177L7.6464 38.0073L6.19769 38.8162L4.6097 38.8248Z" fill="#171044"/>
<path d="M8.98156 37.9971L6.71421 36.7728C7.84155 36.9538 8.91594 37.3797 9.86235 38.0207C8.91031 38.6658 7.82922 39.0939 6.69492 39.275L8.98156 37.9971ZM4.22827 39.2707C3.10145 39.089 2.02777 38.6624 1.08228 38.0207C2.03473 37.3769 3.11571 36.9495 4.24971 36.7686L1.96093 38.0401L4.22827 39.2707Z" fill="#171044"/>
</g>
<defs>
<filter id="filter0_d_1_345" x="15.1699" y="18.5449" width="106.565" height="61.335" filterUnits="userSpaceOnUse" color-interpolation-filters="sRGB">
<feFlood flood-opacity="0" result="BackgroundImageFix"/>
<feColorMatrix in="SourceAlpha" type="matrix" values="0 0 0 0 0 0 0 0 0 0 0 0 0 0 0 0 0 0 127 0" result="hardAlpha"/>
<feOffset dy="10"/>
<feGaussianBlur stdDeviation="4"/>
<feComposite in2="hardAlpha" operator="out"/>
<feColorMatrix type="matrix" values="0 0 0 0 0 0 0 0 0 0 0 0 0 0 0 0 0 0 0.25 0"/>
<feBlend mode="normal" in2="BackgroundImageFix" result="effect1_dropShadow_1_345"/>
<feBlend mode="normal" in="SourceGraphic" in2="effect1_dropShadow_1_345" result="shape"/>
</filter>
<clipPath id="clip0_1_345">
<rect width="24" height="24" fill="white" transform="translate(0 26)"/>
</clipPath>
</defs>
</svg>
