<svg width="20" height="20" viewBox="0 0 20 20" fill="none" xmlns="http://www.w3.org/2000/svg">
<path d="M10 0.517578C4.47724 0.517578 0 4.53172 0 9.4831C0 11.3079 0.609655 13.0041 1.65379 14.4203C1.51655 16.0565 1.12207 18.361 0 19.4831C0 19.4831 3.42862 19.0021 5.75069 17.5996C5.7531 17.6007 5.75586 17.6017 5.75828 17.6028C6.71138 16.9817 7.66586 16.3421 7.86345 16.18C7.9669 16.0348 8.16655 15.991 8.32207 16.0845C8.42414 16.1459 8.48862 16.2579 8.49069 16.3769C8.49414 16.5914 8.48897 16.6472 6.56483 17.9014C7.63655 18.2531 8.79241 18.4486 10 18.4486C15.5228 18.4486 20 14.4345 20 9.4831C20 4.53172 15.5228 0.517578 10 0.517578Z" fill="#C8C8C8"/>
<path d="M10.3449 7.06856H5.17246C4.98212 7.06856 4.82764 6.91408 4.82764 6.72373C4.82764 6.53339 4.98212 6.37891 5.17246 6.37891H10.3449C10.5352 6.37891 10.6897 6.53339 10.6897 6.72373C10.6897 6.91408 10.5352 7.06856 10.3449 7.06856Z" fill="white"/>
<path d="M14.8276 9.82833H5.17246C4.98212 9.82833 4.82764 9.67384 4.82764 9.4835C4.82764 9.29315 4.98212 9.13867 5.17246 9.13867H14.8276C15.018 9.13867 15.1725 9.29315 15.1725 9.4835C15.1725 9.67384 15.018 9.82833 14.8276 9.82833Z" fill="white"/>
<path d="M14.8276 12.5861H5.17246C4.98212 12.5861 4.82764 12.4317 4.82764 12.2413C4.82764 12.051 4.98212 11.8965 5.17246 11.8965H14.8276C15.018 11.8965 15.1725 12.051 15.1725 12.2413C15.1725 12.4317 15.018 12.5861 14.8276 12.5861Z" fill="white"/>
</svg>
