<svg width="24" height="24" viewBox="0 0 24 24" fill="none" xmlns="http://www.w3.org/2000/svg">
<g clip-path="url(#clip0_88_15247)">
<path fill-rule="evenodd" clip-rule="evenodd" d="M24 3V7C24 7.26522 23.8946 7.51957 23.7071 7.70711C23.5196 7.89464 23.2652 8 23 8C22.7348 8 22.4804 7.89464 22.2929 7.70711C22.1054 7.51957 22 7.26522 22 7V3C21.9988 2.75296 21.9061 2.51511 21.74 2.33232C21.5738 2.14952 21.3458 2.0347 21.1 2.01C21.05 2.01 21.02 2 20.99 2H3C2.73607 2.00412 2.48411 2.11081 2.29746 2.29746C2.11081 2.48411 2.00412 2.73607 2 3V13C2.00412 13.2639 2.11081 13.5159 2.29746 13.7025C2.48411 13.8892 2.73607 13.9959 3 14H5V16.81L7.69 14.49L8.26 14H15C15.2652 14 15.5196 14.1054 15.7071 14.2929C15.8946 14.4804 16 14.7348 16 15C16 15.2652 15.8946 15.5196 15.7071 15.7071C15.5196 15.8946 15.2652 16 15 16H9L4.65 19.76C4.47032 19.9174 4.23884 20.0028 4 20C3.85532 19.999 3.71238 19.9684 3.58 19.91C3.40642 19.8297 3.25952 19.7012 3.15672 19.5399C3.05392 19.3787 2.99953 19.1913 3 19V16C2.20508 15.9976 1.4434 15.6808 0.881302 15.1187C0.319207 14.5566 0.00237409 13.7949 0 13L0 3C0.00237409 2.20508 0.319207 1.4434 0.881302 0.881302C1.4434 0.319207 2.20508 0.00237409 3 0L21 0C21.1003 0.00134985 21.2004 0.00802592 21.3 0.02C22.0391 0.0942846 22.7244 0.440157 23.2232 0.99066C23.722 1.54116 23.9988 2.25715 24 3Z" fill="white"/>
<path fill-rule="evenodd" clip-rule="evenodd" d="M24 11C24 11.2652 23.8946 11.5196 23.7071 11.7071C23.5196 11.8946 23.2652 12 23 12H20V15C20 15.2652 19.8946 15.5196 19.7071 15.7071C19.5196 15.8946 19.2652 16 19 16C18.7348 16 18.4804 15.8946 18.2929 15.7071C18.1054 15.5196 18 15.2652 18 15V12H15C14.7348 12 14.4804 11.8946 14.2929 11.7071C14.1054 11.5196 14 11.2652 14 11C14 10.7348 14.1054 10.4804 14.2929 10.2929C14.4804 10.1054 14.7348 10 15 10H18V7C18 6.73478 18.1054 6.48043 18.2929 6.29289C18.4804 6.10536 18.7348 6 19 6C19.2652 6 19.5196 6.10536 19.7071 6.29289C19.8946 6.48043 20 6.73478 20 7V10H23C23.2652 10 23.5196 10.1054 23.7071 10.2929C23.8946 10.4804 24 10.7348 24 11Z" fill="white"/>
</g>
<defs>
<clipPath id="clip0_88_15247">
<rect width="24" height="24" fill="white"/>
</clipPath>
</defs>
</svg>
