<svg width="35" height="35" viewBox="0 0 35 35" fill="none" xmlns="http://www.w3.org/2000/svg">
<path d="M24.2869 22.1069C26.335 22.1069 28.0008 20.1342 28.0008 17.7097V4.39762C28.0008 1.97292 26.335 0 24.2869 0H3.71328C1.66573 0 0 1.97292 0 4.39762V17.7097C0 20.1342 1.66573 22.1069 3.71328 22.1069H6.41581V26.7096C6.41581 27.2694 6.70052 27.7738 7.13714 27.9879C7.28185 28.0587 7.43363 28.093 7.584 28.093C7.88804 28.093 8.18701 27.9525 8.41057 27.6878L13.1233 22.1069H24.2869Z" fill="white"/>
<path d="M31.7493 11.5117H29.8704V17.7092C29.8704 21.3544 27.3658 24.3198 24.2871 24.3198H13.8979L11.7134 26.9069C11.9766 28.7189 13.3122 30.1023 14.9165 30.1023H23.9625L27.756 34.5946C27.9794 34.8593 28.2785 34.9999 28.5826 34.9999C28.7329 34.9999 28.8847 34.9652 29.0294 34.8944C29.4661 34.6802 29.7506 34.176 29.7506 33.6163V30.1022H31.7494C33.5419 30.1022 35.0001 28.3751 35.0001 26.2525V15.3609C35 13.2385 33.5418 11.5117 31.7493 11.5117Z" fill="white"/>
</svg>
