<svg width="30" height="30" viewBox="0 0 30 30" fill="none" xmlns="http://www.w3.org/2000/svg">
<path fill-rule="evenodd" clip-rule="evenodd" d="M16.25 24.9226V26.25H20V28.75H10V26.25H13.75V24.9226C8.81711 24.3075 5 20.0995 5 15V12.5H7.5V15C7.5 19.1421 10.8579 22.5 15 22.5C19.1421 22.5 22.5 19.1421 22.5 15V12.5H25V15C25 20.0995 21.1829 24.3075 16.25 24.9226ZM15 1.25C17.7614 1.25 20 3.48858 20 6.25V15C20 17.7614 17.7614 20 15 20C12.2386 20 10 17.7614 10 15V6.25C10 3.48858 12.2386 1.25 15 1.25ZM15 3.75C13.6193 3.75 12.5 4.86929 12.5 6.25V15C12.5 16.3807 13.6193 17.5 15 17.5C16.3807 17.5 17.5 16.3807 17.5 15V6.25C17.5 4.86929 16.3807 3.75 15 3.75Z" fill="white"/>
</svg>
