<svg width="24" height="24" viewBox="0 0 24 24" fill="none" xmlns="http://www.w3.org/2000/svg">
<g clip-path="url(#clip0_431_15109)">
<path d="M21.7691 0H5.90215C4.43206 0 3.23853 1.19346 3.23853 2.66361V4.42223H2.23085C1.86333 4.42223 1.56299 4.71859 1.56299 5.09009C1.56299 5.46158 1.86333 5.75403 2.23085 5.75403H3.2386V18.2421H2.23085C1.86333 18.2421 1.56299 18.5385 1.56299 18.9099C1.56299 19.2775 1.85941 19.5778 2.23085 19.5778H3.2386V21.3364C3.2386 22.8065 4.43206 24 5.90221 24H21.7692C22.1367 24 22.4371 23.7036 22.4371 23.3322V0.663946C22.441 0.296425 22.1367 0 21.7691 0ZM21.1012 6.25983H18.6194C18.2519 6.25983 17.9515 6.55619 17.9515 6.92769C17.9515 7.29521 18.2479 7.59555 18.6194 7.59555H21.1012V8.78112H19.8761C19.5086 8.78112 19.2083 9.07749 19.2083 9.44898C19.2083 9.8165 19.5046 10.1168 19.8761 10.1168H21.1012V22.6681H5.90215C5.1671 22.6681 4.57034 22.0674 4.57034 21.3363V19.5777H5.57809C5.94561 19.5777 6.24595 19.2813 6.24595 18.9098C6.24595 18.5423 5.94952 18.242 5.57809 18.242H4.57034V5.75397H5.57809C5.94561 5.75397 6.24595 5.45755 6.24595 5.08611C6.24595 4.71859 5.94952 4.41825 5.57809 4.41825H4.57034V2.65963C4.57034 1.92459 5.17102 1.32783 5.90215 1.32783H21.1052L21.1012 6.25983Z" fill="white"/>
<path d="M18.331 13.8704L17.098 12.6414C16.7344 12.2778 16.2523 12.0802 15.7385 12.0802C15.2248 12.0802 14.7426 12.2778 14.3791 12.6414C14.3791 12.6414 13.9404 13.0761 13.893 13.0761C13.6085 13.0761 13.0671 12.835 12.5336 12.3055C11.8657 11.6376 11.7155 11.0171 11.7551 10.9065L12.1977 10.4639C12.9486 9.713 12.9486 8.48793 12.1977 7.73706L10.9607 6.50404C10.2692 5.81246 8.9848 5.75316 8.23393 6.50404L7.51466 7.22331C5.96553 8.77244 6.97322 12.2028 9.8028 15.0323C11.6681 16.8976 13.9049 18.0516 15.6358 18.0516C16.442 18.0516 17.1296 17.7947 17.6118 17.3165L18.331 16.5972C19.0819 15.8464 19.0819 14.6292 18.331 13.8704ZM17.3825 15.6488L16.6633 16.3681C16.4301 16.6012 16.0863 16.7119 15.6318 16.7119C14.2605 16.7119 12.3399 15.6765 10.7432 14.0759C8.32862 11.6653 7.60146 9.02143 8.45901 8.1599L9.17828 7.44063C9.40355 7.21536 9.81454 7.23908 10.0161 7.44063L11.2491 8.67365C11.4823 8.9068 11.4823 9.28227 11.2491 9.51145L10.8065 9.95404C10.0794 10.6812 10.4113 12.0604 11.585 13.2381C12.3122 13.9652 13.1737 14.3999 13.885 14.3999C14.2802 14.3999 14.6201 14.2695 14.8691 14.0206L15.3116 13.578C15.5329 13.3567 15.9242 13.3567 16.1494 13.578L17.3825 14.811C17.6157 15.0441 17.6157 15.4156 17.3825 15.6488Z" fill="white"/>
</g>
<defs>
<clipPath id="clip0_431_15109">
<rect width="24" height="24" fill="white"/>
</clipPath>
</defs>
</svg>
