<svg width="25" height="25" viewBox="0 0 25 25" fill="none" xmlns="http://www.w3.org/2000/svg">
<path d="M15.634 6.84019C13.906 5.58155 11.1146 5.58155 9.3968 6.84019C7.67902 8.09882 7.68924 10.1449 9.41725 11.4035C11.1453 12.6622 13.9367 12.6622 15.6544 11.4035C17.3722 10.1385 17.362 8.09882 15.634 6.84019ZM14.8416 8.82173C14.6933 8.87982 14.545 8.94436 14.3968 9.00245C14.3047 9.03473 14.2485 9.04118 14.2076 9.01536C14.1872 8.996 14.1667 8.97018 14.1463 8.93145C14.0491 8.73136 13.9009 8.55709 13.7015 8.41509C13.6759 8.39573 13.6452 8.37636 13.6146 8.357C13.5481 8.31182 13.4868 8.27955 13.405 8.25373C13.1187 8.16982 12.863 8.30536 12.8988 8.53127C12.9142 8.64745 12.9653 8.75073 13.0266 8.86045C13.1289 9.04118 13.2414 9.22191 13.3129 9.41554C13.5532 10.0223 13.0317 10.6225 12.1933 10.6806C11.8917 10.7 11.6054 10.6548 11.3395 10.5451C11.2219 10.4999 11.135 10.4999 11.0481 10.5774C10.9612 10.6484 10.8641 10.7129 10.772 10.7774C10.6902 10.8355 10.6033 10.842 10.5215 10.7839C10.4602 10.7452 10.404 10.7 10.3426 10.6613C10.3017 10.629 10.2608 10.6032 10.2199 10.5709C10.133 10.5064 10.1432 10.4418 10.225 10.3773C10.2915 10.3256 10.3579 10.2804 10.4193 10.2288C10.5676 10.1191 10.5676 10.1126 10.4449 9.99C10.2915 9.83509 10.1534 9.67372 10.0665 9.493C10.0001 9.351 10.0154 9.31873 10.1943 9.24127C10.3273 9.18963 10.4551 9.13154 10.588 9.07991C10.6851 9.04118 10.7414 9.03473 10.7823 9.06054C10.8078 9.07991 10.8232 9.10573 10.8436 9.15091C10.9305 9.35745 11.0788 9.53818 11.2577 9.71245C11.2884 9.74472 11.3242 9.77054 11.3549 9.79636C11.452 9.86736 11.5645 9.919 11.6923 9.95772C12.0246 10.0545 12.3211 9.88672 12.2904 9.62209C12.2802 9.53172 12.2444 9.45427 12.1984 9.37036C12.0859 9.15736 11.9377 8.95727 11.861 8.73136C11.7383 8.36991 11.7945 8.04073 12.1882 7.78255C12.6381 7.49209 13.1391 7.47273 13.6708 7.65346C13.8906 7.73091 13.8855 7.73091 14.0542 7.60828C14.1105 7.56309 14.1667 7.52437 14.2229 7.48564C14.3508 7.39528 14.3968 7.39528 14.5246 7.48564C14.5655 7.51146 14.6013 7.54373 14.6422 7.56955C14.9131 7.76318 14.9131 7.76318 14.6473 7.96327C14.4581 8.09882 14.4581 8.09882 14.6166 8.26018C14.7393 8.38282 14.8364 8.51191 14.908 8.65391C14.9643 8.72491 14.9438 8.783 14.8416 8.82173ZM17.9397 13.0688C17.4642 13.4173 16.6923 13.4173 16.2117 13.0688C15.7362 12.7203 15.7311 12.1523 16.2066 11.8037C16.682 11.4552 17.454 11.4552 17.9346 11.8037C18.4152 12.1523 18.4203 12.7203 17.9397 13.0688ZM8.83954 6.43355C8.36409 6.7821 7.59211 6.7821 7.11154 6.43355C6.63097 6.08501 6.63097 5.51701 7.10642 5.16846C7.58188 4.81992 8.35386 4.81992 8.83443 5.16846C9.30989 5.51701 9.315 6.08501 8.83954 6.43355ZM24.4069 10.3644L10.7823 0.43084C9.99496 -0.143613 8.71684 -0.143613 7.93464 0.43084L0.628954 5.7881C-0.15325 6.36255 -0.148138 7.29846 0.639179 7.87291L14.2638 17.8064C15.0512 18.3809 16.3293 18.3809 17.1115 17.8064L24.4121 12.4492C25.1994 11.8747 25.1943 10.9388 24.4069 10.3644ZM17.2597 15.9153C17.1728 15.812 17.0706 15.7152 16.9479 15.6248C16.1503 15.0439 14.8569 15.0439 14.0645 15.6248C14.0031 15.67 13.952 15.7152 13.8958 15.7668L3.3181 8.05364C3.42035 8.002 3.51749 7.94391 3.60951 7.87937C4.40194 7.29846 4.39683 6.3561 3.59929 5.77519C3.51237 5.71064 3.42035 5.65255 3.32321 5.60737L7.68413 2.40593C7.75059 2.47693 7.82728 2.54147 7.91419 2.60602C8.71173 3.18692 10.0052 3.18692 10.7976 2.60602C10.8896 2.54147 10.9663 2.47047 11.0379 2.39302L21.6513 10.1255C21.5082 10.1901 21.3804 10.2611 21.2577 10.3514C20.4652 10.9324 20.4652 11.8812 21.2679 12.4621C21.3906 12.5524 21.5286 12.6234 21.6718 12.688L17.2597 15.9153ZM0.281308 9.8609C0.628954 9.635 1.16576 9.66727 1.49807 9.91254L15.7413 20.2914L23.4407 14.6373C23.773 14.392 24.32 14.392 24.6575 14.6373C24.9949 14.8825 24.9949 15.2827 24.6626 15.528L16.4775 21.5307C16.0788 21.8276 15.4244 21.8276 15.0205 21.5307L14.7342 21.3241L14.5348 21.1757L0.255746 10.771C-0.0919008 10.5193 -0.0867883 10.0997 0.281308 9.8609ZM24.6728 18.7746L16.4878 24.7773C16.089 25.0742 15.4346 25.0742 15.0307 24.7773L14.7495 24.5708L14.545 24.4223L0.26597 14.0176C-0.0816759 13.7659 -0.071451 13.3464 0.296645 13.1075C0.639179 12.8816 1.1811 12.9139 1.51341 13.1592L15.7516 23.5381L23.4509 17.8903C23.7883 17.6451 24.3303 17.6451 24.6677 17.8903C25.0051 18.1292 25.0102 18.5293 24.6728 18.7746Z" fill="white"/>
</svg>
