<svg width="30" height="18" viewBox="0 0 30 18" fill="none" xmlns="http://www.w3.org/2000/svg">
<path d="M29.5012 11.3893C27.8205 10.0041 26.0044 9.08681 25.635 8.90828C25.5919 8.88981 25.5673 8.84672 25.5673 8.79746V6.181C25.8936 5.95937 26.1152 5.58999 26.1152 5.15905V2.44408C26.1152 1.09584 25.0194 0 23.6711 0H23.3818H23.0924C21.7442 0 20.6483 1.09584 20.6483 2.44408V5.15905C20.6483 5.58384 20.8638 5.95937 21.1963 6.181V8.79746C21.1963 8.84672 21.1716 8.88365 21.1285 8.90828C20.9007 9.01909 20.1127 9.4131 19.1523 10.0287C20.1127 10.5582 21.6334 11.4693 23.0678 12.6514C23.5726 13.0638 23.905 13.6364 24.0282 14.2643H29.9998V12.4051C29.9814 12.0111 29.809 11.6356 29.5012 11.3893Z" fill="white"/>
<path d="M8.86518 8.90828C8.82208 8.88981 8.79746 8.84672 8.79746 8.79746V6.181C9.12374 5.95937 9.34537 5.58999 9.34537 5.15905V2.44408C9.34537 1.09584 8.24954 0 6.90129 0H6.61194H6.31028C4.96204 0 3.8662 1.09584 3.8662 2.44408V5.15905C3.8662 5.58384 4.08167 5.95937 4.41412 6.181V8.79746C4.41412 8.84672 4.38949 8.88365 4.3464 8.90828C3.97702 9.08681 2.16089 10.0041 0.480197 11.3893C0.178535 11.6417 0 12.0111 0 12.4051V14.2643H5.97168C6.08865 13.6364 6.42725 13.0638 6.93208 12.6514C8.36651 11.4693 9.88713 10.5582 10.8475 10.0287C9.88098 9.4131 9.09296 9.01909 8.86518 8.90828Z" fill="white"/>
<path d="M22.2925 13.5748C20.2855 11.9249 18.1246 10.8352 17.6813 10.6197C17.6321 10.5951 17.6013 10.5459 17.6013 10.4905V7.36918C17.9953 7.10445 18.2539 6.66119 18.2539 6.15637V2.91812C18.2539 1.30515 16.9487 0 15.3358 0H14.991H14.6401C13.0271 0 11.722 1.30515 11.722 2.91812V6.15637C11.722 6.66119 11.9805 7.11061 12.3745 7.36918V10.4905C12.3745 10.5459 12.3438 10.5951 12.2945 10.6197C11.8513 10.8352 9.69036 11.931 7.68338 13.5748C7.32016 13.8703 7.11084 14.3197 7.11084 14.7876V17.0039H13.9506L14.6278 13.9072C13.2611 12.0049 14.7324 11.9126 14.9848 11.9064C15.2434 11.9064 16.7086 11.9988 15.3419 13.9072L16.0191 17.0039H22.8589V14.7876C22.865 14.3197 22.6557 13.8703 22.2925 13.5748Z" fill="white"/>
</svg>
