<svg width="20" height="28" viewBox="0 0 20 28" fill="none" xmlns="http://www.w3.org/2000/svg">
<path fill-rule="evenodd" clip-rule="evenodd" d="M11.25 23.6726V25H15V27.5H5V25H8.75V23.6726C3.81711 23.0575 0 18.8495 0 13.75V11.25H2.5V13.75C2.5 17.8921 5.85786 21.25 10 21.25C14.1421 21.25 17.5 17.8921 17.5 13.75V11.25H20V13.75C20 18.8495 16.1829 23.0575 11.25 23.6726ZM10 0C12.7614 0 15 2.23858 15 5V13.75C15 16.5114 12.7614 18.75 10 18.75C7.23857 18.75 5 16.5114 5 13.75V5C5 2.23858 7.23857 0 10 0ZM10 2.5C8.61929 2.5 7.5 3.61929 7.5 5V13.75C7.5 15.1307 8.61929 16.25 10 16.25C11.3807 16.25 12.5 15.1307 12.5 13.75V5C12.5 3.61929 11.3807 2.5 10 2.5Z" fill="white"/>
<line x1="18.8181" y1="5.65618" x2="2.75483" y2="24.1289" stroke="white" stroke-width="2"/>
</svg>
