<svg width="30" height="34" viewBox="0 0 30 34" fill="none" xmlns="http://www.w3.org/2000/svg">
<line x1="5.87098" y1="0.508679" x2="23.9418" y2="32.5433" stroke="white" stroke-width="2"/>
<path d="M18.7649 30.7245L8.74756 23.5105H2.87087C1.27594 23.5105 0 22.1732 0 20.5108V11.3891C0 9.73282 1.27594 8.3894 2.87087 8.3894H8.74143L18.7649 1.23677C20.0961 0.506785 20.7893 1.64777 20.7463 2.19373V29.7001C20.8383 30.3074 19.8262 31.5526 18.7649 30.7245ZM2.87087 10.9413C2.6807 10.9413 2.55188 11.1314 2.55188 11.4504V20.5783C2.55188 20.836 2.74205 21.0875 2.87087 21.0875H9.12789C9.38553 21.0875 9.63704 21.1488 9.8272 21.3451L18.1883 27.3384V4.68427L9.8272 10.6836C9.63704 10.8125 9.3794 10.9413 9.12789 10.9413H2.87087Z" fill="white"/>
<path d="M27.3774 25.6205C26.7395 25.4303 26.2917 24.7923 26.4818 24.0869C28.7822 14.8976 26.5432 7.94132 26.4818 7.87997C26.2917 7.242 26.6106 6.54269 27.2486 6.28505C27.8866 6.09488 28.5859 6.41387 28.8435 7.05184C28.9724 7.37082 31.3341 14.775 28.8435 24.6635C28.7209 25.3015 28.0952 25.872 27.3774 25.6205Z" fill="white"/>
<path d="M23.6172 20.7678C22.9793 20.5776 22.5315 19.9396 22.7216 19.2342C23.6172 15.5965 22.783 12.787 22.7216 12.7257C22.5315 12.0877 22.8504 11.3884 23.5498 11.1307C24.1877 10.9406 24.887 11.2596 25.1447 11.8975C25.206 12.0264 26.2918 15.4064 25.1447 19.8108C25.0159 20.4488 24.427 20.9886 23.6172 20.7678Z" fill="white"/>
</svg>
