<svg width="110" height="120" viewBox="0 0 110 120" fill="none" xmlns="http://www.w3.org/2000/svg">
<path d="M49.2776 5.46253C49.4568 5.46253 49.602 5.30406 49.602 5.10859C49.602 4.91311 49.4568 4.75464 49.2776 4.75464C49.0984 4.75464 48.9531 4.91311 48.9531 5.10859C48.9531 5.30406 49.0984 5.46253 49.2776 5.46253Z" fill="white"/>
<path d="M50.2258 5.46253C50.405 5.46253 50.5503 5.30406 50.5503 5.10859C50.5503 4.91311 50.405 4.75464 50.2258 4.75464C50.0466 4.75464 49.9014 4.91311 49.9014 5.10859C49.9014 5.30406 50.0466 5.46253 50.2258 5.46253Z" fill="white"/>
<path d="M51.1721 5.46253C51.3513 5.46253 51.4966 5.30406 51.4966 5.10859C51.4966 4.91311 51.3513 4.75464 51.1721 4.75464C50.9929 4.75464 50.8477 4.91311 50.8477 5.10859C50.8477 5.30406 50.9929 5.46253 51.1721 5.46253Z" fill="white"/>
<path d="M52.1194 5.46253C52.2986 5.46253 52.4438 5.30406 52.4438 5.10859C52.4438 4.91311 52.2986 4.75464 52.1194 4.75464C51.9402 4.75464 51.7949 4.91311 51.7949 5.10859C51.7949 5.30406 51.9402 5.46253 52.1194 5.46253Z" fill="white"/>
<path d="M53.0676 5.46253C53.2468 5.46253 53.3921 5.30406 53.3921 5.10859C53.3921 4.91311 53.2468 4.75464 53.0676 4.75464C52.8884 4.75464 52.7432 4.91311 52.7432 5.10859C52.7432 5.30406 52.8884 5.46253 53.0676 5.46253Z" fill="white"/>
<path d="M54.0159 5.46253C54.195 5.46253 54.3403 5.30406 54.3403 5.10859C54.3403 4.91311 54.195 4.75464 54.0159 4.75464C53.8367 4.75464 53.6914 4.91311 53.6914 5.10859C53.6914 5.30406 53.8367 5.46253 54.0159 5.46253Z" fill="white"/>
<path d="M54.9631 5.46253C55.1423 5.46253 55.2876 5.30406 55.2876 5.10859C55.2876 4.91311 55.1423 4.75464 54.9631 4.75464C54.7839 4.75464 54.6387 4.91311 54.6387 5.10859C54.6387 5.30406 54.7839 5.46253 54.9631 5.46253Z" fill="white"/>
<path d="M55.9094 5.46253C56.0886 5.46253 56.2339 5.30406 56.2339 5.10859C56.2339 4.91311 56.0886 4.75464 55.9094 4.75464C55.7302 4.75464 55.585 4.91311 55.585 5.10859C55.585 5.30406 55.7302 5.46253 55.9094 5.46253Z" fill="white"/>
<path d="M56.8557 5.46253C57.0349 5.46253 57.1802 5.30406 57.1802 5.10859C57.1802 4.91311 57.0349 4.75464 56.8557 4.75464C56.6765 4.75464 56.5312 4.91311 56.5312 5.10859C56.5312 5.30406 56.6765 5.46253 56.8557 5.46253Z" fill="white"/>
<path d="M57.8088 5.46253C57.988 5.46253 58.1333 5.30406 58.1333 5.10859C58.1333 4.91311 57.988 4.75464 57.8088 4.75464C57.6296 4.75464 57.4844 4.91311 57.4844 5.10859C57.4844 5.30406 57.6296 5.46253 57.8088 5.46253Z" fill="white"/>
<path d="M58.7551 5.46253C58.9343 5.46253 59.0796 5.30406 59.0796 5.10859C59.0796 4.91311 58.9343 4.75464 58.7551 4.75464C58.5759 4.75464 58.4307 4.91311 58.4307 5.10859C58.4307 5.30406 58.5759 5.46253 58.7551 5.46253Z" fill="white"/>
<path d="M59.7014 5.46253C59.8806 5.46253 60.0259 5.30406 60.0259 5.10859C60.0259 4.91311 59.8806 4.75464 59.7014 4.75464C59.5222 4.75464 59.377 4.91311 59.377 5.10859C59.377 5.30406 59.5222 5.46253 59.7014 5.46253Z" fill="white"/>
<path d="M60.6487 5.46253C60.8279 5.46253 60.9731 5.30406 60.9731 5.10859C60.9731 4.91311 60.8279 4.75464 60.6487 4.75464C60.4695 4.75464 60.3242 4.91311 60.3242 5.10859C60.3242 5.30406 60.4695 5.46253 60.6487 5.46253Z" fill="white"/>
<path d="M61.5969 5.46253C61.7761 5.46253 61.9214 5.30406 61.9214 5.10859C61.9214 4.91311 61.7761 4.75464 61.5969 4.75464C61.4177 4.75464 61.2725 4.91311 61.2725 5.10859C61.2725 5.30406 61.4177 5.46253 61.5969 5.46253Z" fill="white"/>
<path d="M79.3794 0H30.6216C26.6805 0 23.4873 3.48371 23.4873 7.78286V112.217C23.4873 116.516 26.6807 120 30.6216 120H79.3776C83.3187 120 86.5119 116.516 86.5119 112.217V7.78286C86.5139 3.48371 83.3205 0 79.3794 0ZM74.3915 4.6218C74.826 4.6218 75.1796 5.00748 75.1796 5.48154C75.1796 5.95781 74.8242 6.34129 74.3915 6.34129C73.9549 6.34129 73.6034 5.9556 73.6034 5.48154C73.6014 5.00748 73.9549 4.6218 74.3915 4.6218ZM46.5613 3.87975H64.1816C64.8056 3.87975 65.3079 4.42984 65.3079 5.10622C65.3079 5.7848 64.8056 6.33269 64.1816 6.33269H46.5613C45.9372 6.33269 45.435 5.7826 45.435 5.10622C45.437 4.43006 45.9372 3.87975 46.5613 3.87975ZM39.3728 114.881H37.6381C37.5221 114.881 37.4294 114.778 37.4294 114.651C37.4294 114.527 37.5221 114.421 37.6381 114.421H39.3728C39.4906 114.421 39.5834 114.527 39.5834 114.651C39.5813 114.778 39.4886 114.881 39.3728 114.881ZM39.3728 113.958H37.6381C37.5221 113.958 37.4294 113.857 37.4294 113.73C37.4294 113.604 37.5221 113.5 37.6381 113.5H39.3728C39.4906 113.5 39.5834 113.604 39.5834 113.73C39.5813 113.857 39.4886 113.958 39.3728 113.958ZM40.8333 114.558C40.8333 114.83 40.6323 115.052 40.3832 115.052C40.1339 115.052 39.931 114.83 39.931 114.558V112.934H37.0777V114.558C37.0777 114.83 36.8768 115.052 36.6275 115.052C36.3784 115.052 36.1756 114.83 36.1756 114.558V112.442C36.1756 112.171 36.3784 111.949 36.6275 111.949H40.3832C40.6323 111.949 40.8333 112.171 40.8333 112.442V114.558ZM60.6484 114.407C60.6484 115.481 59.8486 116.352 58.8633 116.352H51.0605C50.0732 116.352 49.2755 115.481 49.2755 114.407V112.704C49.2755 111.629 50.0732 110.759 51.0605 110.759H58.8633C59.8486 110.759 60.6484 111.629 60.6484 112.704V114.407ZM72.2955 115.144H70.8793C70.6302 115.144 70.4292 114.923 70.4292 114.651C70.4292 114.379 70.63 114.16 70.8793 114.16H72.2955C72.6007 114.16 72.8478 113.901 72.8478 113.583C72.8478 113.264 72.6005 113.007 72.2955 113.007H71.1015C71.0571 113.075 71.0011 113.109 70.9007 113.117C70.8757 113.132 70.833 113.111 70.8023 113.096L70.0661 112.756C69.9773 112.714 69.9175 112.62 69.9175 112.514C69.9175 112.409 69.9754 112.312 70.0643 112.272L70.8005 111.932C70.8892 111.89 70.9957 111.913 71.0652 111.989C71.0749 112 71.0845 112.01 71.0922 112.023H72.2959C73.0977 112.023 73.7484 112.725 73.7484 113.585C73.748 114.445 73.0973 115.144 72.2955 115.144ZM81.7557 108.325H27.6484V12H81.7557V108.325Z" fill="white"/>
<path d="M52.431 26.0659H104.569C107.526 26.0659 110 28.1868 110 30.7211V61.4452C110 63.9795 107.526 66.1004 104.569 66.1004H74.5017L79.3233 61.2953C79.7144 60.9062 79.6633 60.3177 79.2082 59.9826C78.7531 59.6474 78.0666 59.6921 77.6756 60.0813L72.2467 65.4915L63.2931 73.9341V66.1004H61.1207H54.6034H52.431C49.4744 66.1004 47 63.9795 47 61.4452V30.7211C47 28.1868 49.4744 26.0659 52.431 26.0659Z" fill="white"/>
<path d="M67.179 41.42L68.679 44.12L64.779 45.53L68.679 46.94L67.119 49.73L63.879 47.06L64.569 51.2H61.449L62.109 47.06L58.899 49.79L57.249 46.91L61.149 45.5L57.279 44.15L58.809 41.39L62.139 44.03L61.449 39.86H64.599L63.879 44.03L67.179 41.42ZM82.7063 41.42L84.2063 44.12L80.3063 45.53L84.2063 46.94L82.6463 49.73L79.4063 47.06L80.0963 51.2H76.9763L77.6363 47.06L74.4263 49.79L72.7763 46.91L76.6763 45.5L72.8063 44.15L74.3363 41.39L77.6663 44.03L76.9763 39.86H80.1263L79.4063 44.03L82.7063 41.42ZM98.2337 41.42L99.7337 44.12L95.8337 45.53L99.7337 46.94L98.1737 49.73L94.9337 47.06L95.6237 51.2H92.5037L93.1637 47.06L89.9537 49.79L88.3037 46.91L92.2037 45.5L88.3337 44.15L89.8637 41.39L93.1937 44.03L92.5037 39.86H95.6537L94.9337 44.03L98.2337 41.42Z" fill="#0B0B45"/>
</svg>
