<svg width="25" height="25" viewBox="0 0 25 25" fill="none" xmlns="http://www.w3.org/2000/svg">
<path d="M3.60932 1.95902C3.58057 2.01177 3.58532 2.56677 3.61407 3.34677C3.66182 4.72977 3.65707 4.79677 3.44657 4.79677C3.39882 4.79677 3.22657 4.72977 3.07332 4.65327C2.75282 4.49052 2.59482 4.51452 2.59482 4.71552C2.59482 4.77302 2.72407 5.41902 2.88182 6.15102L3.16882 7.48602V8.73502V9.98877L3.36032 10.5535C3.79582 11.8503 4.48032 12.7928 5.42757 13.4053L5.73857 13.6063L5.70032 13.8073C5.68107 13.9173 5.66207 14.0225 5.65732 14.0418C5.65732 14.0658 5.42757 14.08 5.14532 14.08C4.85832 14.08 4.48507 14.1135 4.30307 14.1518C3.87707 14.2428 3.35557 14.5203 3.05407 14.8218C2.71907 15.1473 0.742818 17.7648 0.546568 18.1333C0.460318 18.296 0.359818 18.5783 0.321568 18.7553C0.225818 19.1955 0.225818 20.6405 0.321568 21.0808C0.474818 21.8178 1.02032 22.5163 1.69482 22.8513C1.89107 22.947 2.07757 23.0283 2.10632 23.0283C2.14932 23.0283 2.16382 22.7938 2.16382 22.1525C2.16382 21.674 2.18782 21.2003 2.21157 21.1045C2.28332 20.8463 2.50357 20.6835 2.78107 20.6835C2.90557 20.6835 3.04907 20.717 3.11132 20.76C3.33632 20.918 3.36007 21.0375 3.36007 22.119V23.124H7.45132H11.5426V22.167C11.5426 21.119 11.5713 20.9708 11.8058 20.7888C11.9638 20.6643 12.2461 20.65 12.4518 20.7553C12.7151 20.8893 12.7388 21.0088 12.7388 22.119C12.7388 23.2628 12.6958 23.1765 13.1838 23.0473C13.6048 22.9373 13.9828 22.7315 14.3083 22.43L14.5953 22.1668H16.8731H19.1508V21.4538C19.1508 21.0663 19.1748 20.6785 19.2033 20.5973C19.3086 20.291 19.6866 20.2 19.9258 20.4298L20.0598 20.559V21.3438V22.1333L20.2703 22.1093C20.8111 22.047 21.4331 21.5733 21.6963 21.023C21.8351 20.7358 21.8496 20.6545 21.8686 20.152L21.8878 19.597L21.5576 19.5683C20.0598 19.4295 18.5908 18.4533 17.8251 17.0943C16.9446 15.5343 17.0163 13.577 18.0068 12.0745C18.3526 11.5535 18.8551 11.0318 19.3096 10.7305L19.6348 10.5153L19.6158 9.72577C19.6016 9.05102 19.5823 8.89802 19.4913 8.65877C19.2903 8.14677 18.9171 7.77352 18.3811 7.55827C18.1418 7.46252 18.0221 7.45302 16.8018 7.43852L15.4811 7.41927L15.1796 7.04127C14.8588 6.63927 14.7346 6.58177 14.6436 6.78277C14.5383 7.01727 14.4426 6.98377 13.8876 6.51952C13.5096 6.20852 13.3278 6.08877 13.2511 6.09852L13.1458 6.11277L13.1651 7.17502C13.1841 8.39052 13.1891 8.38577 12.8061 8.19902C12.3418 7.97402 12.3228 8.03627 12.5573 9.07952C12.7438 9.91227 12.7536 9.97902 12.7871 11.1133C12.8206 12.276 12.8206 12.2905 12.9738 12.7163C13.3376 13.7163 13.8208 14.3528 14.6486 14.8935C14.7396 14.9558 14.7538 14.994 14.7251 15.1375L14.6916 15.3145L14.1508 15.3338C13.6388 15.353 13.5861 15.3625 13.2416 15.5348C13.0406 15.6353 12.8683 15.707 12.8636 15.6975C12.7488 15.53 12.1506 14.8458 11.9878 14.7023C11.5381 14.3098 10.8728 14.085 10.1503 14.0803H9.78182L9.72907 13.8698C9.64782 13.549 9.65732 13.5253 9.89657 13.3865C10.1838 13.219 10.7771 12.6495 11.0691 12.2715C11.3853 11.8503 11.7011 11.2233 11.9261 10.5533L12.1176 9.98852V7.83527V5.68202L11.9978 5.35177C11.7393 4.61477 11.1988 4.07402 10.4473 3.81102C10.1411 3.70102 10.0883 3.69627 8.42782 3.69627H6.72432L6.30332 3.17002C5.95407 2.72977 5.85832 2.64352 5.75307 2.64352C5.65257 2.64352 5.60957 2.67702 5.56157 2.78702C5.48032 2.98802 5.34632 3.05502 5.21232 2.96402C5.15482 2.92577 4.82957 2.66727 4.48982 2.38502C3.86782 1.86827 3.69532 1.78677 3.60932 1.95902Z" fill="white"/>
<path d="M20.5824 12.6448C20.1327 12.9463 18.4149 14.3006 18.3239 14.4201C18.2762 14.4918 18.2234 14.6451 18.2092 14.7598C18.1662 15.1426 18.2474 15.2336 19.5489 16.2288C20.1997 16.7266 20.7979 17.1476 20.8744 17.1668C21.0707 17.2098 21.3099 17.1238 21.4774 16.9468C21.6067 16.8081 21.6162 16.7746 21.6402 16.2913L21.6642 15.7793L22.9562 15.7553C24.1094 15.7363 24.2624 15.7218 24.3774 15.6406C24.7889 15.3631 24.8799 14.5733 24.5496 14.1956C24.4684 14.1046 24.3581 14.0041 24.3009 13.9706C24.2339 13.9323 23.7984 13.9036 22.9324 13.8893L21.6644 13.8653L21.6404 13.3868C21.6262 13.1236 21.5879 12.8606 21.5592 12.8031C21.3624 12.4678 20.9462 12.4008 20.5824 12.6448Z" fill="white"/>
</svg>
