<svg width="25" height="25" viewBox="0 0 25 25" fill="none" xmlns="http://www.w3.org/2000/svg">
<path fill-rule="evenodd" clip-rule="evenodd" d="M16.6667 9.37565C16.6667 11.6768 14.8011 13.5423 12.5 13.5423C10.1988 13.5423 8.33334 11.6768 8.33334 9.37565C8.33334 7.07446 10.1988 5.20898 12.5 5.20898C14.8011 5.20898 16.6667 7.07446 16.6667 9.37565ZM14.5833 9.37565C14.5833 10.5263 13.6506 11.459 12.5 11.459C11.3494 11.459 10.4167 10.5263 10.4167 9.37565C10.4167 8.22506 11.3494 7.29232 12.5 7.29232C13.6506 7.29232 14.5833 8.22506 14.5833 9.37565Z" fill="white"/>
<path fill-rule="evenodd" clip-rule="evenodd" d="M12.5 1.04102C6.17174 1.04102 1.04167 6.17109 1.04167 12.4993C1.04167 18.8276 6.17174 23.9577 12.5 23.9577C18.8282 23.9577 23.9583 18.8276 23.9583 12.4993C23.9583 6.17109 18.8282 1.04102 12.5 1.04102ZM3.125 12.4993C3.125 14.6766 3.86724 16.6806 5.11248 18.272C6.82547 16.0295 9.52737 14.5827 12.5672 14.5827C15.5675 14.5827 18.2388 15.9922 19.9547 18.1851C21.1594 16.608 21.875 14.6373 21.875 12.4993C21.875 7.32168 17.6777 3.12435 12.5 3.12435C7.32233 3.12435 3.125 7.32168 3.125 12.4993ZM12.5 21.8743C10.2602 21.8743 8.2038 21.0888 6.59132 19.7783C7.90992 17.8964 10.0949 16.666 12.5672 16.666C15.0088 16.666 17.1701 17.8661 18.4935 19.7086C16.8686 21.0609 14.7793 21.8743 12.5 21.8743Z" fill="white"/>
</svg>
