<svg width="150" height="150" viewBox="0 0 150 150" fill="none" xmlns="http://www.w3.org/2000/svg">
<path d="M75 0.00390625C33.583 0.00390625 0 33.5803 0 75.0006C0 116.421 33.5797 149.997 75 149.997C116.424 149.997 150 116.421 150 75.0006C150 33.5803 116.424 0.00390625 75 0.00390625ZM75 22.4288C88.7046 22.4288 99.81 33.5375 99.81 47.2355C99.81 60.9369 88.7046 72.0423 75 72.0423C61.3019 72.0423 50.1966 60.9369 50.1966 47.2355C50.1966 33.5375 61.3019 22.4288 75 22.4288ZM74.9835 130.389C61.3151 130.389 48.7964 125.411 39.1406 117.172C36.7884 115.166 35.4311 112.224 35.4311 109.137C35.4311 95.2446 46.6749 84.1261 60.5706 84.1261H89.436C103.335 84.1261 114.536 95.2446 114.536 109.137C114.536 112.227 113.185 115.162 110.83 117.169C101.177 125.411 88.6552 130.389 74.9835 130.389Z" fill="#C1C1CF"/>
</svg>
