<svg width="35" height="35" viewBox="0 0 35 35" fill="none" xmlns="http://www.w3.org/2000/svg">
<path d="M31.8431 10.9104L32.6725 8.70081L30.3438 8.31465L30.7417 5.9883L28.3815 6.04891L28.3301 3.68991L26.0247 4.19632L25.5278 1.88855L23.3614 2.82178L22.4362 0.64951L20.4855 1.97712L19.1661 0.0195312L17.5 1.69244L15.8339 0.0195312L14.5157 1.97732L12.5638 0.649706L11.6397 2.82198L9.47217 1.88855L8.97632 4.19612L6.67089 3.68972L6.61947 6.04872L4.2593 5.9881L4.65602 8.31445L2.32732 8.70061L3.15674 10.9102L0.943795 11.7306L2.17579 13.7432L0.157592 14.967L1.75014 16.711L0 18.2954L1.89228 19.7059L0.47356 21.5911L2.59813 22.6178L1.56224 24.7377L3.8442 25.3456L3.22928 27.6229L5.58358 27.7861L5.40976 30.1416L7.75351 29.8557L8.02881 32.2007L10.2746 31.4762L10.9887 33.7267L13.0571 32.5903L14.1841 34.6647L16.0017 33.1574L17.5008 34.9796L18.9999 33.1574L20.8175 34.6647L21.9456 32.5903L24.0129 33.7267L24.727 31.4762L26.9728 32.1995L27.2469 29.8546L29.5918 30.1404L29.418 27.7849L31.7735 27.6217L31.1585 25.3444L33.4405 24.7365L32.4044 22.6167L34.5278 21.59L33.1067 19.7047L34.999 18.2954L33.2491 16.7122L34.8416 14.9681L32.8232 13.7444L34.0564 11.7318L31.8431 10.9104ZM22.26 25.6606C21.7036 25.9265 21.1178 26.0585 20.4937 26.0585C20.0387 26.0585 19.2746 25.8858 18.1988 25.5347C17.1265 25.1847 16.2786 25.0108 15.6531 25.0108C15.0755 25.0108 14.5296 25.1088 14.014 25.3073C13.7107 25.4287 13.3187 25.6328 12.8414 25.921L11.7133 24.3052C12.5708 23.7044 13.2626 23.0429 13.7864 22.3171C14.3102 21.5927 14.5716 20.8051 14.5716 19.9569C14.5716 19.7131 14.5226 19.4284 14.4223 19.1029C14.3628 18.8976 14.2613 18.6176 14.1155 18.2594H11.5991V17.0741H13.3875C13.3875 17.1126 13.2604 16.8747 13.0072 16.3636C12.7505 15.8515 12.5826 15.4769 12.4985 15.2413C12.4226 15.0219 12.3561 14.7654 12.3037 14.4725C12.2512 14.1808 12.2267 13.8669 12.2267 13.5334C12.2267 12.3493 12.7085 11.2888 13.6722 10.3495C14.636 9.41271 16.0183 8.94365 17.815 8.94365C19.509 8.94365 20.7889 9.40684 21.6592 10.3321C22.5271 11.2596 22.9741 12.5685 22.9974 14.2613H20.8951C20.8951 13.1146 20.6268 12.2441 20.0913 11.6479C19.5557 11.0518 18.7426 10.7542 17.647 10.7542C16.5865 10.7542 15.7804 11.033 15.2354 11.5907C14.6895 12.1495 14.4152 12.8273 14.4152 13.6229C14.4152 14.0173 14.4993 14.4256 14.6719 14.8409C14.8434 15.2585 15.2051 16.0029 15.7581 17.0728H19.4949V18.2592H16.2703C16.3462 18.608 16.4033 18.881 16.4371 19.0771C16.471 19.2753 16.4886 19.4808 16.4886 19.692C16.4886 20.4502 16.2621 21.2005 15.806 21.9413C15.3498 22.6822 14.6358 23.416 13.664 24.1451C14.1878 23.8792 14.7046 23.6701 15.2133 23.5139C15.7209 23.3587 16.2189 23.2795 16.7044 23.2795C17.2503 23.2795 17.9738 23.4136 18.8732 23.6854C19.7726 23.9536 20.3619 24.0913 20.6431 24.0913C21.0024 24.0913 21.3291 24.0213 21.6242 23.886C21.8051 23.8019 22.0862 23.6258 22.4548 23.3622L23.4009 24.8974C22.9729 25.2382 22.5924 25.4938 22.26 25.6606Z" fill="white"/>
</svg>
