<svg width="25" height="25" viewBox="0 0 25 25" fill="none" xmlns="http://www.w3.org/2000/svg">
<path d="M12.5 2.08333C18.2437 2.08333 22.9167 6.75625 22.9167 12.5C22.9167 18.2437 18.2437 22.9167 12.5 22.9167C6.75625 22.9167 2.08333 18.2437 2.08333 12.5C2.08333 6.75625 6.75625 2.08333 12.5 2.08333ZM12.5 0C5.59687 0 0 5.59687 0 12.5C0 19.4031 5.59687 25 12.5 25C19.4031 25 25 19.4031 25 12.5C25 5.59687 19.4031 0 12.5 0Z" fill="white"/>
<path d="M12.5002 20.8333C13.0755 20.8333 13.5418 20.367 13.5418 19.7917C13.5418 19.2164 13.0755 18.75 12.5002 18.75C11.9249 18.75 11.4585 19.2164 11.4585 19.7917C11.4585 20.367 11.9249 20.8333 12.5002 20.8333Z" fill="white"/>
<path d="M17.7082 9.37532C17.7082 11.8962 15.9165 14.0003 13.5415 14.4795V16.667C13.5415 17.2399 13.0728 17.7087 12.4998 17.7087C11.9269 17.7087 11.4582 17.2399 11.4582 16.667V13.542C11.4582 12.9691 11.9269 12.5003 12.4998 12.5003C14.2186 12.5003 15.6248 11.0941 15.6248 9.37532C15.6248 7.65657 14.2186 6.25033 12.4998 6.25033C10.7811 6.25033 9.37484 7.65657 9.37484 9.37532C9.37484 9.94824 8.90609 10.417 8.33317 10.417C7.76025 10.417 7.2915 9.94824 7.2915 9.37532C7.2915 6.50033 9.62484 4.16699 12.4998 4.16699C15.3748 4.16699 17.7082 6.50033 17.7082 9.37532Z" fill="white"/>
</svg>
