<svg width="83" height="33" viewBox="0 0 83 33" fill="none" xmlns="http://www.w3.org/2000/svg">
<g filter="url(#filter0_d_1575_2511)">
<rect x="4" width="75" height="25" rx="10" fill="#E32525"/>
<path d="M27.232 17L25.312 13.664H24.268V17H22.9V8.66H25.78C26.42 8.66 26.96 8.772 27.4 8.996C27.848 9.22 28.18 9.52 28.396 9.896C28.62 10.272 28.732 10.692 28.732 11.156C28.732 11.7 28.572 12.196 28.252 12.644C27.94 13.084 27.456 13.384 26.8 13.544L28.864 17H27.232ZM24.268 12.572H25.78C26.292 12.572 26.676 12.444 26.932 12.188C27.196 11.932 27.328 11.588 27.328 11.156C27.328 10.724 27.2 10.388 26.944 10.148C26.688 9.9 26.3 9.776 25.78 9.776H24.268V12.572ZM36.542 13.532C36.542 13.78 36.526 14.004 36.494 14.204H31.442C31.482 14.732 31.678 15.156 32.03 15.476C32.382 15.796 32.814 15.956 33.326 15.956C34.062 15.956 34.582 15.648 34.886 15.032H36.362C36.162 15.64 35.798 16.14 35.27 16.532C34.75 16.916 34.102 17.108 33.326 17.108C32.694 17.108 32.126 16.968 31.622 16.688C31.126 16.4 30.734 16 30.446 15.488C30.166 14.968 30.026 14.368 30.026 13.688C30.026 13.008 30.162 12.412 30.434 11.9C30.714 11.38 31.102 10.98 31.598 10.7C32.102 10.42 32.678 10.28 33.326 10.28C33.95 10.28 34.506 10.416 34.994 10.688C35.482 10.96 35.862 11.344 36.134 11.84C36.406 12.328 36.542 12.892 36.542 13.532ZM35.114 13.1C35.106 12.596 34.926 12.192 34.574 11.888C34.222 11.584 33.786 11.432 33.266 11.432C32.794 11.432 32.39 11.584 32.054 11.888C31.718 12.184 31.518 12.588 31.454 13.1H35.114ZM38.5843 9.512C38.3363 9.512 38.1283 9.428 37.9603 9.26C37.7923 9.092 37.7083 8.884 37.7083 8.636C37.7083 8.388 37.7923 8.18 37.9603 8.012C38.1283 7.844 38.3363 7.76 38.5843 7.76C38.8243 7.76 39.0283 7.844 39.1963 8.012C39.3643 8.18 39.4483 8.388 39.4483 8.636C39.4483 8.884 39.3643 9.092 39.1963 9.26C39.0283 9.428 38.8243 9.512 38.5843 9.512ZM39.2563 18.296C39.2563 18.944 39.0923 19.412 38.7643 19.7C38.4443 19.996 37.9763 20.144 37.3603 20.144H36.6523V18.992H37.1203C37.4003 18.992 37.5963 18.936 37.7083 18.824C37.8283 18.72 37.8883 18.544 37.8883 18.296V10.388H39.2563V18.296ZM47.1123 13.532C47.1123 13.78 47.0963 14.004 47.0643 14.204H42.0123C42.0523 14.732 42.2483 15.156 42.6003 15.476C42.9523 15.796 43.3843 15.956 43.8963 15.956C44.6323 15.956 45.1523 15.648 45.4563 15.032H46.9323C46.7323 15.64 46.3683 16.14 45.8403 16.532C45.3203 16.916 44.6723 17.108 43.8963 17.108C43.2643 17.108 42.6963 16.968 42.1923 16.688C41.6963 16.4 41.3043 16 41.0163 15.488C40.7363 14.968 40.5963 14.368 40.5963 13.688C40.5963 13.008 40.7323 12.412 41.0043 11.9C41.2843 11.38 41.6723 10.98 42.1683 10.7C42.6723 10.42 43.2483 10.28 43.8963 10.28C44.5203 10.28 45.0763 10.416 45.5643 10.688C46.0523 10.96 46.4323 11.344 46.7043 11.84C46.9763 12.328 47.1123 12.892 47.1123 13.532ZM45.6843 13.1C45.6763 12.596 45.4963 12.192 45.1443 11.888C44.7923 11.584 44.3563 11.432 43.8363 11.432C43.3643 11.432 42.9603 11.584 42.6243 11.888C42.2883 12.184 42.0883 12.588 42.0243 13.1H45.6843ZM48.0026 13.688C48.0026 13.008 48.1386 12.412 48.4106 11.9C48.6906 11.38 49.0746 10.98 49.5626 10.7C50.0506 10.42 50.6106 10.28 51.2426 10.28C52.0426 10.28 52.7026 10.472 53.2226 10.856C53.7506 11.232 54.1066 11.772 54.2906 12.476H52.8146C52.6946 12.148 52.5026 11.892 52.2386 11.708C51.9746 11.524 51.6426 11.432 51.2426 11.432C50.6826 11.432 50.2346 11.632 49.8986 12.032C49.5706 12.424 49.4066 12.976 49.4066 13.688C49.4066 14.4 49.5706 14.956 49.8986 15.356C50.2346 15.756 50.6826 15.956 51.2426 15.956C52.0346 15.956 52.5586 15.608 52.8146 14.912H54.2906C54.0986 15.584 53.7386 16.12 53.2106 16.52C52.6826 16.912 52.0266 17.108 51.2426 17.108C50.6106 17.108 50.0506 16.968 49.5626 16.688C49.0746 16.4 48.6906 16 48.4106 15.488C48.1386 14.968 48.0026 14.368 48.0026 13.688ZM57.2499 11.504V15.164C57.2499 15.412 57.3059 15.592 57.4179 15.704C57.5379 15.808 57.7379 15.86 58.0179 15.86H58.8579V17H57.7779C57.1619 17 56.6899 16.856 56.3619 16.568C56.0339 16.28 55.8699 15.812 55.8699 15.164V11.504H55.0899V10.388H55.8699V8.744H57.2499V10.388H58.8579V11.504H57.2499Z" fill="white"/>
</g>
<defs>
<filter id="filter0_d_1575_2511" x="0" y="0" width="83" height="33" filterUnits="userSpaceOnUse" color-interpolation-filters="sRGB">
<feFlood flood-opacity="0" result="BackgroundImageFix"/>
<feColorMatrix in="SourceAlpha" type="matrix" values="0 0 0 0 0 0 0 0 0 0 0 0 0 0 0 0 0 0 127 0" result="hardAlpha"/>
<feOffset dy="4"/>
<feGaussianBlur stdDeviation="2"/>
<feComposite in2="hardAlpha" operator="out"/>
<feColorMatrix type="matrix" values="0 0 0 0 0 0 0 0 0 0 0 0 0 0 0 0 0 0 0.25 0"/>
<feBlend mode="normal" in2="BackgroundImageFix" result="effect1_dropShadow_1575_2511"/>
<feBlend mode="normal" in="SourceGraphic" in2="effect1_dropShadow_1575_2511" result="shape"/>
</filter>
</defs>
</svg>
