<svg width="84" height="84" viewBox="0 0 84 84" fill="none" xmlns="http://www.w3.org/2000/svg">
<g filter="url(#filter0_d_88_14912)">
<circle cx="42" cy="38" r="34" fill="white"/>
</g>
<path d="M51.4615 38.3089C51.436 38.2474 51.3995 38.1924 51.353 38.1459L43.3535 30.1464C43.158 29.9509 42.842 29.9509 42.6465 30.1464C42.451 30.3419 42.451 30.6579 42.6465 30.8534L49.793 37.9999H28.5C28.2235 37.9999 28 38.2239 28 38.4999C28 38.7759 28.2235 38.9999 28.5 38.9999H49.793L42.6465 46.1464C42.451 46.3419 42.451 46.6579 42.6465 46.8534C42.744 46.9509 42.872 46.9999 43 46.9999C43.128 46.9999 43.256 46.9509 43.3535 46.8534L51.353 38.8539C51.3995 38.8079 51.436 38.7524 51.4615 38.6909C51.512 38.5689 51.512 38.4309 51.4615 38.3089Z" fill="#0B0B45"/>
<path d="M54.5 30C54.2235 30 54 30.224 54 30.5V46.5C54 46.776 54.2235 47 54.5 47C54.7765 47 55 46.776 55 46.5V30.5C55 30.224 54.7765 30 54.5 30Z" fill="#0B0B45"/>
<defs>
<filter id="filter0_d_88_14912" x="0" y="0" width="84" height="84" filterUnits="userSpaceOnUse" color-interpolation-filters="sRGB">
<feFlood flood-opacity="0" result="BackgroundImageFix"/>
<feColorMatrix in="SourceAlpha" type="matrix" values="0 0 0 0 0 0 0 0 0 0 0 0 0 0 0 0 0 0 127 0" result="hardAlpha"/>
<feOffset dy="4"/>
<feGaussianBlur stdDeviation="4"/>
<feColorMatrix type="matrix" values="0 0 0 0 0 0 0 0 0 0 0 0 0 0 0 0 0 0 0.2 0"/>
<feBlend mode="multiply" in2="BackgroundImageFix" result="effect1_dropShadow_88_14912"/>
<feBlend mode="normal" in="SourceGraphic" in2="effect1_dropShadow_88_14912" result="shape"/>
</filter>
</defs>
</svg>
