<svg width="20" height="20" viewBox="0 0 20 20" fill="none" xmlns="http://www.w3.org/2000/svg">
<g clip-path="url(#clip0_1545_1689)">
<path d="M14.1538 17.0833L14.1668 10H13.7502C13.3335 11.25 12.0835 11.6667 11.4646 11.6667M0.833496 19.1667H19.1668V3.33333H0.833496V19.1667ZM15.0002 3.33333V0V3.33333ZM5.00016 3.33333V0V3.33333ZM0.833496 7.08333H19.1668H0.833496ZM5.00016 11.6667C5.46386 10.5556 6.1583 10 7.0835 10C8.16668 10 8.75016 10.8333 8.75016 11.6667C8.75016 12.5 7.91683 13.3333 7.0835 14.1667C6.76191 14.4882 6.20636 15.0438 5.41683 15.8333V16.25H9.92064L5.00016 11.6667Z" stroke="white" stroke-width="2"/>
</g>
<defs>
<clipPath id="clip0_1545_1689">
<rect width="20" height="20" rx="3" fill="white"/>
</clipPath>
</defs>
</svg>
