<svg width="20" height="20" viewBox="0 0 20 20" fill="none" xmlns="http://www.w3.org/2000/svg">
<path d="M4.16675 5C4.38777 5 4.59973 5.0878 4.75601 5.24408C4.91229 5.40036 5.00009 5.61232 5.00009 5.83333V9.16667C5.00009 9.38768 5.08788 9.59964 5.24416 9.75592C5.40044 9.9122 5.61241 10 5.83342 10H13.8251L12.7418 8.925C12.5848 8.76808 12.4967 8.55525 12.4967 8.33333C12.4967 8.11142 12.5848 7.89859 12.7418 7.74167C12.8987 7.58475 13.1115 7.49659 13.3334 7.49659C13.5553 7.49659 13.7682 7.58475 13.9251 7.74167L16.4251 10.2417C16.501 10.3209 16.5604 10.4144 16.6001 10.5167C16.6834 10.7196 16.6834 10.9471 16.6001 11.15C16.5604 11.2523 16.501 11.3457 16.4251 11.425L13.9251 13.925C13.8476 14.0031 13.7554 14.0651 13.6539 14.1074C13.5524 14.1497 13.4434 14.1715 13.3334 14.1715C13.2234 14.1715 13.1145 14.1497 13.0129 14.1074C12.9114 14.0651 12.8192 14.0031 12.7418 13.925C12.6636 13.8475 12.6017 13.7554 12.5593 13.6538C12.517 13.5523 12.4953 13.4433 12.4953 13.3333C12.4953 13.2233 12.517 13.1144 12.5593 13.0129C12.6017 12.9113 12.6636 12.8191 12.7418 12.7417L13.8251 11.6667H5.83342C5.17038 11.6667 4.53449 11.4033 4.06565 10.9344C3.59681 10.4656 3.33342 9.82971 3.33342 9.16667V5.83333C3.33342 5.61232 3.42122 5.40036 3.5775 5.24408C3.73378 5.0878 3.94574 5 4.16675 5Z" fill="white"/>
</svg>
