<svg width="25" height="25" viewBox="0 0 25 25" fill="none" xmlns="http://www.w3.org/2000/svg">
<g clip-path="url(#clip0_1439_1868)">
<path d="M23.7203 9.87564L21.9656 9.57796C21.7828 8.98782 21.5478 8.41858 21.2606 7.87544L22.2946 6.42883C22.7333 5.81258 22.6654 4.97177 22.1275 4.43908L20.5712 2.88279C20.2788 2.59033 19.8923 2.42844 19.4797 2.42844C19.1559 2.42844 18.8478 2.52766 18.5867 2.71567L17.1348 3.74971C16.5708 3.45204 15.9807 3.20658 15.3697 3.02379L15.0772 1.28994C14.9519 0.543134 14.3095 0 13.5522 0H11.3536C10.5963 0 9.95398 0.543134 9.82864 1.28994L9.52574 3.06557C8.94083 3.24836 8.37158 3.48859 7.82844 3.78105L6.39227 2.74701C6.13115 2.559 5.8178 2.45977 5.49401 2.45977C5.08144 2.45977 4.68976 2.62167 4.40252 2.91412L2.84101 4.47041C2.30832 5.0031 2.23521 5.84391 2.67389 6.46016L3.71838 7.92767C3.43115 8.47603 3.20136 9.04527 3.0238 9.63541L1.28994 9.92786C0.543134 10.0532 0 10.6956 0 11.4528V13.6515C0 14.4087 0.543134 15.0511 1.28994 15.1764L3.06558 15.4793C3.24836 16.0642 3.48859 16.6335 3.78105 17.1766L2.75223 18.6076C2.31354 19.2238 2.38143 20.0646 2.91935 20.5973L4.47564 22.1536C4.76809 22.4461 5.15455 22.608 5.56713 22.608C5.89092 22.608 6.19904 22.5087 6.46016 22.3207L7.92767 21.2762C8.45514 21.553 9.00872 21.7776 9.57796 21.9552L9.87042 23.7099C9.99576 24.4567 10.6381 24.9998 11.3954 24.9998H13.5992C14.3565 24.9998 14.9989 24.4567 15.1242 23.7099L15.4219 21.9552C16.012 21.7724 16.5813 21.5374 17.1244 21.2501L18.571 22.2842C18.8321 22.4722 19.1455 22.5714 19.4693 22.5714C19.8818 22.5714 20.2683 22.4095 20.5608 22.117L22.1171 20.5608C22.6497 20.0281 22.7229 19.1873 22.2842 18.571L21.2501 17.1192C21.5374 16.5708 21.7776 16.0016 21.9552 15.4167L23.7099 15.1242C24.4567 14.9989 24.9998 14.3565 24.9998 13.5992V11.4006C25.0103 10.6433 24.4672 10.001 23.7203 9.87564ZM23.6002 13.5992C23.6002 13.6671 23.5532 13.7246 23.4853 13.735L21.2919 14.1006C21.0151 14.1476 20.7958 14.3513 20.7279 14.6176C20.5294 15.3853 20.2265 16.1217 19.8192 16.8058C19.6782 17.0461 19.6886 17.3437 19.8505 17.5735L21.1405 19.3909C21.177 19.4432 21.1718 19.5215 21.1248 19.5685L19.5685 21.1248C19.5319 21.1613 19.4954 21.1666 19.4693 21.1666C19.4379 21.1666 19.4118 21.1561 19.3909 21.1405L17.5788 19.8505C17.3542 19.6886 17.0513 19.6782 16.8111 19.8192C16.1269 20.2265 15.3905 20.5294 14.6228 20.7279C14.3513 20.7958 14.1476 21.0203 14.1058 21.2919L13.735 23.4853C13.7246 23.5532 13.6671 23.6002 13.5992 23.6002H11.4006C11.3327 23.6002 11.2753 23.5532 11.2648 23.4853L10.8992 21.2919C10.8522 21.0151 10.6486 20.7958 10.3822 20.7279C9.63541 20.5346 8.91471 20.237 8.24102 19.8505C8.13135 19.7878 8.00601 19.7565 7.88589 19.7565C7.74489 19.7565 7.59866 19.7983 7.47854 19.8871L5.65069 21.1875C5.62457 21.2031 5.59846 21.2136 5.57235 21.2136C5.55146 21.2136 5.50968 21.2083 5.47312 21.1718L3.91683 19.6155C3.86983 19.5685 3.86461 19.4954 3.90117 19.4379L5.18589 17.6362C5.34778 17.4064 5.35823 17.1035 5.21722 16.8633C4.80987 16.1844 4.49653 15.448 4.29807 14.6803C4.22496 14.4139 4.00562 14.2103 3.73405 14.1633L1.52495 13.7873C1.45706 13.7768 1.41006 13.7194 1.41006 13.6515V11.4528C1.41006 11.3849 1.45706 11.3275 1.52495 11.317L3.70271 10.9515C3.9795 10.9045 4.20407 10.7008 4.27196 10.4292C4.46519 9.66152 4.76287 8.91993 5.165 8.23579C5.306 7.99556 5.29034 7.69788 5.12844 7.47332L3.82805 5.64546C3.7915 5.59324 3.79672 5.5149 3.84372 5.4679L5.40001 3.91161C5.43657 3.87505 5.47312 3.86983 5.49923 3.86983C5.53057 3.86983 5.55668 3.88028 5.57757 3.89594L7.37931 5.18066C7.6091 5.34256 7.912 5.353 8.15224 5.212C8.83115 4.80465 9.56752 4.4913 10.3352 4.29285C10.6016 4.21973 10.8052 4.00039 10.8522 3.72882L11.2283 1.51973C11.2387 1.45184 11.2961 1.40484 11.364 1.40484H13.5627C13.6306 1.40484 13.688 1.45184 13.6985 1.51973L14.064 3.69749C14.111 3.97428 14.3147 4.19884 14.5863 4.26674C15.3749 4.46519 16.1269 4.77331 16.8267 5.18589C17.067 5.32689 17.3646 5.31645 17.5944 5.15455L19.3962 3.85939C19.4223 3.84372 19.4484 3.83327 19.4745 3.83327C19.4954 3.83327 19.5372 3.8385 19.5737 3.87505L21.13 5.43134C21.177 5.47834 21.1822 5.55146 21.1457 5.6089L19.8557 7.42109C19.6938 7.64566 19.6834 7.94856 19.8244 8.18879C20.2318 8.87293 20.5347 9.6093 20.7331 10.377C20.801 10.6486 21.0256 10.8522 21.2971 10.894L23.4906 11.2648C23.5584 11.2753 23.6055 11.3327 23.6055 11.4006V13.5992H23.6002V13.5992Z" fill="white"/>
<path d="M12.5027 7.10254C9.5259 7.10254 7.10791 9.52053 7.10791 12.4973C7.10791 15.4741 9.5259 17.8921 12.5027 17.8921C15.4795 17.8921 17.8975 15.4741 17.8975 12.4973C17.8975 9.52053 15.4795 7.10254 12.5027 7.10254ZM12.5027 16.4821C10.304 16.4821 8.51797 14.696 8.51797 12.4973C8.51797 10.2987 10.304 8.5126 12.5027 8.5126C14.7013 8.5126 16.4874 10.2987 16.4874 12.4973C16.4874 14.696 14.7013 16.4821 12.5027 16.4821Z" fill="white"/>
</g>
<defs>
<clipPath id="clip0_1439_1868">
<rect width="25" height="25" fill="white"/>
</clipPath>
</defs>
</svg>
