<svg width="25" height="25" viewBox="0 0 25 25" fill="none" xmlns="http://www.w3.org/2000/svg">
<path d="M23.3174 18.2214L20.3847 15.8656C19.7116 15.3367 18.7501 15.2887 18.077 15.8175L15.577 17.6444C15.2886 17.8848 14.8559 17.8367 14.5674 17.5483L10.8174 14.1829L7.45202 10.4329C7.16355 10.1444 7.16355 9.75982 7.35586 9.42328L9.18279 6.92328C9.71163 6.25021 9.66355 5.28867 9.13471 4.61559L6.77894 1.6829C6.05779 0.817516 4.75971 0.721362 3.9424 1.53867L1.4424 4.03867C1.05779 4.42328 0.865479 4.95213 0.865479 5.48098C1.10586 10.3848 3.3174 15.0483 6.58663 18.3175C9.85586 21.5867 14.5193 23.7983 19.4232 24.0387C19.952 24.0867 20.4809 23.8464 20.8655 23.4617L23.3655 20.9617C24.2789 20.2406 24.2309 18.8944 23.3174 18.2214Z" fill="white"/>
</svg>
