<svg width="48" height="28" viewBox="0 0 48 28" fill="none" xmlns="http://www.w3.org/2000/svg">
<rect width="48" height="28" rx="14" fill="#FE4A54"/>
<path fill-rule="evenodd" clip-rule="evenodd" d="M26.3102 9.7475C24.7332 9.58182 23.144 9.56949 21.5648 9.7107L20.5103 9.80499C19.6388 9.8829 18.9347 10.5486 18.8082 11.4143C18.5574 13.1295 18.5574 14.872 18.8082 16.5871C18.9347 17.4528 19.6388 18.1185 20.5103 18.1965L21.5648 18.2907C23.144 18.4319 24.7332 18.4197 26.3102 18.2539L26.7153 18.2114C27.5447 18.1243 28.2158 17.5069 28.3773 16.6965L30.4086 17.7756C30.5567 17.8543 30.7344 17.8535 30.8818 17.7735C31.0292 17.6934 31.1266 17.5448 31.1412 17.3777L31.1579 17.1885C31.3438 15.0674 31.3438 12.9341 31.1579 10.813L31.1412 10.6237C31.1266 10.4567 31.0292 10.3081 30.8818 10.228C30.7344 10.148 30.5567 10.1472 30.4086 10.2259L28.3773 11.305C28.2158 10.4946 27.5447 9.87721 26.7153 9.79007L26.3102 9.7475ZM21.6538 10.7067C23.1687 10.5713 24.6931 10.5831 26.2056 10.742L26.6108 10.7846C27.0185 10.8274 27.3453 11.1413 27.4046 11.5469C27.6425 13.1741 27.6425 14.8273 27.4046 16.4545C27.3453 16.8602 27.0185 17.174 26.6108 17.2169L26.2056 17.2594C24.6931 17.4183 23.1687 17.4302 21.6538 17.2947L20.5993 17.2005C20.1889 17.1637 19.8573 16.8502 19.7977 16.4425C19.5609 14.8233 19.5609 13.1782 19.7977 11.559C19.8573 11.1513 20.1889 10.8377 20.5993 10.801L21.6538 10.7067ZM28.5086 12.3676C28.6079 13.4541 28.6079 14.5473 28.5086 15.6339L30.2066 16.5359C30.3275 14.8479 30.3275 13.1535 30.2066 11.4655L28.5086 12.3676Z" fill="white"/>
</svg>
