<svg width="30" height="30" viewBox="0 0 30 30" fill="none" xmlns="http://www.w3.org/2000/svg">
<g clip-path="url(#clip0_1551_437)">
<path d="M18.7749 29.7245L8.75757 22.5105H2.88088C1.28595 22.5105 0.0100098 21.1732 0.0100098 19.5108V10.3891C0.0100098 8.73282 1.28595 7.3894 2.88088 7.3894H8.75144L18.7749 0.236771C20.1061 -0.493215 20.7993 0.647771 20.7563 1.19373V28.7001C20.8483 29.3074 19.8362 30.5526 18.7749 29.7245ZM2.88088 9.94129C2.69071 9.94129 2.56189 10.1314 2.56189 10.4504V19.5783C2.56189 19.836 2.75206 20.0875 2.88088 20.0875H9.1379C9.39554 20.0875 9.64705 20.1488 9.83721 20.3451L18.1983 26.3384V3.68427L9.83721 9.68364C9.64705 9.81246 9.38941 9.94129 9.1379 9.94129H2.88088Z" fill="white"/>
<path d="M27.3874 24.6205C26.7495 24.4303 26.3017 23.7923 26.4918 23.0869C28.7922 13.8976 26.5532 6.94132 26.4918 6.87997C26.3017 6.242 26.6207 5.54269 27.2586 5.28505C27.8966 5.09488 28.5959 5.41387 28.8535 6.05184C28.9824 6.37082 31.3441 13.775 28.8535 23.6635C28.7309 24.3015 28.1052 24.872 27.3874 24.6205Z" fill="white"/>
<path d="M23.6272 19.7687C22.9893 19.5786 22.5415 18.9406 22.7316 18.2352C23.6272 14.5975 22.793 11.788 22.7316 11.7266C22.5415 11.0887 22.8605 10.3894 23.5598 10.1317C24.1977 9.94156 24.897 10.2605 25.1547 10.8985C25.216 11.0273 26.3018 14.4073 25.1547 18.8118C25.0259 19.4498 24.437 19.9896 23.6272 19.7687Z" fill="white"/>
</g>
<defs>
<clipPath id="clip0_1551_437">
<rect width="30" height="30" fill="white"/>
</clipPath>
</defs>
</svg>
