<svg width="414" height="896" viewBox="0 0 414 896" fill="none" xmlns="http://www.w3.org/2000/svg">
<rect width="414" height="896" fill="#0B0B45"/>
<g clip-path="url(#clip0_1_2882)">
<path d="M281.38 365H131.95C127.559 365 124 368.559 124 372.95V522.38C124 526.771 127.559 530.33 131.95 530.33H281.38C285.771 530.33 289.33 526.771 289.33 522.38V372.95C289.33 368.559 285.771 365 281.38 365Z" fill="#0B0B45"/>
<path d="M206.71 438.51L197.44 447.77L206.71 457.04L215.97 447.77L206.71 438.51ZM200.83 447.77L206.71 441.89L212.59 447.77L206.71 453.66L200.83 447.77Z" fill="white"/>
<path d="M215.9 416.76C215.916 407.461 212.663 398.453 206.71 391.31C200.771 398.459 197.52 407.46 197.52 416.755C197.52 426.049 200.771 435.05 206.71 442.2C212.661 435.059 215.913 426.055 215.9 416.76ZM202.9 413.03L206.61 406.14L210.41 412.98L210.46 420.48L206.75 427.37L202.95 420.54L202.9 413.03Z" fill="white"/>
<path d="M206.71 437.43C203.68 432.941 201.673 427.841 200.83 422.49L206.83 433.28L212.59 422.59C211.731 427.905 209.724 432.969 206.71 437.43ZM206.6 400.17L200.84 410.87C201.699 405.557 203.701 400.493 206.71 396.03C209.741 400.516 211.748 405.613 212.59 410.96L206.6 400.17Z" fill="white"/>
<path d="M197.52 478.58C197.504 487.878 200.757 496.886 206.71 504.03C212.649 496.88 215.9 487.879 215.9 478.585C215.9 469.29 212.649 460.289 206.71 453.14C200.76 460.28 197.507 469.285 197.52 478.58ZM210.52 482.31L206.81 489.19L203.01 482.36L202.96 474.85L206.67 467.97L210.47 474.8L210.52 482.31Z" fill="white"/>
<path d="M206.71 499.28C203.679 494.794 201.672 489.697 200.83 484.35L206.83 495.14L212.59 484.44C211.733 489.755 209.726 494.82 206.71 499.28ZM206.6 462.03L200.84 472.72C201.7 467.407 203.703 462.344 206.71 457.88C209.74 462.369 211.747 467.47 212.59 472.82L206.6 462.03Z" fill="white"/>
<path d="M237.81 438.58C228.511 438.565 219.503 441.817 212.36 447.77C219.509 453.709 228.511 456.96 237.805 456.96C247.099 456.96 256.101 453.709 263.25 447.77C256.109 441.82 247.105 438.567 237.81 438.58ZM234.08 451.58L227.19 447.87L234.03 444.08L241.53 444.02L248.42 447.73L241.59 451.53L234.08 451.58Z" fill="white"/>
<path d="M254.36 447.66L243.67 441.9C248.983 442.761 254.046 444.764 258.51 447.77C254.018 450.799 248.919 452.809 243.57 453.66L254.36 447.66ZM231.95 453.66C226.635 452.807 221.571 450.803 217.11 447.79C221.595 444.76 226.692 442.752 232.04 441.91L221.25 447.91L231.95 453.66Z" fill="white"/>
<path d="M175.53 438.58C166.235 438.567 157.231 441.82 150.09 447.77C157.239 453.709 166.241 456.96 175.535 456.96C184.829 456.96 193.831 453.709 200.98 447.77C193.837 441.817 184.829 438.565 175.53 438.58ZM171.81 451.58L164.92 447.87L171.76 444.08L179.26 444.02L186.15 447.73L179.31 451.53L171.81 451.58Z" fill="white"/>
<path d="M192.44 447.66L181.75 441.9C187.063 442.759 192.127 444.762 196.59 447.77C192.1 450.802 187 452.812 181.65 453.66L192.44 447.66ZM170.03 453.66C164.715 452.807 159.651 450.803 155.19 447.79C159.678 444.758 164.779 442.75 170.13 441.91L159.33 447.91L170.03 453.66Z" fill="white"/>
</g>
<defs>
<clipPath id="clip0_1_2882">
<rect width="165.33" height="165.33" fill="white" transform="translate(124 365)"/>
</clipPath>
</defs>
</svg>
