<svg width="22" height="25" viewBox="0 0 22 25" fill="none" xmlns="http://www.w3.org/2000/svg">
<path d="M12.3 4.13371V2.69141H13.9V0.191406H8.09995V2.69141H9.69995V4.13371C4.36955 4.75294 0.199951 9.15689 0.199951 14.4465C0.199951 20.1592 5.03345 24.8068 10.9747 24.8068C16.9159 24.8068 21.7494 20.1592 21.7494 14.4465C21.7494 9.15689 17.6304 4.75294 12.3 4.13371ZM10.9747 22.3068C6.46705 22.3068 2.79995 18.7806 2.79995 14.4465C2.79995 10.1123 6.46705 6.58621 10.9747 6.58621C15.4822 6.58621 19.1494 10.1123 19.1494 14.4465C19.1494 18.7806 15.4822 22.3068 10.9747 22.3068ZM16.1082 10.8704L12.8441 14.009C12.8796 14.1496 12.9004 14.2955 12.9004 14.4466C12.9004 15.4692 12.0382 16.2982 10.9747 16.2982C9.91115 16.2982 9.04895 15.4692 9.04895 14.4466C9.04895 13.424 9.91115 12.595 10.9747 12.595C11.1318 12.595 11.2837 12.6151 11.4298 12.6492L14.6939 9.51064L16.1082 10.8704Z" fill="white"/>
</svg>
