<svg width="59" height="59" viewBox="0 0 59 59" fill="none" xmlns="http://www.w3.org/2000/svg">
<path d="M29.5 0.000976562C13.2093 0.000976562 0 13.2077 0 29.4997C0 45.7917 13.208 58.9984 29.5 58.9984C45.7933 58.9984 59 45.7917 59 29.4997C59 13.2077 45.7933 0.000976562 29.5 0.000976562ZM29.5 8.82143C34.8905 8.82143 39.2586 13.1908 39.2586 18.5787C39.2586 23.9679 34.8905 28.3361 29.5 28.3361C24.1121 28.3361 19.744 23.9679 19.744 18.5787C19.744 13.1908 24.1121 8.82143 29.5 8.82143ZM29.4935 51.2858C24.1173 51.2858 19.1933 49.3279 15.3953 46.0871C14.4701 45.298 13.9362 44.1408 13.9362 42.9267C13.9362 37.4623 18.3588 33.089 23.8244 33.089H35.1782C40.6451 33.089 45.0508 37.4623 45.0508 42.9267C45.0508 44.1421 44.5195 45.2967 43.593 46.0858C39.7964 49.3279 34.8711 51.2858 29.4935 51.2858Z" fill="#C1C1CF"/>
</svg>
