<svg width="55" height="55" viewBox="0 0 55 55" fill="none" xmlns="http://www.w3.org/2000/svg">
<path d="M46.6398 54.0013C50.7046 54.0013 53.9998 50.7061 53.9998 46.6413C53.9998 42.5764 50.7046 39.2812 46.6398 39.2812C42.575 39.2812 39.2798 42.5764 39.2798 46.6413C39.2798 50.7061 42.575 54.0013 46.6398 54.0013Z" fill="#2DCA8C"/>
<path d="M46.6398 54.0013C50.7046 54.0013 53.9998 50.7061 53.9998 46.6413C53.9998 42.5764 50.7046 39.2812 46.6398 39.2812C42.575 39.2812 39.2798 42.5764 39.2798 46.6413C39.2798 50.7061 42.575 54.0013 46.6398 54.0013Z" stroke="white" stroke-width="2"/>
<path d="M46.6398 54.0013C50.7046 54.0013 53.9998 50.7061 53.9998 46.6413C53.9998 42.5764 50.7046 39.2812 46.6398 39.2812C42.575 39.2812 39.2798 42.5764 39.2798 46.6413C39.2798 50.7061 42.575 54.0013 46.6398 54.0013Z" stroke="url(#paint0_linear_465_21870)" stroke-width="2"/>
<defs>
<linearGradient id="paint0_linear_465_21870" x1="46.6398" y1="40.2812" x2="46.6398" y2="53.0013" gradientUnits="userSpaceOnUse">
<stop stop-color="white"/>
<stop offset="1" stop-color="white" stop-opacity="0"/>
</linearGradient>
</defs>
</svg>
