<svg width="40" height="40" viewBox="0 0 40 40" fill="none" xmlns="http://www.w3.org/2000/svg">
<path fill-rule="evenodd" clip-rule="evenodd" d="M23.4371 9.3668C19.4947 8.9526 15.5217 8.92178 11.5736 9.2748L8.93729 9.51052C6.75873 9.7053 4.99848 11.3696 4.68208 13.5339C4.05519 17.8217 4.05519 22.1781 4.68208 26.4659C4.99848 28.6301 6.75873 30.2944 8.93729 30.4892L11.5736 30.7249C15.5217 31.0779 19.4947 31.0472 23.4371 30.6329L24.4499 30.5266C26.5234 30.3087 28.2011 28.7652 28.6049 26.7393L33.6831 29.4371C34.0534 29.6337 34.4976 29.6317 34.8661 29.4317C35.2346 29.2316 35.4781 28.8601 35.5147 28.4424L35.5562 27.9692C36.0211 22.6666 36.0211 17.3332 35.5562 12.0305L35.5147 11.5574C35.4781 11.1397 35.2346 10.7682 34.8661 10.5681C34.4976 10.368 34.0534 10.3659 33.6831 10.5627L28.6049 13.2606C28.2011 11.2345 26.5234 9.69108 24.4499 9.47322L23.4371 9.3668ZM11.7962 11.7649C15.5833 11.4262 19.3944 11.4558 23.1757 11.8531L24.1886 11.9595C25.2079 12.0666 26.0249 12.8512 26.1732 13.8653C26.7679 17.9334 26.7679 22.0664 26.1732 26.1344C26.0249 27.1486 25.2079 27.9331 24.1886 28.0402L23.1757 28.1466C19.3944 28.5439 15.5834 28.5736 11.7962 28.2349L9.15994 27.9992C8.13386 27.9074 7.30479 27.1236 7.15578 26.1042C6.56396 22.0562 6.56396 17.9436 7.15578 13.8955C7.30479 12.8762 8.13386 12.0923 9.15994 12.0006L11.7962 11.7649ZM28.9332 15.9171C29.1812 18.6332 29.1812 21.3664 28.9332 24.0827L33.1782 26.3379C33.4804 22.1179 33.4804 17.8817 33.1782 13.6618L28.9332 15.9171Z" fill="white"/>
</svg>
