<svg width="24" height="20" viewBox="0 0 24 20" fill="none" xmlns="http://www.w3.org/2000/svg">
<path d="M23.1223 7.8812H21.4604V4.46523C21.4604 3.98052 21.0675 3.58754 20.5827 3.58754H19.4898V1.54077C19.4898 1.05606 19.0969 0.663086 18.6122 0.663086H2.84828C2.36356 0.663086 1.97059 1.05606 1.97059 1.54077V3.58754H0.877689C0.392971 3.58754 0 3.98052 0 4.46523V18.4586C0 18.9434 0.392971 19.3363 0.877689 19.3363H20.5827C21.0675 19.3363 21.4604 18.9434 21.4604 18.4586V15.0827H23.1223C23.607 15.0827 24 14.6897 24 14.205V8.75889C24 8.27417 23.607 7.8812 23.1223 7.8812ZM3.72597 2.41858H17.7345V3.58766H3.72597V2.41858ZM19.7051 17.5811H1.75538V5.34304H19.7051V7.88131H15.4531C14.9683 7.88131 14.5754 8.27428 14.5754 8.759V14.2052C14.5754 14.69 14.9683 15.0829 15.4531 15.0829H19.7051V17.5811ZM22.2446 13.3274H16.3308V9.63658H22.2446V13.3274Z" fill="white"/>
</svg>
